<?xml version="1.0" ?><!DOCTYPE svg  PUBLIC '-//W3C//DTD SVG 1.1//EN'  'http://www.w3.org/Graphics/SVG/1.1/DTD/svg11.dtd'><svg enable-background="new 0 0 512 512" height="512px" id="Calque_1" version="1.1" viewBox="0 0 512 512" width="512px" xml:space="preserve" xmlns="http://www.w3.org/2000/svg" xmlns:xlink="http://www.w3.org/1999/xlink"><g><g><g id="XMLID_1_"><g><path d="M462.5,96.76v59.15c-32.65-0.01-59.14-26.5-59.15-59.15H462.5z" fill="#77D379"/><path d="M462.5,266.24v59.15h-59.15C403.36,292.73,429.85,266.24,462.5,266.24z" fill="#77D379"/><path d="M108.65,325.39H49.5v-59.15C82.15,266.24,108.65,292.73,108.65,325.39z" fill="#77D379"/><path d="M108.64,96.76c0.01,32.65-26.49,59.15-59.14,59.15V96.76H108.64z" fill="#77D379"/><path d="M130.18,189.64c11.84,0,21.44,9.59,21.44,21.43c0,11.84-9.6,21.44-21.44,21.44      c-11.83,0-21.43-9.6-21.43-21.44C108.75,199.23,118.35,189.64,130.18,189.64z" fill="#77D379"/><circle cx="256" cy="211.07" fill="#77D379" r="59.14"/><path d="M381.82,189.64c11.83,0,21.43,9.59,21.43,21.43c0,11.84-9.6,21.44-21.43,21.44      c-11.84,0-21.44-9.6-21.44-21.44C360.38,199.23,369.98,189.64,381.82,189.64z" fill="#77D379"/><path d="M462.5,155.91v110.33c-32.65,0-59.14,26.49-59.15,59.15h-294.7c0-32.66-26.5-59.15-59.15-59.15V155.91      c32.65,0,59.15-26.5,59.14-59.15h294.71C403.36,129.41,429.85,155.9,462.5,155.91z M403.25,211.07      c0-11.84-9.6-21.43-21.43-21.43c-11.84,0-21.44,9.59-21.44,21.43s9.6,21.44,21.44,21.44      C393.65,232.51,403.25,222.91,403.25,211.07z M315.14,211.07c0-32.66-26.48-59.14-59.14-59.14s-59.14,26.48-59.14,59.14      s26.48,59.14,59.14,59.14S315.14,243.73,315.14,211.07z M151.62,211.07c0-11.84-9.6-21.43-21.44-21.43      c-11.83,0-21.43,9.59-21.43,21.43s9.6,21.44,21.43,21.44C142.02,232.51,151.62,222.91,151.62,211.07z" fill="#2D9637"/></g><g><g><g><path d="M53.42,351.03H205.5v8H53.42c-2.16,0-3.92-1.79-3.92-4C49.5,352.82,51.26,351.03,53.42,351.03z" fill="#2D9637"/><path d="M462.5,355.03c0,2.21-1.76,4-3.92,4H306.5v-8h152.08C460.74,351.03,462.5,352.82,462.5,355.03z" fill="#2D9637"/></g></g><g><g><path d="M53.42,379.14H205.5v8H53.42c-2.16,0-3.92-1.79-3.92-4C49.5,380.93,51.26,379.14,53.42,379.14z" fill="#2D9637"/><path d="M462.5,383.14c0,2.21-1.76,4-3.92,4H306.5v-8h152.08C460.74,379.14,462.5,380.93,462.5,383.14z" fill="#2D9637"/></g></g><g><g><path d="M53.42,407.24H205.5v8H53.42c-2.16,0-3.92-1.79-3.92-4C49.5,409.03,51.26,407.24,53.42,407.24z" fill="#2D9637"/><path d="M462.5,411.24c0,2.21-1.76,4-3.92,4H306.5v-8h152.08C460.74,407.24,462.5,409.03,462.5,411.24z" fill="#2D9637"/></g></g><circle cx="256" cy="211.07" fill="none" r="59.14"/><path d="M108.64,96.76c0.01,32.65-26.49,59.15-59.14,59.15" fill="none"/><path d="M49.5,266.24c32.65,0,59.15,26.49,59.15,59.15" fill="none"/><path d="M462.5,155.91c-32.65-0.01-59.14-26.5-59.15-59.15" fill="none"/><path d="M403.35,325.39c0.01-32.66,26.5-59.15,59.15-59.15" fill="none"/><polygon fill="none" points="49.5,155.91 49.5,96.76 108.64,96.76 403.35,96.76 462.5,96.76 462.5,155.91 462.5,266.24       462.5,325.39 403.35,325.39 108.65,325.39 49.5,325.39 49.5,266.24     "/><path d="M130.18,189.64c11.84,0,21.44,9.59,21.44,21.43c0,11.84-9.6,21.44-21.44,21.44      c-11.83,0-21.43-9.6-21.43-21.44C108.75,199.23,118.35,189.64,130.18,189.64z" fill="none"/><path d="M381.82,189.64c11.83,0,21.43,9.59,21.43,21.43c0,11.84-9.6,21.44-21.43,21.44      c-11.84,0-21.44-9.6-21.44-21.44C360.38,199.23,369.98,189.64,381.82,189.64z" fill="none"/></g></g></g><linearGradient gradientTransform="matrix(1 0 0 -1 29.1 515.4)" gradientUnits="userSpaceOnUse" id="SVGID_1_" x1="226.9" x2="226.9" y1="304.33" y2="190.01"><stop offset="0" style="stop-color:#000000"/><stop offset="1" style="stop-color:#FFFFFF;stop-opacity:0"/></linearGradient><rect enable-background="new    " fill="url(#SVGID_1_)" height="114.32" opacity="0.2" width="413" x="49.5" y="211.07"/></g></svg>