<?xml version="1.0" encoding="UTF-8"?>
<svg version="1.1" xmlns="http://www.w3.org/2000/svg" width="456" height="457">
    <path d="M0 0 C2.29146349 1.51151945 4.47380083 2.81268184 6.9609375 3.953125 C7.13109375 3.37304688 7.30125 2.79296875 7.4765625 2.1953125 C10.27648118 -6.82995728 14.61158331 -13.62766492 23.07439327 -18.18499851 C32.2797552 -22.01421065 41.43627117 -21.60334753 51.22680664 -21.54858398 C53.16292208 -21.55237246 55.09903479 -21.55787683 57.03514099 -21.56495667 C62.2665156 -21.57885865 67.49755938 -21.56777888 72.72891545 -21.55124545 C78.21750822 -21.53734127 83.70608284 -21.54386106 89.19468689 -21.54737854 C98.40857237 -21.5500762 107.62232724 -21.53664252 116.83618164 -21.51342773 C127.47277478 -21.48681298 138.10914975 -21.48507512 148.74576479 -21.4968161 C159.00002194 -21.50761266 169.25420054 -21.50139256 179.50845146 -21.48726082 C183.862674 -21.48151812 188.21683874 -21.48157015 192.57106209 -21.48632622 C197.70200296 -21.49111499 202.83270633 -21.48091577 207.96360207 -21.45937157 C209.84125721 -21.45382967 211.71893531 -21.4533144 213.59659195 -21.45832443 C226.99615113 -21.48958171 237.66918634 -21.44492377 247.75390625 -11.55078125 C254.21792001 -4.21727183 255.57256538 2.34864005 255.30517578 12.00488281 C254.76553532 18.19429097 252.75511448 23.3355924 250.3359375 29.015625 C249.80686402 30.31307794 249.28028632 31.61155066 248.75585938 32.91088867 C247.54961849 35.88504668 246.32665009 38.8516558 245.09277344 41.81445312 C242.68510477 47.60250562 240.32687871 53.41037478 237.96875 59.21875 C235.17581175 66.09336623 232.38032301 72.96689254 229.57250977 79.83544922 C223.4093765 94.91223167 217.30790901 110.01190877 211.2734375 125.140625 C203.56155525 144.46858693 195.80574143 163.77844185 188.0234375 183.078125 C187.45144326 184.49674347 186.8794523 185.91536327 186.3074646 187.33398438 C183.97620255 193.1157827 181.64480378 198.89752587 179.31315613 204.6791687 C173.6373378 218.753483 167.96707181 232.83003144 162.29791737 246.90703106 C160.49394523 251.38636968 158.68962826 255.86556919 156.88499546 260.34464169 C150.9179743 275.15470592 144.95413003 289.96602699 139.00216675 304.78215027 C136.69410346 310.52748796 134.38447286 316.27219521 132.07450294 322.01676655 C130.50630063 325.91701319 128.9389705 329.81760511 127.37384033 333.71908569 C124.06928959 341.95544098 120.75104917 350.18591502 117.40307617 358.40472412 C116.47425136 360.69010959 115.55020544 362.97744608 114.63208008 365.26715088 C113.46009673 368.18592621 112.26856802 371.09583883 111.0703125 374.00390625 C110.75040344 374.81304977 110.43049438 375.6221933 110.10089111 376.45585632 C107.01133936 383.83060114 102.25048591 390.55032198 94.7734375 393.890625 C93.95488281 394.27089844 93.13632812 394.65117187 92.29296875 395.04296875 C87.50775327 396.91056541 83.13863669 397.09945334 78.03036499 397.09356689 C76.82300688 397.09802358 76.82300688 397.09802358 75.59125769 397.1025703 C72.89074332 397.11125048 70.19027331 397.11276498 67.48974609 397.11425781 C65.55466619 397.11888655 63.6195872 397.12391129 61.68450928 397.12930298 C56.42391224 397.14242556 51.16332796 397.14887193 45.90271711 397.15331364 C42.61473513 397.15624522 39.32675663 397.16035024 36.0387764 397.16481781 C25.74768762 397.17849376 15.45660681 397.18815935 5.16550958 397.1920197 C-6.70652692 397.19649769 -18.57844813 397.2140332 -30.45044959 397.2430203 C-39.63108004 397.26465623 -48.8116781 397.27472504 -57.99233377 397.27606082 C-63.47334435 397.27710768 -68.95424656 397.28299 -74.43523026 397.30088043 C-79.59476876 397.3173936 -84.75411784 397.31950082 -89.9136734 397.31074142 C-91.80262383 397.30997273 -93.69158458 397.31429157 -95.58050919 397.32419968 C-109.02253227 397.39054633 -119.71182457 397.38598993 -129.83203125 387.45703125 C-136.29604501 380.12352183 -137.65069038 373.55760995 -137.38330078 363.90136719 C-136.84366293 357.71198892 -134.83327865 352.57062802 -132.4140625 346.890625 C-131.88645535 345.59683361 -131.36134166 344.30202332 -130.83837891 343.00634766 C-129.63358782 340.0358583 -128.4120356 337.07293038 -127.1796875 334.11376953 C-124.74493769 328.26009159 -122.36095457 322.3860509 -119.9765625 316.51171875 C-116.70678327 308.46167801 -113.42917661 300.41492837 -110.14068604 292.37251282 C-104.2515643 277.96628806 -98.43437469 263.53231978 -92.6640625 249.078125 C-92.27144226 248.0947113 -91.87882202 247.11129761 -91.4743042 246.0980835 C-89.32674564 240.71741607 -87.18168094 235.33576143 -85.0390625 229.953125 C-85.60106354 229.84668167 -86.16306458 229.74023834 -86.74209595 229.63056946 C-89.33445829 229.13601845 -91.92500807 228.63251708 -94.515625 228.12890625 C-95.39935791 227.96169067 -96.28309082 227.7944751 -97.19360352 227.62219238 C-120.95620262 222.9691846 -141.67054417 210.53502565 -159.0390625 193.953125 C-159.626875 193.42847656 -160.2146875 192.90382812 -160.8203125 192.36328125 C-183.35965616 171.4718613 -194.95974808 138.93598542 -196.1640625 108.828125 C-196.80501791 73.57557734 -184.21686282 41.54369392 -160.0390625 15.953125 C-117.74778836 -26.27891766 -49.7458753 -33.59423605 0 0 Z " fill="#F7C709" transform="translate(201.0390625,40.046875)"/>
    <path d="M0 0 C24.01448306 21.4057669 42.01871245 49.52189647 44.625 82.33984375 C46.7154702 121.186332 37.56020081 154.19823805 11.3125 183.46484375 C-9.81082014 206.26918204 -39.57673738 220.43887445 -70.60595703 222.56079102 C-91.97176421 223.32699287 -111.75105043 221.03082328 -131.375 212.33984375 C-132.56480469 211.81519531 -133.75460938 211.29054688 -134.98046875 210.75 C-147.9736498 204.62114101 -159.01549484 196.23016842 -169.375 186.33984375 C-169.9628125 185.81519531 -170.550625 185.29054687 -171.15625 184.75 C-193.69559366 163.85858005 -205.29568558 131.32270417 -206.5 101.21484375 C-207.14095541 65.96229609 -194.55280032 33.93041267 -170.375 8.33984375 C-124.70161851 -37.26956942 -49.88120567 -41.43093563 0 0 Z " fill="#092EE9" transform="translate(211.375,47.66015625)"/>
</svg>
