<?xml version="1.0" standalone="no"?>
<!DOCTYPE svg PUBLIC "-//W3C//DTD SVG 20010904//EN"
 "http://www.w3.org/TR/2001/REC-SVG-20010904/DTD/svg10.dtd">
<svg version="1.0" xmlns="http://www.w3.org/2000/svg"
 width="300.000000pt" height="374.000000pt" viewBox="0 0 300.000000 374.000000"
 preserveAspectRatio="xMidYMid meet">
<metadata>
Created by potrace 1.10, written by Peter Selinger 2001-2011
</metadata>
<g transform="translate(0.000000,374.000000) scale(0.100000,-0.100000)"
fill="#000000" stroke="none">
<path d="M1464 3078 c-54 -59 -272 -359 -343 -471 -127 -202 -261 -484 -261
-551 0 -36 4 -42 198 -306 51 -69 119 -178 152 -242 66 -128 90 -152 121 -121
11 10 43 81 73 158 65 170 107 260 176 385 54 98 196 320 204 320 7 0 52 -79
65 -112 9 -24 2 -39 -75 -155 -147 -221 -275 -504 -354 -782 -37 -130 -37
-150 5 -361 13 -69 33 -183 44 -253 18 -121 35 -167 62 -167 22 0 39 57 54
180 67 543 239 973 530 1329 60 75 75 99 75 126 0 62 -113 305 -248 533 -61
103 -102 152 -126 152 -61 0 -312 -327 -467 -609 l-73 -134 -33 39 c-52 61
-52 77 -4 170 96 187 252 420 427 636 57 70 55 82 -23 176 -99 119 -119 125
-179 60z m90 -15 c13 -16 47 -56 75 -90 l51 -61 -68 -79 c-97 -113 -209 -270
-303 -424 -83 -137 -159 -280 -159 -299 0 -6 30 -53 66 -104 l66 -93 67 131
c86 168 163 292 273 436 95 125 193 238 200 230 14 -16 144 -241 192 -330 51
-97 146 -311 146 -330 0 -4 -32 -45 -71 -91 -288 -340 -496 -860 -540 -1349
-12 -133 -18 -175 -24 -168 -2 2 -9 52 -15 112 -6 60 -27 193 -47 295 -24 128
-33 202 -30 237 8 82 122 407 197 562 76 157 143 272 219 377 28 38 51 77 51
87 0 9 -24 63 -54 118 l-53 101 -36 -48 c-170 -233 -347 -574 -421 -813 -10
-30 -20 -61 -22 -69 -3 -8 -24 28 -48 80 -50 112 -114 212 -257 404 -58 77
-108 148 -112 158 -15 40 147 375 278 574 126 191 336 473 353 473 2 0 14 -12
26 -27z"/>
</g>
</svg>
