<?xml version="1.0" standalone="no"?>
<!DOCTYPE svg PUBLIC "-//W3C//DTD SVG 20010904//EN"
 "http://www.w3.org/TR/2001/REC-SVG-20010904/DTD/svg10.dtd">
<svg version="1.0" xmlns="http://www.w3.org/2000/svg"
 width="1460.000000pt" height="1768.000000pt" viewBox="0 0 1460.000000 1768.000000"
 preserveAspectRatio="xMidYMid meet">

<g transform="translate(0.000000,1768.000000) scale(0.100000,-0.100000)"
fill="#000000" stroke="none">
<path d="M5 8840 c0 -4865 1 -6855 2 -4422 2 2432 2 6412 0 8845 -1 2432 -2
442 -2 -4423z"/>
<path d="M14595 8840 c0 -4865 1 -6855 2 -4422 2 2432 2 6412 0 8845 -1 2432
-2 442 -2 -4423z"/>
<path d="M7107 14133 c-181 -201 -1075 -1424 -1402 -1918 -487 -737 -888
-1498 -1208 -2295 -82 -203 -91 -231 -91 -290 0 -48 6 -76 24 -110 12 -25 132
-189 265 -365 606 -803 952 -1297 1121 -1600 43 -77 148 -288 234 -470 86
-181 166 -348 177 -369 l20 -39 78 234 c398 1203 983 2379 1698 3414 137 199
380 535 387 535 3 0 58 -105 122 -233 65 -127 172 -334 238 -458 68 -130 122
-244 126 -268 10 -61 -15 -116 -115 -250 -687 -922 -1204 -1911 -1616 -3091
-146 -417 -361 -1152 -386 -1315 -12 -86 -3 -151 121 -797 124 -644 202 -1077
225 -1248 14 -107 75 -714 75 -752 0 -10 7 -18 15 -18 18 0 18 1 55 390 75
797 174 1401 339 2065 273 1103 739 2253 1269 3135 281 469 659 975 1036 1390
68 74 107 151 109 213 4 135 -464 1162 -820 1797 -192 343 -610 1035 -670
1109 l-18 23 -141 -154 c-535 -582 -959 -1140 -1384 -1818 -245 -391 -566
-987 -770 -1432 -43 -93 -80 -170 -83 -171 -3 -1 -90 120 -194 268 -104 149
-230 325 -280 391 -158 212 -158 230 -19 500 614 1185 1353 2290 2086 3119 59
66 119 139 135 163 25 38 26 44 13 60 -9 9 -158 186 -332 392 -175 206 -321
376 -325 378 -4 1 -56 -50 -114 -115z"/>
</g>
</svg>
