<svg xmlns="http://www.w3.org/2000/svg" xmlns:xlink="http://www.w3.org/1999/xlink" viewBox="0 0 500 500" width="500" height="500" style="width: 100%; height: 100%; transform: translate3d(0px, 0px, 0px);" preserveAspectRatio="xMidYMid meet"><defs><clipPath id="__lottie_element_2888"><rect width="500" height="500" x="0" y="0"></rect></clipPath><linearGradient id="__lottie_element_2893" spreadMethod="pad" gradientUnits="userSpaceOnUse" x1="0.9020000100135803" y1="134.14599609375" x2="0.9020000100135803" y2="-62.112998962402344"><stop offset="0%" stop-color="rgb(255,255,255)"></stop><stop offset="39%" stop-color="rgb(247,247,247)"></stop><stop offset="100%" stop-color="rgb(239,239,239)"></stop></linearGradient><linearGradient id="__lottie_element_2894" spreadMethod="pad" gradientUnits="userSpaceOnUse" x1="0.9020000100135803" y1="-100.85399627685547" x2="0.9020000100135803" y2="118.20700073242188"><stop offset="0%" stop-color="rgb(255,255,255)"></stop><stop offset="39%" stop-color="rgb(244,244,244)"></stop><stop offset="100%" stop-color="rgb(232,232,232)"></stop></linearGradient><filter id="__lottie_element_2896" x="-100%" y="-100%" width="300%" height="300%"><feGaussianBlur result="filter_result_0" stdDeviation="12 12" edgeMode="duplicate"></feGaussianBlur></filter><linearGradient id="__lottie_element_2897" spreadMethod="pad" gradientUnits="userSpaceOnUse" x1="235.90199279785156" y1="29.145999908447266" x2="-359.0320129394531" y2="29.145999908447266"><stop offset="0%" stop-color="rgb(255,225,133)"></stop><stop offset="10%" stop-color="rgb(255,206,94)"></stop><stop offset="21%" stop-color="rgb(255,187,54)"></stop><stop offset="29%" stop-color="rgb(255,134,86)"></stop><stop offset="38%" stop-color="rgb(255,81,118)"></stop><stop offset="45%" stop-color="rgb(250,66,134)"></stop><stop offset="52%" stop-color="rgb(246,51,149)"></stop><stop offset="63%" stop-color="rgb(205,53,180)"></stop><stop offset="74%" stop-color="rgb(164,54,210)"></stop><stop offset="87%" stop-color="rgb(130,66,223)"></stop><stop offset="100%" stop-color="rgb(95,78,237)"></stop></linearGradient><filter id="__lottie_element_2900" x="-100%" y="-100%" width="300%" height="300%"><feGaussianBlur result="filter_result_0" stdDeviation="12 12" edgeMode="duplicate"></feGaussianBlur></filter><linearGradient id="__lottie_element_2901" spreadMethod="pad" gradientUnits="userSpaceOnUse" x1="227.90199279785156" y1="-51.854000091552734" x2="-250.2259979248047" y2="-51.854000091552734"><stop offset="0%" stop-color="rgb(255,225,133)"></stop><stop offset="10%" stop-color="rgb(255,206,94)"></stop><stop offset="21%" stop-color="rgb(255,187,54)"></stop><stop offset="29%" stop-color="rgb(255,134,86)"></stop><stop offset="38%" stop-color="rgb(255,81,118)"></stop><stop offset="45%" stop-color="rgb(250,66,134)"></stop><stop offset="52%" stop-color="rgb(246,51,149)"></stop><stop offset="63%" stop-color="rgb(205,53,180)"></stop><stop offset="74%" stop-color="rgb(164,54,210)"></stop><stop offset="87%" stop-color="rgb(130,66,223)"></stop><stop offset="100%" stop-color="rgb(95,78,237)"></stop></linearGradient><linearGradient id="__lottie_element_2902" spreadMethod="pad" gradientUnits="userSpaceOnUse" x1="227.90199279785156" y1="-0.8539999723434448" x2="-250.2259979248047" y2="-0.8539999723434448"><stop offset="0%" stop-color="rgb(255,225,133)"></stop><stop offset="10%" stop-color="rgb(255,206,94)"></stop><stop offset="21%" stop-color="rgb(255,187,54)"></stop><stop offset="29%" stop-color="rgb(255,134,86)"></stop><stop offset="38%" stop-color="rgb(255,81,118)"></stop><stop offset="45%" stop-color="rgb(250,66,134)"></stop><stop offset="52%" stop-color="rgb(246,51,149)"></stop><stop offset="63%" stop-color="rgb(205,53,180)"></stop><stop offset="74%" stop-color="rgb(164,54,210)"></stop><stop offset="87%" stop-color="rgb(130,66,223)"></stop><stop offset="100%" stop-color="rgb(95,78,237)"></stop></linearGradient><linearGradient id="__lottie_element_2903" spreadMethod="pad" gradientUnits="userSpaceOnUse" x1="227.90199279785156" y1="-0.8539999723434448" x2="-250.2259979248047" y2="-0.8539999723434448"><stop offset="0%" stop-color="rgb(255,225,133)"></stop><stop offset="10%" stop-color="rgb(255,206,94)"></stop><stop offset="21%" stop-color="rgb(255,187,54)"></stop><stop offset="29%" stop-color="rgb(255,134,86)"></stop><stop offset="38%" stop-color="rgb(255,81,118)"></stop><stop offset="45%" stop-color="rgb(250,66,134)"></stop><stop offset="52%" stop-color="rgb(246,51,149)"></stop><stop offset="63%" stop-color="rgb(205,53,180)"></stop><stop offset="74%" stop-color="rgb(164,54,210)"></stop><stop offset="87%" stop-color="rgb(130,66,223)"></stop><stop offset="100%" stop-color="rgb(95,78,237)"></stop></linearGradient><linearGradient id="__lottie_element_2907" spreadMethod="pad" gradientUnits="userSpaceOnUse" x1="227.90199279785156" y1="-51.854000091552734" x2="-250.2259979248047" y2="-51.854000091552734"><stop offset="0%" stop-color="rgb(255,225,133)"></stop><stop offset="10%" stop-color="rgb(255,206,94)"></stop><stop offset="21%" stop-color="rgb(255,187,54)"></stop><stop offset="29%" stop-color="rgb(255,134,86)"></stop><stop offset="38%" stop-color="rgb(255,81,118)"></stop><stop offset="45%" stop-color="rgb(250,66,134)"></stop><stop offset="52%" stop-color="rgb(246,51,149)"></stop><stop offset="63%" stop-color="rgb(205,53,180)"></stop><stop offset="74%" stop-color="rgb(164,54,210)"></stop><stop offset="87%" stop-color="rgb(130,66,223)"></stop><stop offset="100%" stop-color="rgb(95,78,237)"></stop></linearGradient><linearGradient id="__lottie_element_2908" spreadMethod="pad" gradientUnits="userSpaceOnUse" x1="227.90199279785156" y1="-0.8539999723434448" x2="-250.2259979248047" y2="-0.8539999723434448"><stop offset="0%" stop-color="rgb(255,225,133)"></stop><stop offset="10%" stop-color="rgb(255,206,94)"></stop><stop offset="21%" stop-color="rgb(255,187,54)"></stop><stop offset="29%" stop-color="rgb(255,134,86)"></stop><stop offset="38%" stop-color="rgb(255,81,118)"></stop><stop offset="45%" stop-color="rgb(250,66,134)"></stop><stop offset="52%" stop-color="rgb(246,51,149)"></stop><stop offset="63%" stop-color="rgb(205,53,180)"></stop><stop offset="74%" stop-color="rgb(164,54,210)"></stop><stop offset="87%" stop-color="rgb(130,66,223)"></stop><stop offset="100%" stop-color="rgb(95,78,237)"></stop></linearGradient><linearGradient id="__lottie_element_2909" spreadMethod="pad" gradientUnits="userSpaceOnUse" x1="227.90199279785156" y1="-0.8539999723434448" x2="-250.2259979248047" y2="-0.8539999723434448"><stop offset="0%" stop-color="rgb(255,225,133)"></stop><stop offset="10%" stop-color="rgb(255,206,94)"></stop><stop offset="21%" stop-color="rgb(255,187,54)"></stop><stop offset="29%" stop-color="rgb(255,134,86)"></stop><stop offset="38%" stop-color="rgb(255,81,118)"></stop><stop offset="45%" stop-color="rgb(250,66,134)"></stop><stop offset="52%" stop-color="rgb(246,51,149)"></stop><stop offset="63%" stop-color="rgb(205,53,180)"></stop><stop offset="74%" stop-color="rgb(164,54,210)"></stop><stop offset="87%" stop-color="rgb(130,66,223)"></stop><stop offset="100%" stop-color="rgb(95,78,237)"></stop></linearGradient></defs><g clip-path="url(#__lottie_element_2888)"><g filter="url(#__lottie_element_2896)" style="display: block;" transform="matrix(0.9990667104721069,-0.04319355636835098,0.04319355636835098,0.9990667104721069,244.759033203125,244.82211303710938)" opacity="0.7000000000000001"><g opacity="1" transform="matrix(1,0,0,1,0,0)"><path fill="url(#__lottie_element_2897)" fill-opacity="1" d=" M-43.46200180053711,-95.93399810791016 C-43.46200180053711,-95.93399810791016 -72.03900146484375,-93.83999633789062 -72.03900146484375,-93.83999633789062 C-99.76300048828125,-91.80899810791016 -121.80899810791016,-69.76300048828125 -123.83999633789062,-42.03900146484375 C-123.83999633789062,-42.03900146484375 -125.93399810791016,-13.461999893188477 -125.93399810791016,-13.461999893188477 C-128.0540008544922,15.473999977111816 -128.0540008544922,44.5260009765625 -125.93399810791016,73.46199798583984 C-125.93399810791016,73.46199798583984 -123.83999633789062,102.03900146484375 -123.83999633789062,102.03900146484375 C-121.80899810791016,129.76300048828125 -99.76300048828125,151.8090057373047 -72.03900146484375,153.83999633789062 C-72.03900146484375,153.83999633789062 -43.46200180053711,155.9340057373047 -43.46200180053711,155.9340057373047 C-14.526000022888184,158.0540008544922 14.526000022888184,158.0540008544922 43.46200180053711,155.9340057373047 C43.46200180053711,155.9340057373047 72.03900146484375,153.83999633789062 72.03900146484375,153.83999633789062 C99.76300048828125,151.8090057373047 121.80899810791016,129.76300048828125 123.83999633789062,102.03900146484375 C123.83999633789062,102.03900146484375 125.93399810791016,73.46199798583984 125.93399810791016,73.46199798583984 C128.0540008544922,44.5260009765625 128.0540008544922,15.473999977111816 125.93399810791016,-13.461999893188477 C125.93399810791016,-13.461999893188477 123.83999633789062,-42.03900146484375 123.83999633789062,-42.03900146484375 C121.80899810791016,-69.76300048828125 99.76300048828125,-91.80899810791016 72.03900146484375,-93.83999633789062 C72.03900146484375,-93.83999633789062 43.46200180053711,-95.93399810791016 43.46200180053711,-95.93399810791016 C14.526000022888184,-98.05400085449219 -14.526000022888184,-98.05400085449219 -43.46200180053711,-95.93399810791016z"></path></g></g><g style="display: block;" transform="matrix(0.9990667104721069,-0.04319355636835098,0.04319355636835098,0.9990667104721069,244.759033203125,244.82211303710938)" opacity="1"><g opacity="1" transform="matrix(1,0,0,1,0,0)"><path fill="url(#__lottie_element_2893)" fill-opacity="1" d=" M-49.3120002746582,-142.88699340820312 C-49.3120002746582,-142.88699340820312 -81.73799896240234,-140.51199340820312 -81.73799896240234,-140.51199340820312 C-113.19400024414062,-138.20799255371094 -138.20799255371094,-113.19400024414062 -140.51199340820312,-81.73799896240234 C-140.51199340820312,-81.73799896240234 -142.88699340820312,-49.3120002746582 -142.88699340820312,-49.3120002746582 C-145.29200744628906,-16.481000900268555 -145.29200744628906,16.481000900268555 -142.88699340820312,49.3120002746582 C-142.88699340820312,49.3120002746582 -140.51199340820312,81.73799896240234 -140.51199340820312,81.73799896240234 C-138.20799255371094,113.19400024414062 -113.19400024414062,138.20799255371094 -81.73799896240234,140.51199340820312 C-81.73799896240234,140.51199340820312 -49.3120002746582,142.88699340820312 -49.3120002746582,142.88699340820312 C-16.481000900268555,145.29200744628906 16.481000900268555,145.29200744628906 49.3120002746582,142.88699340820312 C49.3120002746582,142.88699340820312 81.73799896240234,140.51199340820312 81.73799896240234,140.51199340820312 C113.19400024414062,138.20799255371094 138.20799255371094,113.19400024414062 140.51199340820312,81.73799896240234 C140.51199340820312,81.73799896240234 142.88699340820312,49.3120002746582 142.88699340820312,49.3120002746582 C145.29200744628906,16.481000900268555 145.29200744628906,-16.481000900268555 142.88699340820312,-49.3120002746582 C142.88699340820312,-49.3120002746582 140.51199340820312,-81.73799896240234 140.51199340820312,-81.73799896240234 C138.20799255371094,-113.19400024414062 113.19400024414062,-138.20799255371094 81.73799896240234,-140.51199340820312 C81.73799896240234,-140.51199340820312 49.3120002746582,-142.88699340820312 49.3120002746582,-142.88699340820312 C16.481000900268555,-145.29200744628906 -16.481000900268555,-145.29200744628906 -49.3120002746582,-142.88699340820312z"></path></g><g opacity="1" transform="matrix(1,0,0,1,0,0)"><path fill="url(#__lottie_element_2894)" fill-opacity="1" d=" M0,-140.6909942626953 C16.28499984741211,-140.6909942626953 32.77799987792969,-140.08799743652344 49.02000045776367,-138.8979949951172 C49.02000045776367,-138.8979949951172 81.44499969482422,-136.5229949951172 81.44499969482422,-136.5229949951172 C95.7020034790039,-135.47900390625 109.12000274658203,-129.33599853515625 119.22799682617188,-119.22799682617188 C129.33599853515625,-109.12000274658203 135.47900390625,-95.7020034790039 136.5229949951172,-81.44499969482422 C136.5229949951172,-81.44499969482422 138.8979949951172,-49.02000045776367 138.8979949951172,-49.02000045776367 C141.281005859375,-16.493000030517578 141.281005859375,16.493000030517578 138.8979949951172,49.02000045776367 C138.8979949951172,49.02000045776367 136.5229949951172,81.44499969482422 136.5229949951172,81.44499969482422 C135.47900390625,95.7020034790039 129.33599853515625,109.12000274658203 119.22799682617188,119.22799682617188 C109.12000274658203,129.33599853515625 95.7020034790039,135.47900390625 81.44499969482422,136.5229949951172 C81.44499969482422,136.5229949951172 49.02000045776367,138.8979949951172 49.02000045776367,138.8979949951172 C32.77799987792969,140.08799743652344 16.285999298095703,140.6909942626953 0,140.6909942626953 C-16.285999298095703,140.6909942626953 -32.77799987792969,140.08799743652344 -49.02000045776367,138.8979949951172 C-49.02000045776367,138.8979949951172 -81.44499969482422,136.5229949951172 -81.44499969482422,136.5229949951172 C-95.7020034790039,135.47900390625 -109.12000274658203,129.33599853515625 -119.22799682617188,119.22799682617188 C-129.33599853515625,109.12000274658203 -135.47900390625,95.7020034790039 -136.5229949951172,81.44499969482422 C-136.5229949951172,81.44499969482422 -138.8979949951172,49.02000045776367 -138.8979949951172,49.02000045776367 C-141.27999877929688,16.493000030517578 -141.27999877929688,-16.493000030517578 -138.8979949951172,-49.02000045776367 C-138.8979949951172,-49.02000045776367 -136.5229949951172,-81.44499969482422 -136.5229949951172,-81.44499969482422 C-135.47900390625,-95.7020034790039 -129.33599853515625,-109.12000274658203 -119.22799682617188,-119.22799682617188 C-109.12000274658203,-129.33599853515625 -95.7020034790039,-135.47900390625 -81.44499969482422,-136.5229949951172 C-81.44499969482422,-136.5229949951172 -49.02000045776367,-138.8979949951172 -49.02000045776367,-138.8979949951172 C-32.77799987792969,-140.08799743652344 -16.28499984741211,-140.6909942626953 0,-140.6909942626953 M0,-144.6909942626953 C-16.448999404907227,-144.6909942626953 -32.895999908447266,-144.08999633789062 -49.3120002746582,-142.88699340820312 C-49.3120002746582,-142.88699340820312 -81.73799896240234,-140.51199340820312 -81.73799896240234,-140.51199340820312 C-113.19400024414062,-138.20700073242188 -138.20700073242188,-113.19400024414062 -140.51199340820312,-81.73799896240234 C-140.51199340820312,-81.73799896240234 -142.88800048828125,-49.3120002746582 -142.88800048828125,-49.3120002746582 C-145.29299926757812,-16.481000900268555 -145.29299926757812,16.481000900268555 -142.88800048828125,49.3120002746582 C-142.88800048828125,49.3120002746582 -140.51199340820312,81.73799896240234 -140.51199340820312,81.73799896240234 C-138.20700073242188,113.19400024414062 -113.19400024414062,138.20700073242188 -81.73799896240234,140.51199340820312 C-81.73799896240234,140.51199340820312 -49.3120002746582,142.88699340820312 -49.3120002746582,142.88699340820312 C-32.895999908447266,144.08999633789062 -16.448999404907227,144.6909942626953 0,144.6909942626953 C16.448999404907227,144.6909942626953 32.89699935913086,144.08999633789062 49.3129997253418,142.88699340820312 C49.3129997253418,142.88699340820312 81.73699951171875,140.51199340820312 81.73699951171875,140.51199340820312 C113.19400024414062,138.20700073242188 138.20799255371094,113.19400024414062 140.51199340820312,81.73799896240234 C140.51199340820312,81.73799896240234 142.88699340820312,49.3120002746582 142.88699340820312,49.3120002746582 C145.29200744628906,16.481000900268555 145.29200744628906,-16.481000900268555 142.88699340820312,-49.3120002746582 C142.88699340820312,-49.3120002746582 140.51199340820312,-81.73799896240234 140.51199340820312,-81.73799896240234 C138.20799255371094,-113.19400024414062 113.19400024414062,-138.20700073242188 81.73699951171875,-140.51199340820312 C81.73699951171875,-140.51199340820312 49.3129997253418,-142.88699340820312 49.3129997253418,-142.88699340820312 C32.89699935913086,-144.08999633789062 16.448999404907227,-144.6909942626953 0,-144.6909942626953 C0,-144.6909942626953 0,-144.6909942626953 0,-144.6909942626953z"></path></g></g><g filter="url(#__lottie_element_2900)" style="display: block;" transform="matrix(0.9990667104721069,-0.04319355636835098,0.04319355636835098,0.9990667104721069,239.19656372070312,255.0719451904297)" opacity="0.8"><g opacity="1" transform="matrix(0.9969716668128967,-0.07776554673910141,0.07776554673910141,0.9969716668128967,-3.8626861572265625,-3.5133743286132812)"><g opacity="1" transform="matrix(1,0,0,1,0,0)"><path fill="url(#__lottie_element_2901)" fill-opacity="1" d=" M51.426998138427734,-62.44300079345703 C45.13800048828125,-62.44300079345703 40.03900146484375,-57.345001220703125 40.03900146484375,-51.055999755859375 C40.03900146484375,-44.76599884033203 45.13800048828125,-39.66699981689453 51.426998138427734,-39.66699981689453 C57.71699905395508,-39.66699981689453 62.81700134277344,-44.76599884033203 62.81700134277344,-51.055999755859375 C62.81700134277344,-57.345001220703125 57.71699905395508,-62.44300079345703 51.426998138427734,-62.44300079345703z"></path></g><g opacity="1" transform="matrix(1,0,0,1,0,0)"><path fill="url(#__lottie_element_2902)" fill-opacity="1" d=" M0.7979999780654907,-47.8390007019043 C-25.58099937438965,-47.8390007019043 -47.04199981689453,-26.378999710083008 -47.04199981689453,0 C-47.04199981689453,26.378000259399414 -25.58099937438965,47.8390007019043 0.7979999780654907,47.8390007019043 C27.176000595092773,47.8390007019043 48.637001037597656,26.378000259399414 48.637001037597656,0 C48.637001037597656,-26.378999710083008 27.176000595092773,-47.8390007019043 0.7979999780654907,-47.8390007019043z M0.7979999780654907,30.643999099731445 C-16.100000381469727,30.643999099731445 -29.847999572753906,16.898000717163086 -29.847999572753906,0 C-29.847999572753906,-16.898000717163086 -16.100000381469727,-30.643999099731445 0.7979999780654907,-30.643999099731445 C17.69499969482422,-30.643999099731445 31.440000534057617,-16.898000717163086 31.440000534057617,0 C31.440000534057617,16.898000717163086 17.69499969482422,30.643999099731445 0.7979999780654907,30.643999099731445z"></path></g></g><g opacity="1" transform="matrix(1,0,0,1,0,0)"><path fill="url(#__lottie_element_2903)" fill-opacity="1" d=" M38.7760009765625,97.12799835205078 C38.7760009765625,97.12799835205078 -38.779998779296875,97.12799835205078 -38.779998779296875,97.12799835205078 C-70.9530029296875,97.12799835205078 -97.12799835205078,70.9540023803711 -97.12799835205078,38.779998779296875 C-97.12799835205078,38.779998779296875 -97.12799835205078,-38.779998779296875 -97.12799835205078,-38.779998779296875 C-97.12799835205078,-70.9540023803711 -70.9530029296875,-97.12799835205078 -38.779998779296875,-97.12799835205078 C-38.779998779296875,-97.12799835205078 38.7760009765625,-97.12799835205078 38.7760009765625,-97.12799835205078 C70.94999694824219,-97.12799835205078 97.12799835205078,-70.9540023803711 97.12799835205078,-38.779998779296875 C97.12799835205078,-38.779998779296875 97.12799835205078,38.779998779296875 97.12799835205078,38.779998779296875 C97.12799835205078,70.9540023803711 70.94999694824219,97.12799835205078 38.7760009765625,97.12799835205078z M-38.779998779296875,-78.85199737548828 C-60.87799835205078,-78.85199737548828 -78.85299682617188,-60.87799835205078 -78.85299682617188,-38.779998779296875 C-78.85299682617188,-38.779998779296875 -78.85299682617188,38.779998779296875 -78.85299682617188,38.779998779296875 C-78.85299682617188,60.87799835205078 -60.87799835205078,78.85299682617188 -38.779998779296875,78.85299682617188 C-38.779998779296875,78.85299682617188 38.7760009765625,78.85299682617188 38.7760009765625,78.85299682617188 C60.875,78.85299682617188 78.85299682617188,60.87799835205078 78.85299682617188,38.779998779296875 C78.85299682617188,38.779998779296875 78.85299682617188,-38.779998779296875 78.85299682617188,-38.779998779296875 C78.85299682617188,-60.87799835205078 60.875,-78.85199737548828 38.7760009765625,-78.85199737548828 C38.7760009765625,-78.85199737548828 -38.779998779296875,-78.85199737548828 -38.779998779296875,-78.85199737548828z"></path></g></g><g style="display: block;" transform="matrix(0.9915913939476013,-0.12940825521945953,0.12940825521945953,0.9915913939476013,237.87960815429688,238.90771484375)" opacity="1"><g opacity="1" transform="matrix(0.9990691542625427,-0.043137360364198685,0.043137360364198685,0.9990691542625427,-2.1074371337890625,-1.9847373962402344)"><g opacity="1" transform="matrix(1,0,0,1,0,0)"><path fill="url(#__lottie_element_2907)" fill-opacity="1" d=" M51.426998138427734,-62.44300079345703 C45.13800048828125,-62.44300079345703 40.03900146484375,-57.345001220703125 40.03900146484375,-51.055999755859375 C40.03900146484375,-44.76599884033203 45.13800048828125,-39.66699981689453 51.426998138427734,-39.66699981689453 C57.71699905395508,-39.66699981689453 62.81700134277344,-44.76599884033203 62.81700134277344,-51.055999755859375 C62.81700134277344,-57.345001220703125 57.71699905395508,-62.44300079345703 51.426998138427734,-62.44300079345703z"></path></g><g opacity="1" transform="matrix(1,0,0,1,0,0)"><path fill="url(#__lottie_element_2908)" fill-opacity="1" d=" M0.7979999780654907,-47.8390007019043 C-25.58099937438965,-47.8390007019043 -47.04199981689453,-26.378999710083008 -47.04199981689453,0 C-47.04199981689453,26.378000259399414 -25.58099937438965,47.8390007019043 0.7979999780654907,47.8390007019043 C27.176000595092773,47.8390007019043 48.637001037597656,26.378000259399414 48.637001037597656,0 C48.637001037597656,-26.378999710083008 27.176000595092773,-47.8390007019043 0.7979999780654907,-47.8390007019043z M0.7979999780654907,30.643999099731445 C-16.100000381469727,30.643999099731445 -29.847999572753906,16.898000717163086 -29.847999572753906,0 C-29.847999572753906,-16.898000717163086 -16.100000381469727,-30.643999099731445 0.7979999780654907,-30.643999099731445 C17.69499969482422,-30.643999099731445 31.440000534057617,-16.898000717163086 31.440000534057617,0 C31.440000534057617,16.898000717163086 17.69499969482422,30.643999099731445 0.7979999780654907,30.643999099731445z"></path></g></g><g opacity="1" transform="matrix(1,0,0,1,0,0)"><path fill="url(#__lottie_element_2909)" fill-opacity="1" d=" M38.7760009765625,97.12799835205078 C38.7760009765625,97.12799835205078 -38.779998779296875,97.12799835205078 -38.779998779296875,97.12799835205078 C-70.9530029296875,97.12799835205078 -97.12799835205078,70.9540023803711 -97.12799835205078,38.779998779296875 C-97.12799835205078,38.779998779296875 -97.12799835205078,-38.779998779296875 -97.12799835205078,-38.779998779296875 C-97.12799835205078,-70.9540023803711 -70.9530029296875,-97.12799835205078 -38.779998779296875,-97.12799835205078 C-38.779998779296875,-97.12799835205078 38.7760009765625,-97.12799835205078 38.7760009765625,-97.12799835205078 C70.94999694824219,-97.12799835205078 97.12799835205078,-70.9540023803711 97.12799835205078,-38.779998779296875 C97.12799835205078,-38.779998779296875 97.12799835205078,38.779998779296875 97.12799835205078,38.779998779296875 C97.12799835205078,70.9540023803711 70.94999694824219,97.12799835205078 38.7760009765625,97.12799835205078z M-38.779998779296875,-78.85199737548828 C-60.87799835205078,-78.85199737548828 -78.85299682617188,-60.87799835205078 -78.85299682617188,-38.779998779296875 C-78.85299682617188,-38.779998779296875 -78.85299682617188,38.779998779296875 -78.85299682617188,38.779998779296875 C-78.85299682617188,60.87799835205078 -60.87799835205078,78.85299682617188 -38.779998779296875,78.85299682617188 C-38.779998779296875,78.85299682617188 38.7760009765625,78.85299682617188 38.7760009765625,78.85299682617188 C60.875,78.85299682617188 78.85299682617188,60.87799835205078 78.85299682617188,38.779998779296875 C78.85299682617188,38.779998779296875 78.85299682617188,-38.779998779296875 78.85299682617188,-38.779998779296875 C78.85299682617188,-60.87799835205078 60.875,-78.85199737548828 38.7760009765625,-78.85199737548828 C38.7760009765625,-78.85199737548828 -38.779998779296875,-78.85199737548828 -38.779998779296875,-78.85199737548828z"></path></g></g></g></svg>