<?xml version="1.0" encoding="UTF-8"?>
<!DOCTYPE svg PUBLIC "-//W3C//DTD SVG 1.1//EN" "http://www.w3.org/Graphics/SVG/1.1/DTD/svg11.dtd">
<svg xmlns="http://www.w3.org/2000/svg" version="1.1" width="1791px" height="587px" style="shape-rendering:geometricPrecision; text-rendering:geometricPrecision; image-rendering:optimizeQuality; fill-rule:evenodd; clip-rule:evenodd" xmlns:xlink="http://www.w3.org/1999/xlink">
    <g><path style="opacity:0.984" fill="#616262" d="M 658.5,-0.5 C 659.833,-0.5 661.167,-0.5 662.5,-0.5C 660.485,0.923808 658.152,1.59047 655.5,1.5C 656.5,0.833333 657.5,0.166667 658.5,-0.5 Z"/></g>
    <g><path style="opacity:1" fill="#101011" d="M 662.5,-0.5 C 664.833,-0.5 667.167,-0.5 669.5,-0.5C 672.218,0.103618 674.551,1.43695 676.5,3.5C 676.738,5.40435 677.738,6.73769 679.5,7.5C 681.5,8.83333 683.167,10.5 684.5,12.5C 684.738,14.4044 685.738,15.7377 687.5,16.5C 689.827,19.7521 692.161,23.0854 694.5,26.5C 694.427,28.0269 695.094,29.0269 696.5,29.5C 697.79,30.0577 698.623,31.0577 699,32.5C 701.424,37.0007 701.591,41.334 699.5,45.5C 698.427,46.2506 698.26,47.2506 699,48.5C 699.717,47.9558 700.217,47.2891 700.5,46.5C 702.166,45.3336 703.833,45.3336 705.5,46.5C 701.739,58.0228 696.405,68.6895 689.5,78.5C 688.285,79.779 688.618,80.779 690.5,81.5C 692.984,83.1198 694.484,85.4531 695,88.5C 695.251,90.433 695.751,92.2663 696.5,94C 695.409,96.0639 695.242,98.2305 696,100.5C 698.069,96.4586 699.569,96.6252 700.5,101C 698.589,106.989 695.756,112.489 692,117.5C 686.667,122.833 681.333,128.167 676,133.5C 672.961,132.397 670.127,130.897 667.5,129C 664.833,128.667 662.167,128.333 659.5,128C 658.944,127.617 658.611,127.117 658.5,126.5C 658.027,125.094 657.027,124.427 655.5,124.5C 653.355,120.226 650.688,116.226 647.5,112.5C 647.027,111.094 646.027,110.427 644.5,110.5C 639.59,109.042 634.59,108.042 629.5,107.5C 629.027,106.094 628.027,105.427 626.5,105.5C 625.99,99.49 623.157,94.8233 618,91.5C 614.551,86.1097 612.385,80.2764 611.5,74C 612.52,67.6044 614.354,61.4377 617,55.5C 622.02,44.7878 627.52,34.4545 633.5,24.5C 634.906,24.0269 635.573,23.0269 635.5,21.5C 638.692,14.6389 643.359,8.97221 649.5,4.5C 651.027,4.57298 652.027,3.90632 652.5,2.5C 653.391,1.89022 654.391,1.55688 655.5,1.5C 658.152,1.59047 660.485,0.923808 662.5,-0.5 Z"/></g>
    <g><path style="opacity:0.808" fill="#8a8a8a" d="M 652.5,2.5 C 652.027,3.90632 651.027,4.57298 649.5,4.5C 649.973,3.09368 650.973,2.42702 652.5,2.5 Z"/></g>
    <g><path style="opacity:0.769" fill="#919292" d="M 676.5,3.5 C 678.262,4.26231 679.262,5.59565 679.5,7.5C 677.738,6.73769 676.738,5.40435 676.5,3.5 Z"/></g>
    <g><path style="opacity:1" fill="#0e0f10" d="M 1041.5,8.5 C 1043.26,9.55213 1043.92,11.2188 1043.5,13.5C 1040.55,18.1315 1037.55,22.7982 1034.5,27.5C 1034.67,27.8333 1034.83,28.1667 1035,28.5C 1036.7,25.98 1038.53,23.6467 1040.5,21.5C 1042.4,21.2624 1043.74,20.2624 1044.5,18.5C 1045.66,16.7497 1047.33,15.7497 1049.5,15.5C 1050.96,15.4326 1052.29,15.7659 1053.5,16.5C 1054.92,18.3079 1056.92,18.9746 1059.5,18.5C 1059.83,18.5 1060.17,18.5 1060.5,18.5C 1060.82,20.0481 1061.82,20.7148 1063.5,20.5C 1064.99,22.1161 1065.99,24.1161 1066.5,26.5C 1068.32,25.2651 1069.98,25.2651 1071.5,26.5C 1071.74,28.4044 1072.74,29.7377 1074.5,30.5C 1074.43,32.0269 1075.09,33.0269 1076.5,33.5C 1076.96,36.4824 1077.3,39.4824 1077.5,42.5C 1056.63,84.5711 1035.46,126.571 1014,168.5C 986.609,234.948 958.943,301.281 931,367.5C 905.163,427.173 876.163,485.173 844,541.5C 836.741,554.172 827.908,565.672 817.5,576C 811.647,581.222 804.98,582.722 797.5,580.5C 797.027,579.094 796.027,578.427 794.5,578.5C 784.182,576.176 775.182,571.509 767.5,564.5C 767.027,563.094 766.027,562.427 764.5,562.5C 761.226,560.03 757.559,558.364 753.5,557.5C 751.485,556.076 749.152,555.41 746.5,555.5C 743.24,554.226 740.24,552.56 737.5,550.5C 736.738,548.738 735.404,547.738 733.5,547.5C 731.596,547.262 730.262,546.262 729.5,544.5C 729.027,543.094 728.027,542.427 726.5,542.5C 725.5,542.167 724.833,541.5 724.5,540.5C 724.027,539.094 723.027,538.427 721.5,538.5C 719.167,536.833 717.167,534.833 715.5,532.5C 714.738,530.738 713.404,529.738 711.5,529.5C 709.196,526.859 706.862,524.192 704.5,521.5C 704.446,519.368 703.446,518.035 701.5,517.5C 699.478,515.469 697.811,513.135 696.5,510.5C 696.715,508.821 696.048,507.821 694.5,507.5C 674.136,464.631 667.636,419.631 675,372.5C 675.365,351.611 677.698,330.945 682,310.5C 688.154,281.21 694.987,252.21 702.5,223.5C 703.924,221.485 704.59,219.152 704.5,216.5C 705.924,214.485 706.59,212.152 706.5,209.5C 707.924,207.485 708.59,205.152 708.5,202.5C 708.928,199.215 709.928,196.215 711.5,193.5C 712.924,191.485 713.59,189.152 713.5,186.5C 714.43,181.378 715.764,176.378 717.5,171.5C 719.213,170.365 719.88,168.698 719.5,166.5C 719.5,166.167 719.5,165.833 719.5,165.5C 721.213,164.365 721.88,162.698 721.5,160.5C 721.5,160.167 721.5,159.833 721.5,159.5C 723.213,158.365 723.88,156.698 723.5,154.5C 723.5,154.167 723.5,153.833 723.5,153.5C 725.213,152.365 725.88,150.698 725.5,148.5C 727.971,140.421 730.637,132.421 733.5,124.5C 735.213,123.365 735.88,121.698 735.5,119.5C 736.971,114.421 738.637,109.421 740.5,104.5C 742.213,103.365 742.88,101.698 742.5,99.5C 748.426,79.7041 756.093,60.7041 765.5,42.5C 766.906,42.0269 767.573,41.0269 767.5,39.5C 767.328,38.5084 767.662,37.8417 768.5,37.5C 769.906,37.0269 770.573,36.0269 770.5,34.5C 771.881,30.736 773.547,27.0693 775.5,23.5C 777.045,22.5481 778.712,22.2148 780.5,22.5C 782.781,20.5721 785.447,19.5721 788.5,19.5C 789.458,19.9528 790.292,20.6195 791,21.5C 792.667,25.1667 794.333,28.8333 796,32.5C 798.405,33.2744 800.905,33.7744 803.5,34C 805.494,36.1575 806.828,38.6575 807.5,41.5C 807.427,43.0269 808.094,44.0269 809.5,44.5C 810.338,44.8417 810.672,45.5084 810.5,46.5C 810.427,48.0269 811.094,49.0269 812.5,49.5C 813.234,50.7079 813.567,52.0413 813.5,53.5C 813.427,55.0269 814.094,56.0269 815.5,56.5C 816.892,58.2726 818.059,60.2726 819,62.5C 821.824,80.1131 822.157,97.7798 820,115.5C 808.769,197.782 795.769,279.782 781,361.5C 775.735,394.28 773.235,427.113 773.5,460C 774.574,460.739 775.241,461.739 775.5,463C 774.963,464.792 774.63,466.625 774.5,468.5C 775.896,482.798 776.729,497.131 777,511.5C 777.333,512.5 777.667,513.5 778,514.5C 778.671,513.748 779.504,513.414 780.5,513.5C 781.906,513.027 782.573,512.027 782.5,510.5C 782.833,509.5 783.5,508.833 784.5,508.5C 785.906,508.027 786.573,507.027 786.5,505.5C 787.906,505.027 788.573,504.027 788.5,502.5C 789.906,502.027 790.573,501.027 790.5,499.5C 791.906,499.027 792.573,498.027 792.5,496.5C 794,492.827 796,489.494 798.5,486.5C 799.906,486.027 800.573,485.027 800.5,483.5C 800.328,482.508 800.662,481.842 801.5,481.5C 802.906,481.027 803.573,480.027 803.5,478.5C 803.66,476.847 804.326,475.514 805.5,474.5C 806.906,474.027 807.573,473.027 807.5,471.5C 822.106,443.954 835.939,415.954 849,387.5C 879.275,310.674 909.942,234.007 941,157.5C 947.432,143.627 954.599,130.294 962.5,117.5C 963.906,117.027 964.573,116.027 964.5,114.5C 965.774,111.24 967.44,108.24 969.5,105.5C 970.906,105.027 971.573,104.027 971.5,102.5C 971.328,101.508 971.662,100.842 972.5,100.5C 973.906,100.027 974.573,99.0269 974.5,97.5C 975.774,94.2402 977.44,91.2402 979.5,88.5C 980.906,88.0269 981.573,87.0269 981.5,85.5C 981.328,84.5084 981.662,83.8417 982.5,83.5C 983.906,83.0269 984.573,82.0269 984.5,80.5C 985.774,77.2402 987.44,74.2402 989.5,71.5C 990.906,71.0269 991.573,70.0269 991.5,68.5C 991.328,67.5084 991.662,66.8417 992.5,66.5C 993.906,66.0269 994.573,65.0269 994.5,63.5C 995.11,61.5659 996.11,59.8993 997.5,58.5C 998.906,58.0269 999.573,57.0269 999.5,55.5C 1000.91,55.0269 1001.57,54.0269 1001.5,52.5C 1002.11,50.5659 1003.11,48.8993 1004.5,47.5C 1005.91,47.0269 1006.57,46.0269 1006.5,44.5C 1007.91,44.0269 1008.57,43.0269 1008.5,41.5C 1009.91,41.0269 1010.57,40.0269 1010.5,38.5C 1012.44,34.2934 1015.1,30.6267 1018.5,27.5C 1019.91,27.0269 1020.57,26.0269 1020.5,24.5C 1020.83,23.5 1021.5,22.8333 1022.5,22.5C 1023.91,22.0269 1024.57,21.0269 1024.5,19.5C 1029.15,14.1877 1034.15,9.18768 1039.5,4.5C 1040.17,5.94916 1040.84,7.2825 1041.5,8.5 Z"/></g>
    <g><path style="opacity:1" fill="#0e0f10" d="M 1655.5,29.5 C 1656.42,32.0892 1658.09,34.0892 1660.5,35.5C 1662.17,36.5 1663.5,37.8333 1664.5,39.5C 1664.43,41.0269 1665.09,42.0269 1666.5,42.5C 1667.5,42.8333 1668.17,43.5 1668.5,44.5C 1668.43,46.0269 1669.09,47.0269 1670.5,47.5C 1670.43,49.0269 1671.09,50.0269 1672.5,50.5C 1672.43,52.0269 1673.09,53.0269 1674.5,53.5C 1682.37,68.0767 1688.7,83.41 1693.5,99.5C 1693.12,101.698 1693.79,103.365 1695.5,104.5C 1696.3,106.042 1696.63,107.708 1696.5,109.5C 1696.41,112.152 1697.08,114.485 1698.5,116.5C 1709.84,147.135 1707.67,176.802 1692,205.5C 1678.8,226.383 1662.97,245.216 1644.5,262C 1629.12,275.046 1613.46,287.712 1597.5,300C 1570.99,318.421 1544.66,337.088 1518.5,356C 1503.07,365.101 1487.4,373.768 1471.5,382C 1474.06,384.733 1476.73,387.233 1479.5,389.5C 1480.03,391.446 1481.37,392.446 1483.5,392.5C 1484.03,394.446 1485.37,395.446 1487.5,395.5C 1488.03,397.446 1489.37,398.446 1491.5,398.5C 1492.03,400.446 1493.37,401.446 1495.5,401.5C 1508.33,410.747 1521.33,419.747 1534.5,428.5C 1535.03,430.446 1536.37,431.446 1538.5,431.5C 1540.06,431.733 1541.4,432.4 1542.5,433.5C 1542.82,435.048 1543.82,435.715 1545.5,435.5C 1566.91,449.037 1589.57,460.203 1613.5,469C 1648.23,476.524 1682.89,476.19 1717.5,468C 1723.98,465.787 1730.31,463.287 1736.5,460.5C 1738.03,460.573 1739.03,459.906 1739.5,458.5C 1740.9,457.11 1742.57,456.11 1744.5,455.5C 1746.4,455.262 1747.74,454.262 1748.5,452.5C 1749.26,450.738 1750.6,449.738 1752.5,449.5C 1757.44,446.23 1761.77,442.23 1765.5,437.5C 1771.03,430.649 1774.87,431.316 1777,439.5C 1779,440.833 1781,442.167 1783,443.5C 1784.47,448.232 1786.13,452.898 1788,457.5C 1788.5,460.146 1788.66,462.813 1788.5,465.5C 1789.27,468.096 1789.6,470.763 1789.5,473.5C 1783.66,489.667 1773.99,503.167 1760.5,514C 1732.2,533.409 1700.87,541.576 1666.5,538.5C 1645.94,540.474 1626.28,537.307 1607.5,529C 1595.46,523.314 1583.79,517.147 1572.5,510.5C 1572.03,509.094 1571.03,508.427 1569.5,508.5C 1567.85,508.34 1566.51,507.674 1565.5,506.5C 1565.03,505.094 1564.03,504.427 1562.5,504.5C 1559.67,503.921 1557.34,502.588 1555.5,500.5C 1555.03,499.094 1554.03,498.427 1552.5,498.5C 1551.51,498.672 1550.84,498.338 1550.5,497.5C 1550.03,496.094 1549.03,495.427 1547.5,495.5C 1545.57,494.89 1543.9,493.89 1542.5,492.5C 1542.03,491.094 1541.03,490.427 1539.5,490.5C 1538.51,490.672 1537.84,490.338 1537.5,489.5C 1537.03,488.094 1536.03,487.427 1534.5,487.5C 1534.03,486.094 1533.03,485.427 1531.5,485.5C 1529.57,484.89 1527.9,483.89 1526.5,482.5C 1526.03,481.094 1525.03,480.427 1523.5,480.5C 1523.03,479.094 1522.03,478.427 1520.5,478.5C 1520.03,477.094 1519.03,476.427 1517.5,476.5C 1515.57,475.89 1513.9,474.89 1512.5,473.5C 1512.03,472.094 1511.03,471.427 1509.5,471.5C 1509.03,470.094 1508.03,469.427 1506.5,469.5C 1506.03,468.094 1505.03,467.427 1503.5,467.5C 1503.03,466.094 1502.03,465.427 1500.5,465.5C 1498.57,464.89 1496.9,463.89 1495.5,462.5C 1495.03,461.094 1494.03,460.427 1492.5,460.5C 1492.03,459.094 1491.03,458.427 1489.5,458.5C 1489.03,457.094 1488.03,456.427 1486.5,456.5C 1484.57,455.89 1482.9,454.89 1481.5,453.5C 1481.03,452.094 1480.03,451.427 1478.5,451.5C 1478.03,450.094 1477.03,449.427 1475.5,449.5C 1475.03,448.094 1474.03,447.427 1472.5,447.5C 1470.57,446.89 1468.9,445.89 1467.5,444.5C 1467.03,443.094 1466.03,442.427 1464.5,442.5C 1464.03,441.094 1463.03,440.427 1461.5,440.5C 1460.51,440.672 1459.84,440.338 1459.5,439.5C 1459.03,438.094 1458.03,437.427 1456.5,437.5C 1446.54,431.516 1436.2,426.016 1425.5,421C 1419.5,418.792 1413.33,417.292 1407,416.5C 1404.74,417.09 1403.08,418.423 1402,420.5C 1401.3,423.004 1400.47,425.337 1399.5,427.5C 1398.75,430.17 1397.75,432.837 1396.5,435.5C 1396.5,436.5 1396.5,437.5 1396.5,438.5C 1395.66,438.842 1395.33,439.508 1395.5,440.5C 1394.66,440.842 1394.33,441.508 1394.5,442.5C 1393.6,443.209 1393.26,444.209 1393.5,445.5C 1392.66,445.842 1392.33,446.508 1392.5,447.5C 1391.17,448.5 1391.17,449.5 1392.5,450.5C 1393.43,451.568 1393.77,452.901 1393.5,454.5C 1390.71,462.714 1388.21,471.048 1386,479.5C 1380.69,507.174 1376.53,535.007 1373.5,563C 1375.24,569.676 1375.57,576.343 1374.5,583C 1373.83,583.667 1373.17,583.667 1372.5,583C 1369,578.167 1364.83,574 1360,570.5C 1358.92,572.767 1357.42,572.934 1355.5,571C 1350.83,565.333 1346.17,559.667 1341.5,554C 1339.03,551.906 1336.36,551.406 1333.5,552.5C 1321.54,547.541 1312.88,539.208 1307.5,527.5C 1307.45,525.368 1306.45,524.035 1304.5,523.5C 1302.76,521.023 1301.26,518.356 1300,515.5C 1296.69,505.718 1293.53,495.885 1290.5,486C 1291.95,473.54 1293.12,461.04 1294,448.5C 1298.5,423.53 1302.66,398.53 1306.5,373.5C 1307.92,371.485 1308.59,369.152 1308.5,366.5C 1311.29,355.299 1314.79,344.299 1319,333.5C 1335.72,293.051 1352.72,252.718 1370,212.5C 1380.97,189.226 1392.47,166.226 1404.5,143.5C 1405.5,140.895 1405.17,140.895 1403.5,143.5C 1384.07,156.087 1366.9,171.42 1352,189.5C 1346.68,197.309 1340.85,204.642 1334.5,211.5C 1333.02,210.552 1332.02,209.219 1331.5,207.5C 1329.28,207.822 1327.44,207.155 1326,205.5C 1325.73,202.618 1324.89,199.951 1323.5,197.5C 1322.83,194.833 1321.17,193.167 1318.5,192.5C 1317.83,192.5 1317.17,192.5 1316.5,192.5C 1314.78,192.371 1313.12,192.038 1311.5,191.5C 1309.52,185.346 1309.02,179.013 1310,172.5C 1310.28,171.584 1310.78,170.918 1311.5,170.5C 1312.91,170.027 1313.57,169.027 1313.5,167.5C 1314.91,167.027 1315.57,166.027 1315.5,164.5C 1319.02,158.8 1323.02,153.467 1327.5,148.5C 1328.91,148.027 1329.57,147.027 1329.5,145.5C 1329.83,144.5 1330.5,143.833 1331.5,143.5C 1332.91,143.027 1333.57,142.027 1333.5,140.5C 1333.83,139.5 1334.5,138.833 1335.5,138.5C 1337.26,137.738 1338.26,136.404 1338.5,134.5C 1338.83,133.5 1339.5,132.833 1340.5,132.5C 1342.26,131.738 1343.26,130.404 1343.5,128.5C 1344.5,126.833 1345.83,125.5 1347.5,124.5C 1352.77,120.895 1357.44,116.562 1361.5,111.5C 1362.17,110.167 1363.17,109.167 1364.5,108.5C 1368.1,106.57 1371.1,103.903 1373.5,100.5C 1373.5,99.8333 1373.83,99.5 1374.5,99.5C 1377.43,98.2427 1379.76,96.2427 1381.5,93.5C 1384.09,92.5806 1386.09,90.914 1387.5,88.5C 1398.25,78.7458 1409.59,69.7458 1421.5,61.5C 1423.75,60.9202 1425.42,59.5869 1426.5,57.5C 1428.3,55.1 1430.63,53.4333 1433.5,52.5C 1435.03,52.573 1436.03,51.9063 1436.5,50.5C 1437.9,49.1103 1439.57,48.1103 1441.5,47.5C 1443.03,47.573 1444.03,46.9063 1444.5,45.5C 1457.47,37.8525 1471.13,31.5192 1485.5,26.5C 1492.17,25.2762 1498.5,23.2762 1504.5,20.5C 1507.15,20.5905 1509.49,19.9238 1511.5,18.5C 1542.46,9.14983 1574.13,5.64983 1606.5,8C 1617.01,9.50419 1627.35,11.8375 1637.5,15C 1644.27,18.9387 1650.27,23.772 1655.5,29.5 Z M 1639.5,72.5 C 1637.5,73.1667 1635.5,73.8333 1633.5,74.5C 1612.75,76.0099 1592.09,78.5099 1571.5,82C 1563.93,83.4076 1556.6,85.2409 1549.5,87.5C 1544.96,87.8844 1540.63,89.0511 1536.5,91C 1537.5,91.1667 1538.5,91.3333 1539.5,91.5C 1545.27,90.2998 1550.94,89.2998 1556.5,88.5C 1576.31,86.8355 1596.14,85.5021 1616,84.5C 1624.6,84.387 1633.1,85.2203 1641.5,87C 1643.62,87.2602 1645.28,88.2602 1646.5,90C 1644.25,96.6671 1641.58,103.167 1638.5,109.5C 1637.09,109.973 1636.43,110.973 1636.5,112.5C 1632.53,118.143 1628.53,123.81 1624.5,129.5C 1623.09,129.973 1622.43,130.973 1622.5,132.5C 1621.5,132.833 1620.83,133.5 1620.5,134.5C 1619.09,134.973 1618.43,135.973 1618.5,137.5C 1616.17,139.167 1614.17,141.167 1612.5,143.5C 1610.74,144.262 1609.74,145.596 1609.5,147.5C 1607.17,149.167 1605.17,151.167 1603.5,153.5C 1600.24,155.094 1597.57,157.427 1595.5,160.5C 1590.85,163.821 1586.51,167.487 1582.5,171.5C 1580.97,171.427 1579.97,172.094 1579.5,173.5C 1576.86,174.811 1574.53,176.478 1572.5,178.5C 1570.97,178.427 1569.97,179.094 1569.5,180.5C 1566.86,181.811 1564.53,183.478 1562.5,185.5C 1560.97,185.427 1559.97,186.094 1559.5,187.5C 1556.86,188.811 1554.53,190.478 1552.5,192.5C 1550.97,192.427 1549.97,193.094 1549.5,194.5C 1547.77,195.026 1546.44,196.026 1545.5,197.5C 1543.97,197.427 1542.97,198.094 1542.5,199.5C 1540.97,199.427 1539.97,200.094 1539.5,201.5C 1537.77,202.026 1536.44,203.026 1535.5,204.5C 1533.97,204.427 1532.97,205.094 1532.5,206.5C 1529.86,207.811 1527.53,209.478 1525.5,211.5C 1523.97,211.427 1522.97,212.094 1522.5,213.5C 1515.29,217.932 1508.29,222.598 1501.5,227.5C 1499.97,227.427 1498.97,228.094 1498.5,229.5C 1496.57,230.11 1494.9,231.11 1493.5,232.5C 1491.97,232.427 1490.97,233.094 1490.5,234.5C 1481.33,239.585 1472.33,244.918 1463.5,250.5C 1461.97,250.427 1460.97,251.094 1460.5,252.5C 1459.51,252.328 1458.84,252.662 1458.5,253.5C 1457.51,253.672 1456.84,253.338 1456.5,252.5C 1458.23,250.058 1459.73,247.391 1461,244.5C 1471,219.833 1481,195.167 1491,170.5C 1494.99,158.029 1498.16,145.362 1500.5,132.5C 1501.96,128.727 1502.46,124.727 1502,120.5C 1500.3,122.577 1499.13,124.91 1498.5,127.5C 1492.11,141.289 1485.44,154.956 1478.5,168.5C 1486.55,148.866 1493.71,128.866 1500,108.5C 1502.01,100.625 1502.85,92.6249 1502.5,84.5C 1544.12,73.5606 1586.45,68.7272 1629.5,70C 1632.93,70.5334 1636.26,71.3668 1639.5,72.5 Z M 1679.5,177.5 C 1679.57,179.027 1678.91,180.027 1677.5,180.5C 1677.43,178.973 1678.09,177.973 1679.5,177.5 Z M 1677.5,180.5 C 1677.17,181.833 1676.83,183.167 1676.5,184.5C 1675.09,184.973 1674.43,185.973 1674.5,187.5C 1673.5,187.833 1672.83,188.5 1672.5,189.5C 1671.83,189.833 1671.17,190.167 1670.5,190.5C 1672.06,186.608 1674.4,183.275 1677.5,180.5 Z M 1670.5,190.5 C 1670.5,191.167 1670.5,191.833 1670.5,192.5C 1669.17,193.5 1667.83,194.5 1666.5,195.5C 1667.08,193.251 1668.41,191.585 1670.5,190.5 Z M 1633.5,230.5 C 1633.5,231.167 1633.5,231.833 1633.5,232.5C 1630.5,234.833 1627.83,237.5 1625.5,240.5C 1622.24,242.094 1619.57,244.427 1617.5,247.5C 1613.85,249.817 1610.52,252.484 1607.5,255.5C 1605.97,255.427 1604.97,256.094 1604.5,257.5C 1601.86,258.811 1599.53,260.478 1597.5,262.5C 1595.97,262.427 1594.97,263.094 1594.5,264.5C 1593.83,264.5 1593.17,264.5 1592.5,264.5C 1592.41,263.504 1592.75,262.671 1593.5,262C 1607.3,252.024 1620.64,241.524 1633.5,230.5 Z M 1388.5,432.5 C 1387.46,433.93 1386.8,435.597 1386.5,437.5C 1384.44,442.022 1382.77,446.688 1381.5,451.5C 1380.6,450.791 1380.26,449.791 1380.5,448.5C 1383.22,438.39 1387.06,428.723 1392,419.5C 1391.17,423.838 1390,428.172 1388.5,432.5 Z"/></g>
    <g><path style="opacity:0.796" fill="#7f7f80" d="M 1041.5,8.5 C 1042.21,7.59603 1043.21,7.26269 1044.5,7.5C 1044.79,9.73535 1044.46,11.7354 1043.5,13.5C 1043.92,11.2188 1043.26,9.55213 1041.5,8.5 Z"/></g>
    <g><path style="opacity:0.875" fill="#848485" d="M 684.5,12.5 C 686.262,13.2623 687.262,14.5956 687.5,16.5C 685.738,15.7377 684.738,14.4044 684.5,12.5 Z"/></g>
    <g><path style="opacity:0.298" fill="#bababb" d="M 1049.5,15.5 C 1049.92,14.8761 1050.58,14.5427 1051.5,14.5C 1052.71,14.7472 1053.38,15.4138 1053.5,16.5C 1052.29,15.7659 1050.96,15.4326 1049.5,15.5 Z"/></g>
    <g><path style="opacity:0.482" fill="#89898a" d="M 1053.5,16.5 C 1055.63,17.0482 1057.63,17.7148 1059.5,18.5C 1056.92,18.9746 1054.92,18.3079 1053.5,16.5 Z"/></g>
    <g><path style="opacity:0.698" fill="#8b8c8c" d="M 1044.5,18.5 C 1043.74,20.2624 1042.4,21.2624 1040.5,21.5C 1041.26,19.7376 1042.6,18.7376 1044.5,18.5 Z"/></g>
    <g><path style="opacity:0.925" fill="#7c7d7e" d="M 1060.5,18.5 C 1061.71,18.9321 1062.71,19.5987 1063.5,20.5C 1061.82,20.7148 1060.82,20.0481 1060.5,18.5 Z"/></g>
    <g><path style="opacity:0.949" fill="#5f5f60" d="M 1511.5,18.5 C 1509.49,19.9238 1507.15,20.5905 1504.5,20.5C 1506.51,19.0762 1508.85,18.4095 1511.5,18.5 Z"/></g>
    <g><path style="opacity:0.965" fill="#626263" d="M 788.5,19.5 C 785.447,19.5721 782.781,20.5721 780.5,22.5C 782.299,18.7557 784.966,17.7557 788.5,19.5 Z"/></g>
    <g><path style="opacity:0.808" fill="#848484" d="M 1024.5,19.5 C 1024.57,21.0269 1023.91,22.0269 1022.5,22.5C 1022.43,20.9731 1023.09,19.9731 1024.5,19.5 Z"/></g>
    <g><path style="opacity:0.373" fill="#a3a3a4" d="M 635.5,21.5 C 635.573,23.0269 634.906,24.0269 633.5,24.5C 633.427,22.9731 634.094,21.9731 635.5,21.5 Z"/></g>
    <g><path style="opacity:0.953" fill="#5c5c5d" d="M 1504.5,20.5 C 1498.5,23.2762 1492.17,25.2762 1485.5,26.5C 1491.5,23.7238 1497.83,21.7238 1504.5,20.5 Z"/></g>
    <g><path style="opacity:0.808" fill="#868686" d="M 1020.5,24.5 C 1020.57,26.0269 1019.91,27.0269 1018.5,27.5C 1018.43,25.9731 1019.09,24.9731 1020.5,24.5 Z"/></g>
    <g><path style="opacity:1" fill="#0d0e0f" d="M 526.5,30.5 C 526.427,32.0269 527.094,33.0269 528.5,33.5C 529.167,33.5 529.5,33.8333 529.5,34.5C 529.427,36.0269 530.094,37.0269 531.5,37.5C 533.262,38.2623 534.262,39.5956 534.5,41.5C 534.427,43.0269 535.094,44.0269 536.5,44.5C 540.312,51.4692 543.646,58.8025 546.5,66.5C 546.084,68.7153 544.75,70.0487 542.5,70.5C 541.957,70.56 541.624,70.8933 541.5,71.5C 542.325,72.3857 543.325,72.719 544.5,72.5C 544.5,73.8333 544.5,75.1667 544.5,76.5C 541.59,84.7287 538.757,93.0621 536,101.5C 521.392,133.711 506.558,165.711 491.5,197.5C 490.662,197.842 490.328,198.508 490.5,199.5C 489.427,200.251 489.26,201.251 490,202.5C 490.717,201.956 491.217,201.289 491.5,200.5C 492.338,200.158 492.672,199.492 492.5,198.5C 492.833,198.5 493.167,198.5 493.5,198.5C 494.167,198.5 494.5,198.833 494.5,199.5C 493.517,204.954 492.017,210.287 490,215.5C 471.219,257.353 454.719,300.02 440.5,343.5C 439.904,344.935 439.904,346.602 440.5,348.5C 438.656,350.279 437.99,352.612 438.5,355.5C 430.046,386.2 421.379,416.867 412.5,447.5C 412.667,448.167 412.833,448.833 413,449.5C 417.034,436.334 421.2,423.334 425.5,410.5C 426.924,408.485 427.59,406.152 427.5,403.5C 428.297,399.777 429.297,396.11 430.5,392.5C 432.213,391.365 432.88,389.698 432.5,387.5C 432.5,387.167 432.5,386.833 432.5,386.5C 434.213,385.365 434.88,383.698 434.5,381.5C 434.971,379.421 435.637,377.421 436.5,375.5C 437.477,378.287 437.81,381.287 437.5,384.5C 434.451,401.243 430.951,417.91 427,434.5C 417.176,472.129 407.509,509.795 398,547.5C 395,555.167 392,562.833 389,570.5C 384.597,576.728 378.764,578.561 371.5,576C 357.216,571.689 343.883,565.522 331.5,557.5C 331.027,556.094 330.027,555.427 328.5,555.5C 327.508,555.672 326.842,555.338 326.5,554.5C 325.738,552.738 324.404,551.738 322.5,551.5C 322.027,550.094 321.027,549.427 319.5,549.5C 313.184,542.238 306.851,534.905 300.5,527.5C 295.493,526.798 290.493,525.965 285.5,525C 283.934,524.392 282.6,523.558 281.5,522.5C 281.027,521.094 280.027,520.427 278.5,520.5C 277.5,520.167 276.833,519.5 276.5,518.5C 276.167,517.5 275.5,516.833 274.5,516.5C 270.346,512.208 267.18,507.208 265,501.5C 252.051,488.232 240.551,473.899 230.5,458.5C 230.446,456.368 229.446,455.035 227.5,454.5C 226.599,453.71 225.932,452.71 225.5,451.5C 225.715,449.821 225.048,448.821 223.5,448.5C 205.144,416.612 191.977,382.612 184,346.5C 179.548,322.652 174.381,298.985 168.5,275.5C 168.688,273.897 168.188,272.563 167,271.5C 166.536,272.094 166.369,272.761 166.5,273.5C 147.951,328.131 132.284,383.464 119.5,439.5C 118.402,440.601 118.235,441.934 119,443.5C 119.717,442.956 120.217,442.289 120.5,441.5C 121.172,440.733 122.005,440.066 123,439.5C 127.201,440.882 130.701,443.215 133.5,446.5C 133.738,448.404 134.738,449.738 136.5,450.5C 139.741,452.983 141.408,456.316 141.5,460.5C 144.263,460.744 146.429,462.077 148,464.5C 150.706,471.422 154.54,477.589 159.5,483C 147.06,498.05 135.227,513.55 124,529.5C 113.294,543.04 101.127,555.04 87.5,565.5C 87.1437,571.077 86.1437,576.41 84.5,581.5C 80.1667,578.167 75.8333,574.833 71.5,571.5C 70.7777,572.551 69.7777,573.218 68.5,573.5C 63.6988,570.201 60.1988,565.867 58,560.5C 56.8549,559.364 55.6883,558.364 54.5,557.5C 53.0101,555.72 51.0101,555.054 48.5,555.5C 44.2576,555.921 40.2576,555.254 36.5,553.5C 36.0269,552.094 35.0269,551.427 33.5,551.5C 31.9731,551.573 30.9731,550.906 30.5,549.5C 29.7377,547.738 28.4044,546.738 26.5,546.5C 23.5,544.167 20.8333,541.5 18.5,538.5C 18.4456,536.368 17.4456,535.035 15.5,534.5C 7.57287,520.051 2.23953,504.718 -0.5,488.5C -0.5,474.5 -0.5,460.5 -0.5,446.5C 2.38772,417.394 7.72106,388.727 15.5,360.5C 16.9238,358.485 17.5905,356.152 17.5,353.5C 18.9238,351.485 19.5905,349.152 19.5,346.5C 20.521,339.446 22.521,332.779 25.5,326.5C 26.9238,324.485 27.5905,322.152 27.5,319.5C 27.767,317.035 28.4336,314.701 29.5,312.5C 31.2132,311.365 31.8799,309.698 31.5,307.5C 31.5,307.167 31.5,306.833 31.5,306.5C 33.2132,305.365 33.8799,303.698 33.5,301.5C 33.5,301.167 33.5,300.833 33.5,300.5C 35.2132,299.365 35.8799,297.698 35.5,295.5C 35.5,295.167 35.5,294.833 35.5,294.5C 37.2132,293.365 37.8799,291.698 37.5,289.5C 38.9706,284.421 40.6373,279.421 42.5,274.5C 44.2132,273.365 44.8799,271.698 44.5,269.5C 45.304,266.421 46.304,263.421 47.5,260.5C 49.2132,259.365 49.8799,257.698 49.5,255.5C 64.105,212.289 80.9383,169.955 100,128.5C 104.274,119.615 108.774,110.948 113.5,102.5C 114.906,102.027 115.573,101.027 115.5,99.5C 115.66,97.847 116.326,96.5137 117.5,95.5C 118.906,95.0269 119.573,94.0269 119.5,92.5C 119.328,91.5084 119.662,90.8417 120.5,90.5C 121.906,90.0269 122.573,89.0269 122.5,87.5C 123.34,85.1475 124.674,83.1475 126.5,81.5C 127.906,81.0269 128.573,80.0269 128.5,78.5C 129.906,78.0269 130.573,77.0269 130.5,75.5C 130.833,74.5 131.5,73.8333 132.5,73.5C 134.587,72.4154 135.92,70.7488 136.5,68.5C 138.027,68.573 139.027,67.9063 139.5,66.5C 140.894,64.2918 142.894,62.7918 145.5,62C 150.001,61.2712 154.335,61.7712 158.5,63.5C 159.326,65.2644 160.659,66.5977 162.5,67.5C 164.4,69.6195 166.066,71.9528 167.5,74.5C 167.738,76.4044 168.738,77.7377 170.5,78.5C 175.693,80.8508 179.026,84.8508 180.5,90.5C 181.167,93.1667 182.833,94.8333 185.5,95.5C 191.797,100.129 197.463,105.462 202.5,111.5C 202.738,113.404 203.738,114.738 205.5,115.5C 212.581,124.699 217.581,135.032 220.5,146.5C 220.12,148.698 220.787,150.365 222.5,151.5C 222.5,151.833 222.5,152.167 222.5,152.5C 222.41,155.152 223.076,157.485 224.5,159.5C 225.657,162.273 226.324,165.273 226.5,168.5C 226.41,171.152 227.076,173.485 228.5,175.5C 228.41,178.152 229.076,180.485 230.5,182.5C 240.538,208.939 250.204,235.606 259.5,262.5C 259.12,264.698 259.787,266.365 261.5,267.5C 265.231,277.695 268.565,288.028 271.5,298.5C 271.12,300.698 271.787,302.365 273.5,303.5C 276.297,312.558 279.297,321.558 282.5,330.5C 282.12,332.698 282.787,334.365 284.5,335.5C 285.363,337.421 286.029,339.421 286.5,341.5C 286.12,343.698 286.787,345.365 288.5,346.5C 290.699,351.763 292.699,357.096 294.5,362.5C 294.427,364.027 295.094,365.027 296.5,365.5C 299.478,369.443 301.978,373.777 304,378.5C 307.138,386.913 310.471,395.246 314,403.5C 315,402.5 316,401.5 317,400.5C 319.325,393.528 321.492,386.528 323.5,379.5C 325.213,378.365 325.88,376.698 325.5,374.5C 329.102,362.028 333.102,349.694 337.5,337.5C 339.213,336.365 339.88,334.698 339.5,332.5C 340.304,329.421 341.304,326.421 342.5,323.5C 344.213,322.365 344.88,320.698 344.5,318.5C 357.842,279.455 373.509,241.455 391.5,204.5C 392.906,204.027 393.573,203.027 393.5,201.5C 402.583,184.332 411.916,167.332 421.5,150.5C 422.906,150.027 423.573,149.027 423.5,147.5C 426.33,141.17 429.663,135.17 433.5,129.5C 434.906,129.027 435.573,128.027 435.5,126.5C 437.332,122.164 439.665,118.164 442.5,114.5C 443.906,114.027 444.573,113.027 444.5,111.5C 444.328,110.508 444.662,109.842 445.5,109.5C 447.262,108.738 448.262,107.404 448.5,105.5C 449.906,105.027 450.573,104.027 450.5,102.5C 451.701,100.091 453.367,98.0905 455.5,96.5C 457.262,95.7377 458.262,94.4044 458.5,92.5C 459.906,92.0269 460.573,91.0269 460.5,89.5C 461.906,89.0269 462.573,88.0269 462.5,86.5C 463.906,86.0269 464.573,85.0269 464.5,83.5C 465.669,80.4887 467.336,77.822 469.5,75.5C 470.906,75.0269 471.573,74.0269 471.5,72.5C 472.906,72.0269 473.573,71.0269 473.5,69.5C 474.906,69.0269 475.573,68.0269 475.5,66.5C 476.906,66.0269 477.573,65.0269 477.5,63.5C 480.345,58.4727 483.679,53.806 487.5,49.5C 488.906,49.0269 489.573,48.0269 489.5,46.5C 496.227,36.6236 505.394,29.957 517,26.5C 519.135,27.1271 521.302,27.6271 523.5,28C 524.942,28.3768 525.942,29.2101 526.5,30.5 Z M 142.5,325.5 C 141.463,326.93 140.796,328.597 140.5,330.5C 135.029,345.248 130.362,360.248 126.5,375.5C 125.076,377.515 124.41,379.848 124.5,382.5C 123.076,384.515 122.41,386.848 122.5,389.5C 121.566,390.568 121.232,391.901 121.5,393.5C 120.076,395.515 119.41,397.848 119.5,400.5C 114.422,417.388 110.922,434.721 109,452.5C 107.269,454.617 105.102,456.117 102.5,457C 100.641,458.558 99.1411,460.391 98,462.5C 101.791,433.996 108.124,405.996 117,378.5C 130.536,334.766 145.203,291.433 161,248.5C 163.606,254.964 164.939,261.631 165,268.5C 156.416,287.088 148.916,306.088 142.5,325.5 Z"/></g>
    <g><path style="opacity:0.804" fill="#919191" d="M 1071.5,26.5 C 1073.26,27.2623 1074.26,28.5956 1074.5,30.5C 1072.74,29.7377 1071.74,28.4044 1071.5,26.5 Z"/></g>
    <g><path style="opacity:0.6" fill="#7f8080" d="M 694.5,26.5 C 695.906,26.9731 696.573,27.9731 696.5,29.5C 695.094,29.0269 694.427,28.0269 694.5,26.5 Z"/></g>
    <g><path style="opacity:0.757" fill="#9a9b9b" d="M 1655.5,29.5 C 1657.91,30.9108 1659.58,32.9108 1660.5,35.5C 1658.09,34.0892 1656.42,32.0892 1655.5,29.5 Z"/></g>
    <g><path style="opacity:0.718" fill="#929393" d="M 526.5,30.5 C 527.906,30.9731 528.573,31.9731 528.5,33.5C 527.094,33.0269 526.427,32.0269 526.5,30.5 Z"/></g>
    <g><path style="opacity:0.169" fill="#b3b4b4" d="M 1033.5,28.5 C 1033.5,29.1667 1033.83,29.5 1034.5,29.5C 1033.21,31.2959 1031.71,32.9625 1030,34.5C 1030.45,32.1879 1031.61,30.1879 1033.5,28.5 Z"/></g>
    <g><path style="opacity:0.416" fill="#999a9a" d="M 1074.5,30.5 C 1075.91,30.9731 1076.57,31.9731 1076.5,33.5C 1075.09,33.0269 1074.43,32.0269 1074.5,30.5 Z"/></g>
    <g><path style="opacity:0.514" fill="#909191" d="M 529.5,34.5 C 530.906,34.9731 531.573,35.9731 531.5,37.5C 530.094,37.0269 529.427,36.0269 529.5,34.5 Z"/></g>
    <g><path style="opacity:0.447" fill="#969696" d="M 770.5,34.5 C 770.573,36.0269 769.906,37.0269 768.5,37.5C 768.427,35.9731 769.094,34.9731 770.5,34.5 Z"/></g>
    <g><path style="opacity:0.4" fill="#999a9a" d="M 1076.5,33.5 C 1078.48,36.3726 1078.81,39.3726 1077.5,42.5C 1077.3,39.4824 1076.96,36.4824 1076.5,33.5 Z"/></g>
    <g><path style="opacity:0.49" fill="#969697" d="M 1010.5,38.5 C 1010.57,40.0269 1009.91,41.0269 1008.5,41.5C 1008.43,39.9731 1009.09,38.9731 1010.5,38.5 Z"/></g>
    <g><path style="opacity:0.773" fill="#8a8a8b" d="M 1664.5,39.5 C 1665.91,39.9731 1666.57,40.9731 1666.5,42.5C 1665.09,42.0269 1664.43,41.0269 1664.5,39.5 Z"/></g>
    <g><path style="opacity:0.4" fill="#9d9d9e" d="M 767.5,39.5 C 767.573,41.0269 766.906,42.0269 765.5,42.5C 765.427,40.9731 766.094,39.9731 767.5,39.5 Z"/></g>
    <g><path style="opacity:0.749" fill="#8b8c8c" d="M 534.5,41.5 C 535.906,41.9731 536.573,42.9731 536.5,44.5C 535.094,44.0269 534.427,43.0269 534.5,41.5 Z"/></g>
    <g><path style="opacity:0.435" fill="#9c9d9d" d="M 807.5,41.5 C 808.906,41.9731 809.573,42.9731 809.5,44.5C 808.094,44.0269 807.427,43.0269 807.5,41.5 Z"/></g>
    <g><path style="opacity:0.529" fill="#8f8f90" d="M 1008.5,41.5 C 1008.57,43.0269 1007.91,44.0269 1006.5,44.5C 1006.43,42.9731 1007.09,41.9731 1008.5,41.5 Z"/></g>
    <g><path style="opacity:0.122" fill="#c8c8c9" d="M 699.5,45.5 C 699.5,46.1667 699.833,46.5 700.5,46.5C 700.217,47.2891 699.717,47.9558 699,48.5C 698.26,47.2506 698.427,46.2506 699.5,45.5 Z"/></g>
    <g><path style="opacity:0.471" fill="#979797" d="M 1006.5,44.5 C 1006.57,46.0269 1005.91,47.0269 1004.5,47.5C 1004.43,45.9731 1005.09,44.9731 1006.5,44.5 Z"/></g>
    <g><path style="opacity:0.769" fill="#89898a" d="M 1444.5,45.5 C 1444.03,46.9063 1443.03,47.573 1441.5,47.5C 1441.97,46.0937 1442.97,45.427 1444.5,45.5 Z"/></g>
    <g><path style="opacity:0.49" fill="#9e9e9f" d="M 1668.5,44.5 C 1669.91,44.9731 1670.57,45.9731 1670.5,47.5C 1669.09,47.0269 1668.43,46.0269 1668.5,44.5 Z"/></g>
    <g><path style="opacity:0.584" fill="#898a8a" d="M 489.5,46.5 C 489.573,48.0269 488.906,49.0269 487.5,49.5C 487.427,47.9731 488.094,46.9731 489.5,46.5 Z"/></g>
    <g><path style="opacity:0.361" fill="#a2a3a3" d="M 810.5,46.5 C 811.906,46.9731 812.573,47.9731 812.5,49.5C 811.094,49.0269 810.427,48.0269 810.5,46.5 Z"/></g>
    <g><path style="opacity:0.612" fill="#7e7f7f" d="M 1670.5,47.5 C 1671.91,47.9731 1672.57,48.9731 1672.5,50.5C 1671.09,50.0269 1670.43,49.0269 1670.5,47.5 Z"/></g>
    <g><path style="opacity:0.78" fill="#858586" d="M 1436.5,50.5 C 1436.03,51.9063 1435.03,52.573 1433.5,52.5C 1433.97,51.0937 1434.97,50.427 1436.5,50.5 Z"/></g>
    <g><path style="opacity:0.635" fill="#797a7b" d="M 1672.5,50.5 C 1673.91,50.9731 1674.57,51.9731 1674.5,53.5C 1673.09,53.0269 1672.43,52.0269 1672.5,50.5 Z"/></g>
    <g><path style="opacity:0.624" fill="#79797a" d="M 1001.5,52.5 C 1001.57,54.0269 1000.91,55.0269 999.5,55.5C 999.427,53.9731 1000.09,52.9731 1001.5,52.5 Z"/></g>
    <g><path style="opacity:0.514" fill="#949595" d="M 813.5,53.5 C 814.906,53.9731 815.573,54.9731 815.5,56.5C 814.094,56.0269 813.427,55.0269 813.5,53.5 Z"/></g>
    <g><path style="opacity:0.486" fill="#909191" d="M 999.5,55.5 C 999.573,57.0269 998.906,58.0269 997.5,58.5C 997.427,56.9731 998.094,55.9731 999.5,55.5 Z"/></g>
    <g><path style="opacity:0.969" fill="#5b5c5d" d="M 1426.5,57.5 C 1425.42,59.5869 1423.75,60.9202 1421.5,61.5C 1422.58,59.4131 1424.25,58.0798 1426.5,57.5 Z"/></g>
    <g><path style="opacity:0.651" fill="#878788" d="M 158.5,63.5 C 160.773,63.9568 162.106,65.2901 162.5,67.5C 160.659,66.5977 159.326,65.2644 158.5,63.5 Z"/></g>
    <g><path style="opacity:0.506" fill="#939494" d="M 477.5,63.5 C 477.573,65.0269 476.906,66.0269 475.5,66.5C 475.427,64.9731 476.094,63.9731 477.5,63.5 Z"/></g>
    <g><path style="opacity:0.427" fill="#9c9d9d" d="M 994.5,63.5 C 994.573,65.0269 993.906,66.0269 992.5,66.5C 992.427,64.9731 993.094,63.9731 994.5,63.5 Z"/></g>
    <g><path style="opacity:0.796" fill="#7a7a7b" d="M 139.5,66.5 C 139.027,67.9063 138.027,68.573 136.5,68.5C 136.973,67.0937 137.973,66.427 139.5,66.5 Z"/></g>
    <g><path style="opacity:0.482" fill="#969696" d="M 475.5,66.5 C 475.573,68.0269 474.906,69.0269 473.5,69.5C 473.427,67.9731 474.094,66.9731 475.5,66.5 Z"/></g>
    <g><path style="opacity:0.424" fill="#999a9a" d="M 991.5,68.5 C 991.573,70.0269 990.906,71.0269 989.5,71.5C 989.427,69.9731 990.094,68.9731 991.5,68.5 Z"/></g>
    <g><path style="opacity:0.678" fill="#8e8e8f" d="M 136.5,68.5 C 135.92,70.7488 134.587,72.4154 132.5,73.5C 133.08,71.2512 134.413,69.5846 136.5,68.5 Z"/></g>
    <g><path style="opacity:0.459" fill="#9a9a9b" d="M 473.5,69.5 C 473.573,71.0269 472.906,72.0269 471.5,72.5C 471.427,70.9731 472.094,69.9731 473.5,69.5 Z"/></g>
    <g><path style="opacity:1" fill="#0e0f10" d="M 1196.5,81.5 C 1197.03,83.4456 1198.37,84.4456 1200.5,84.5C 1208.07,89.3956 1214.73,95.3956 1220.5,102.5C 1220.43,104.027 1221.09,105.027 1222.5,105.5C 1224.17,106.5 1225.5,107.833 1226.5,109.5C 1226.43,111.027 1227.09,112.027 1228.5,112.5C 1229.83,113.167 1230.83,114.167 1231.5,115.5C 1231.43,117.027 1232.09,118.027 1233.5,118.5C 1234.5,118.833 1235.17,119.5 1235.5,120.5C 1235.43,122.027 1236.09,123.027 1237.5,123.5C 1238.5,123.833 1239.17,124.5 1239.5,125.5C 1239.43,127.027 1240.09,128.027 1241.5,128.5C 1241.74,130.404 1242.74,131.738 1244.5,132.5C 1252.32,142.136 1259.65,152.136 1266.5,162.5C 1266.43,164.027 1267.09,165.027 1268.5,165.5C 1272.2,170.236 1274.87,175.57 1276.5,181.5C 1276.41,184.152 1277.08,186.485 1278.5,188.5C 1288.66,236.549 1287.83,284.549 1276,332.5C 1268.22,363.853 1259.22,394.853 1249,425.5C 1230.45,468.621 1207.78,509.288 1181,547.5C 1177.97,551.359 1174.8,555.026 1171.5,558.5C 1170.17,558.5 1169.5,557.833 1169.5,556.5C 1171.44,552.293 1174.1,548.627 1177.5,545.5C 1178.91,545.027 1179.57,544.027 1179.5,542.5C 1180.91,542.027 1181.57,541.027 1181.5,539.5C 1182.91,539.027 1183.57,538.027 1183.5,536.5C 1184.91,536.027 1185.57,535.027 1185.5,533.5C 1186.91,533.027 1187.57,532.027 1187.5,530.5C 1188.91,530.027 1189.57,529.027 1189.5,527.5C 1190.11,525.566 1191.11,523.899 1192.5,522.5C 1193.91,522.027 1194.57,521.027 1194.5,519.5C 1195.91,519.027 1196.57,518.027 1196.5,516.5C 1196.33,515.508 1196.66,514.842 1197.5,514.5C 1198.91,514.027 1199.57,513.027 1199.5,511.5C 1199.33,510.508 1199.66,509.842 1200.5,509.5C 1201.91,509.027 1202.57,508.027 1202.5,506.5C 1202.33,505.508 1202.66,504.842 1203.5,504.5C 1204.91,504.027 1205.57,503.027 1205.5,501.5C 1219.52,477.134 1231.68,451.8 1242,425.5C 1243.65,421.578 1244.65,417.578 1245,413.5C 1224.87,453.765 1203.2,493.099 1180,531.5C 1167.29,553.879 1148.79,569.379 1124.5,578C 1117.67,580.998 1110.67,583.498 1103.5,585.5C 1099.83,584.728 1096.5,583.395 1093.5,581.5C 1093.03,580.094 1092.03,579.427 1090.5,579.5C 1088.6,579.262 1087.26,578.262 1086.5,576.5C 1086.03,575.094 1085.03,574.427 1083.5,574.5C 1082.5,574.167 1081.83,573.5 1081.5,572.5C 1081.03,571.094 1080.03,570.427 1078.5,570.5C 1075,567.169 1071.33,564.002 1067.5,561C 1061.5,559 1055.5,557 1049.5,555C 1048.43,554.148 1047.43,553.315 1046.5,552.5C 1046.03,551.094 1045.03,550.427 1043.5,550.5C 1035.07,542.971 1028.07,534.304 1022.5,524.5C 1022.45,522.368 1021.45,521.035 1019.5,520.5C 1018.6,519.71 1017.93,518.71 1017.5,517.5C 1017.71,515.821 1017.05,514.821 1015.5,514.5C 1008.19,501.085 1003.36,486.751 1001,471.5C 994.019,437.917 993.685,404.25 1000,370.5C 1003.39,347.722 1008.22,325.389 1014.5,303.5C 1015.92,301.485 1016.59,299.152 1016.5,296.5C 1017.92,294.485 1018.59,292.152 1018.5,289.5C 1019.92,287.485 1020.59,285.152 1020.5,282.5C 1020.5,281.833 1020.5,281.167 1020.5,280.5C 1022.21,279.365 1022.88,277.698 1022.5,275.5C 1030.92,246.234 1042.25,218.234 1056.5,191.5C 1057.91,191.027 1058.57,190.027 1058.5,188.5C 1058.66,186.847 1059.33,185.514 1060.5,184.5C 1061.91,184.027 1062.57,183.027 1062.5,181.5C 1064.92,176.333 1067.58,171.333 1070.5,166.5C 1071.91,166.027 1072.57,165.027 1072.5,163.5C 1072.66,161.847 1073.33,160.514 1074.5,159.5C 1075.91,159.027 1076.57,158.027 1076.5,156.5C 1076.33,155.508 1076.66,154.842 1077.5,154.5C 1078.91,154.027 1079.57,153.027 1079.5,151.5C 1079.33,150.508 1079.66,149.842 1080.5,149.5C 1081.91,149.027 1082.57,148.027 1082.5,146.5C 1083.91,146.027 1084.57,145.027 1084.5,143.5C 1085.91,143.027 1086.57,142.027 1086.5,140.5C 1087.91,140.027 1088.57,139.027 1088.5,137.5C 1089.91,137.027 1090.57,136.027 1090.5,134.5C 1093.44,128.959 1097.1,123.959 1101.5,119.5C 1103.26,118.738 1104.26,117.404 1104.5,115.5C 1105.17,114.167 1106.17,113.167 1107.5,112.5C 1109.26,111.738 1110.26,110.404 1110.5,108.5C 1112.02,105.467 1114.02,102.8 1116.5,100.5C 1117.91,100.027 1118.57,99.0269 1118.5,97.5C 1120.84,94.7928 1123.18,92.1261 1125.5,89.5C 1128.09,88.5806 1130.09,86.914 1131.5,84.5C 1132.58,82.457 1134.25,81.1237 1136.5,80.5C 1138.03,80.573 1139.03,79.9063 1139.5,78.5C 1141.03,78.573 1142.03,77.9063 1142.5,76.5C 1144.18,74.9925 1146.18,73.9925 1148.5,73.5C 1151.15,73.5905 1153.49,72.9238 1155.5,71.5C 1170.42,69.6457 1184.08,72.979 1196.5,81.5 Z M 1155.5,199.5 C 1155.86,201.19 1156.86,202.19 1158.5,202.5C 1158.56,203.043 1158.89,203.376 1159.5,203.5C 1161.03,202.237 1162.7,201.237 1164.5,200.5C 1165.17,201.833 1166.17,202.833 1167.5,203.5C 1168.47,206.648 1170.47,208.481 1173.5,209C 1176.66,202.362 1179.99,195.862 1183.5,189.5C 1183.83,189.5 1184.17,189.5 1184.5,189.5C 1184.24,190.978 1184.57,192.311 1185.5,193.5C 1189.17,190.167 1192.83,186.833 1196.5,183.5C 1197.93,185.22 1198.77,187.22 1199,189.5C 1199.47,206.577 1198.47,223.577 1196,240.5C 1189.58,277.509 1181.58,314.176 1172,350.5C 1157.31,387.217 1140.47,422.884 1121.5,457.5C 1120.09,457.973 1119.43,458.973 1119.5,460.5C 1118.66,460.842 1118.33,461.508 1118.5,462.5C 1117.09,462.973 1116.43,463.973 1116.5,465.5C 1115.66,465.842 1115.33,466.508 1115.5,467.5C 1114.09,467.973 1113.43,468.973 1113.5,470.5C 1112.66,470.842 1112.33,471.508 1112.5,472.5C 1111.09,472.973 1110.43,473.973 1110.5,475.5C 1107.47,479.205 1104.81,483.205 1102.5,487.5C 1101.09,487.973 1100.43,488.973 1100.5,490.5C 1099.5,490.833 1098.83,491.5 1098.5,492.5C 1095.5,494.833 1092.83,497.5 1090.5,500.5C 1088.97,500.427 1087.97,501.094 1087.5,502.5C 1085.97,502.427 1084.97,503.094 1084.5,504.5C 1082.57,505.11 1080.9,506.11 1079.5,507.5C 1077.97,507.427 1076.97,508.094 1076.5,509.5C 1074.53,503.591 1073.36,497.258 1073,490.5C 1072.17,475.47 1072.5,460.47 1074,445.5C 1086.11,357.037 1109.45,271.704 1144,189.5C 1145.31,187.024 1147.14,185.024 1149.5,183.5C 1150.29,189.392 1152.29,194.725 1155.5,199.5 Z"/></g>
    <g><path style="opacity:0.976" fill="#616162" d="M 1155.5,71.5 C 1153.49,72.9238 1151.15,73.5905 1148.5,73.5C 1150.51,72.0762 1152.85,71.4095 1155.5,71.5 Z"/></g>
    <g><path style="opacity:0.808" fill="#828383" d="M 542.5,70.5 C 543.209,71.404 544.209,71.7373 545.5,71.5C 545.784,73.4147 545.451,75.0813 544.5,76.5C 544.5,75.1667 544.5,73.8333 544.5,72.5C 543.325,72.719 542.325,72.3857 541.5,71.5C 541.624,70.8933 541.957,70.56 542.5,70.5 Z"/></g>
    <g><path style="opacity:0.824" fill="#858586" d="M 1639.5,72.5 C 1640.38,72.3691 1641.04,72.7025 1641.5,73.5C 1638.91,74.48 1636.25,74.8134 1633.5,74.5C 1635.5,73.8333 1637.5,73.1667 1639.5,72.5 Z"/></g>
    <g><path style="opacity:0.431" fill="#9fa0a0" d="M 471.5,72.5 C 471.573,74.0269 470.906,75.0269 469.5,75.5C 469.427,73.9731 470.094,72.9731 471.5,72.5 Z"/></g>
    <g><path style="opacity:0.702" fill="#9e9f9f" d="M 167.5,74.5 C 169.262,75.2623 170.262,76.5956 170.5,78.5C 168.738,77.7377 167.738,76.4044 167.5,74.5 Z"/></g>
    <g><path style="opacity:0.494" fill="#9e9e9f" d="M 130.5,75.5 C 130.573,77.0269 129.906,78.0269 128.5,78.5C 128.427,76.9731 129.094,75.9731 130.5,75.5 Z"/></g>
    <g><path style="opacity:0.82" fill="#7f8081" d="M 1142.5,76.5 C 1142.03,77.9063 1141.03,78.573 1139.5,78.5C 1139.97,77.0937 1140.97,76.427 1142.5,76.5 Z"/></g>
    <g><path style="opacity:0.745" fill="#8b8b8c" d="M 1139.5,78.5 C 1139.03,79.9063 1138.03,80.573 1136.5,80.5C 1136.97,79.0937 1137.97,78.427 1139.5,78.5 Z"/></g>
    <g><path style="opacity:0.592" fill="#838384" d="M 128.5,78.5 C 128.573,80.0269 127.906,81.0269 126.5,81.5C 126.427,79.9731 127.094,78.9731 128.5,78.5 Z"/></g>
    <g><path style="opacity:0.545" fill="#8b8c8d" d="M 689.5,78.5 C 690.11,79.391 690.443,80.391 690.5,81.5C 688.618,80.779 688.285,79.779 689.5,78.5 Z"/></g>
    <g><path style="opacity:0.467" fill="#919192" d="M 984.5,80.5 C 984.573,82.0269 983.906,83.0269 982.5,83.5C 982.427,81.9731 983.094,80.9731 984.5,80.5 Z"/></g>
    <g><path style="opacity:0.957" fill="#828383" d="M 1196.5,81.5 C 1198.23,82.0256 1199.56,83.0256 1200.5,84.5C 1198.37,84.4456 1197.03,83.4456 1196.5,81.5 Z"/></g>
    <g><path style="opacity:0.494" fill="#919192" d="M 464.5,83.5 C 464.573,85.0269 463.906,86.0269 462.5,86.5C 462.427,84.9731 463.094,83.9731 464.5,83.5 Z"/></g>
    <g><path style="opacity:0.404" fill="#9d9e9e" d="M 981.5,85.5 C 981.573,87.0269 980.906,88.0269 979.5,88.5C 979.427,86.9731 980.094,85.9731 981.5,85.5 Z"/></g>
    <g><path style="opacity:0.867" fill="#6c6d6d" d="M 1131.5,84.5 C 1130.09,86.914 1128.09,88.5806 1125.5,89.5C 1126.91,87.086 1128.91,85.4194 1131.5,84.5 Z"/></g>
    <g><path style="opacity:0.486" fill="#99999a" d="M 462.5,86.5 C 462.573,88.0269 461.906,89.0269 460.5,89.5C 460.427,87.9731 461.094,86.9731 462.5,86.5 Z"/></g>
    <g><path style="opacity:0.427" fill="#9c9c9c" d="M 122.5,87.5 C 122.573,89.0269 121.906,90.0269 120.5,90.5C 120.427,88.9731 121.094,87.9731 122.5,87.5 Z"/></g>
    <g><path style="opacity:0.459" fill="#949595" d="M 1549.5,87.5 C 1551.61,88.4682 1553.94,88.8016 1556.5,88.5C 1550.94,89.2998 1545.27,90.2998 1539.5,91.5C 1538.5,91.3333 1537.5,91.1667 1536.5,91C 1540.63,89.0511 1544.96,87.8844 1549.5,87.5 Z"/></g>
    <g><path style="opacity:0.867" fill="#939494" d="M 180.5,90.5 C 182.5,91.8333 184.167,93.5 185.5,95.5C 182.833,94.8333 181.167,93.1667 180.5,90.5 Z"/></g>
    <g><path style="opacity:0.608" fill="#828383" d="M 460.5,89.5 C 460.573,91.0269 459.906,92.0269 458.5,92.5C 458.427,90.9731 459.094,89.9731 460.5,89.5 Z"/></g>
    <g><path style="opacity:0.925" fill="#5e5f60" d="M 1387.5,88.5 C 1386.09,90.914 1384.09,92.5806 1381.5,93.5C 1382.91,91.086 1384.91,89.4194 1387.5,88.5 Z"/></g>
    <g><path style="opacity:0.408" fill="#9a9b9b" d="M 119.5,92.5 C 119.573,94.0269 118.906,95.0269 117.5,95.5C 117.427,93.9731 118.094,92.9731 119.5,92.5 Z"/></g>
    <g><path style="opacity:0.725" fill="#7b7b7c" d="M 458.5,92.5 C 458.262,94.4044 457.262,95.7377 455.5,96.5C 455.738,94.5956 456.738,93.2623 458.5,92.5 Z"/></g>
    <g><path style="opacity:0.914" fill="#5e5f5f" d="M 1381.5,93.5 C 1379.76,96.2427 1377.43,98.2427 1374.5,99.5C 1376.24,96.7573 1378.57,94.7573 1381.5,93.5 Z"/></g>
    <g><path style="opacity:0.769" fill="#8b8c8c" d="M 1118.5,97.5 C 1118.57,99.0269 1117.91,100.027 1116.5,100.5C 1116.43,98.9731 1117.09,97.9731 1118.5,97.5 Z"/></g>
    <g><path style="opacity:0.451" fill="#959595" d="M 974.5,97.5 C 974.573,99.0269 973.906,100.027 972.5,100.5C 972.427,98.9731 973.094,97.9731 974.5,97.5 Z"/></g>
    <g><path style="opacity:0.365" fill="#a1a1a1" d="M 115.5,99.5 C 115.573,101.027 114.906,102.027 113.5,102.5C 113.427,100.973 114.094,99.9731 115.5,99.5 Z"/></g>
    <g><path style="opacity:0.941" fill="#797a7a" d="M 742.5,99.5 C 742.88,101.698 742.213,103.365 740.5,104.5C 740.796,102.597 741.463,100.93 742.5,99.5 Z"/></g>
    <g><path style="opacity:0.937" fill="#7c7d7d" d="M 1693.5,99.5 C 1694.54,100.93 1695.2,102.597 1695.5,104.5C 1693.79,103.365 1693.12,101.698 1693.5,99.5 Z"/></g>
    <g><path style="opacity:0.663" fill="#9e9f9f" d="M 1220.5,102.5 C 1221.91,102.973 1222.57,103.973 1222.5,105.5C 1221.09,105.027 1220.43,104.027 1220.5,102.5 Z"/></g>
    <g><path style="opacity:0.616" fill="#838484" d="M 450.5,102.5 C 450.573,104.027 449.906,105.027 448.5,105.5C 448.427,103.973 449.094,102.973 450.5,102.5 Z"/></g>
    <g><path style="opacity:0.4" fill="#9e9f9f" d="M 971.5,102.5 C 971.573,104.027 970.906,105.027 969.5,105.5C 969.427,103.973 970.094,102.973 971.5,102.5 Z"/></g>
    <g><path style="opacity:0.467" fill="#969697" d="M 626.5,105.5 C 628.027,105.427 629.027,106.094 629.5,107.5C 627.973,107.573 626.973,106.906 626.5,105.5 Z"/></g>
    <g><path style="opacity:0.749" fill="#7b7b7c" d="M 448.5,105.5 C 448.262,107.404 447.262,108.738 445.5,109.5C 445.738,107.596 446.738,106.262 448.5,105.5 Z"/></g>
    <g><path style="opacity:0.992" fill="#505152" d="M 1373.5,100.5 C 1371.1,103.903 1368.1,106.57 1364.5,108.5C 1366.9,105.097 1369.9,102.43 1373.5,100.5 Z"/></g>
    <g><path style="opacity:0.863" fill="#7f7f80" d="M 1110.5,108.5 C 1110.26,110.404 1109.26,111.738 1107.5,112.5C 1107.74,110.596 1108.74,109.262 1110.5,108.5 Z"/></g>
    <g><path style="opacity:0.761" fill="#8b8c8c" d="M 1226.5,109.5 C 1227.91,109.973 1228.57,110.973 1228.5,112.5C 1227.09,112.027 1226.43,111.027 1226.5,109.5 Z"/></g>
    <g><path style="opacity:0.502" fill="#8e8f8f" d="M 644.5,110.5 C 646.027,110.427 647.027,111.094 647.5,112.5C 645.973,112.573 644.973,111.906 644.5,110.5 Z"/></g>
    <g><path style="opacity:0.525" fill="#888989" d="M 1638.5,109.5 C 1638.57,111.027 1637.91,112.027 1636.5,112.5C 1636.43,110.973 1637.09,109.973 1638.5,109.5 Z"/></g>
    <g><path style="opacity:0.788" fill="#929293" d="M 202.5,111.5 C 204.262,112.262 205.262,113.596 205.5,115.5C 203.738,114.738 202.738,113.404 202.5,111.5 Z"/></g>
    <g><path style="opacity:0.988" fill="#575758" d="M 1696.5,109.5 C 1697.92,111.515 1698.59,113.848 1698.5,116.5C 1697.08,114.485 1696.41,112.152 1696.5,109.5 Z"/></g>
    <g><path style="opacity:0.498" fill="#8e8f8f" d="M 444.5,111.5 C 444.573,113.027 443.906,114.027 442.5,114.5C 442.427,112.973 443.094,111.973 444.5,111.5 Z"/></g>
    <g><path style="opacity:0.38" fill="#a0a0a0" d="M 964.5,114.5 C 964.573,116.027 963.906,117.027 962.5,117.5C 962.427,115.973 963.094,114.973 964.5,114.5 Z"/></g>
    <g><path style="opacity:0.863" fill="#818182" d="M 1104.5,115.5 C 1104.26,117.404 1103.26,118.738 1101.5,119.5C 1101.74,117.596 1102.74,116.262 1104.5,115.5 Z"/></g>
    <g><path style="opacity:0.812" fill="#838484" d="M 1231.5,115.5 C 1232.91,115.973 1233.57,116.973 1233.5,118.5C 1232.09,118.027 1231.43,117.027 1231.5,115.5 Z"/></g>
    <g><path style="opacity:0.839" fill="#6e6e6f" d="M 1361.5,111.5 C 1357.44,116.562 1352.77,120.895 1347.5,124.5C 1351.56,119.438 1356.23,115.105 1361.5,111.5 Z"/></g>
    <g><path style="opacity:0.765" fill="#8e8f8f" d="M 1235.5,120.5 C 1236.91,120.973 1237.57,121.973 1237.5,123.5C 1236.09,123.027 1235.43,122.027 1235.5,120.5 Z"/></g>
    <g><path style="opacity:0.914" fill="#818283" d="M 735.5,119.5 C 735.88,121.698 735.213,123.365 733.5,124.5C 733.796,122.597 734.463,120.93 735.5,119.5 Z"/></g>
    <g><path style="opacity:0.835" fill="#808182" d="M 655.5,124.5 C 657.027,124.427 658.027,125.094 658.5,126.5C 656.973,126.573 655.973,125.906 655.5,124.5 Z"/></g>
    <g><path style="opacity:1" fill="#6d6e6e" d="M 1500.5,132.5 C 1500.66,130.473 1500.5,128.473 1500,126.5C 1499.62,127.056 1499.12,127.389 1498.5,127.5C 1499.13,124.91 1500.3,122.577 1502,120.5C 1502.46,124.727 1501.96,128.727 1500.5,132.5 Z"/></g>
    <g><path style="opacity:0.506" fill="#9c9d9d" d="M 1239.5,125.5 C 1240.91,125.973 1241.57,126.973 1241.5,128.5C 1240.09,128.027 1239.43,127.027 1239.5,125.5 Z"/></g>
    <g><path style="opacity:0.451" fill="#959595" d="M 435.5,126.5 C 435.573,128.027 434.906,129.027 433.5,129.5C 433.427,127.973 434.094,126.973 435.5,126.5 Z"/></g>
    <g><path style="opacity:0.91" fill="#7a7a7b" d="M 1241.5,128.5 C 1243.26,129.262 1244.26,130.596 1244.5,132.5C 1242.74,131.738 1241.74,130.404 1241.5,128.5 Z"/></g>
    <g><path style="opacity:0.769" fill="#8f9091" d="M 1343.5,128.5 C 1343.26,130.404 1342.26,131.738 1340.5,132.5C 1340.74,130.596 1341.74,129.262 1343.5,128.5 Z"/></g>
    <g><path style="opacity:0.796" fill="#868687" d="M 1624.5,129.5 C 1624.57,131.027 1623.91,132.027 1622.5,132.5C 1622.43,130.973 1623.09,129.973 1624.5,129.5 Z"/></g>
    <g><path style="opacity:0.863" fill="#818182" d="M 1338.5,134.5 C 1338.26,136.404 1337.26,137.738 1335.5,138.5C 1335.74,136.596 1336.74,135.262 1338.5,134.5 Z"/></g>
    <g><path style="opacity:0.824" fill="#7f8080" d="M 1620.5,134.5 C 1620.57,136.027 1619.91,137.027 1618.5,137.5C 1618.43,135.973 1619.09,134.973 1620.5,134.5 Z"/></g>
    <g><path style="opacity:0.596" fill="#838484" d="M 1090.5,134.5 C 1090.57,136.027 1089.91,137.027 1088.5,137.5C 1088.43,135.973 1089.09,134.973 1090.5,134.5 Z"/></g>
    <g><path style="opacity:0.58" fill="#828383" d="M 1088.5,137.5 C 1088.57,139.027 1087.91,140.027 1086.5,140.5C 1086.43,138.973 1087.09,137.973 1088.5,137.5 Z"/></g>
    <g><path style="opacity:0.741" fill="#939394" d="M 1333.5,140.5 C 1333.57,142.027 1332.91,143.027 1331.5,143.5C 1331.43,141.973 1332.09,140.973 1333.5,140.5 Z"/></g>
    <g><path style="opacity:0.553" fill="#888889" d="M 1086.5,140.5 C 1086.57,142.027 1085.91,143.027 1084.5,143.5C 1084.43,141.973 1085.09,140.973 1086.5,140.5 Z"/></g>
    <g><path style="opacity:0.349" fill="#b9b9b9" d="M 1404.5,143.5 C 1404.17,143.5 1403.83,143.5 1403.5,143.5C 1405.17,140.895 1405.5,140.895 1404.5,143.5 Z"/></g>
    <g><path style="opacity:0.651" fill="#939394" d="M 1179.5,150.5 C 1179.5,150.167 1179.5,149.833 1179.5,149.5C 1180.17,149.5 1180.5,149.167 1180.5,148.5C 1181.17,148.5 1181.5,148.167 1181.5,147.5C 1182.17,147.5 1182.5,147.167 1182.5,146.5C 1183.17,146.5 1183.5,146.167 1183.5,145.5C 1184.17,145.5 1184.5,145.167 1184.5,144.5C 1185.17,144.5 1185.5,144.167 1185.5,143.5C 1186.17,143.5 1186.5,143.167 1186.5,142.5C 1187.17,142.5 1187.5,142.167 1187.5,141.5C 1188.17,141.5 1188.5,141.167 1188.5,140.5C 1191.27,137.801 1191.77,138.134 1190,141.5C 1186.9,145.107 1183.4,148.107 1179.5,150.5 Z"/></g>
    <g><path style="opacity:0.525" fill="#8d8e8e" d="M 1084.5,143.5 C 1084.57,145.027 1083.91,146.027 1082.5,146.5C 1082.43,144.973 1083.09,143.973 1084.5,143.5 Z"/></g>
    <g><path style="opacity:0.749" fill="#909192" d="M 1329.5,145.5 C 1329.57,147.027 1328.91,148.027 1327.5,148.5C 1327.43,146.973 1328.09,145.973 1329.5,145.5 Z"/></g>
    <g><path style="opacity:0.62" fill="#8c8c8d" d="M 1612.5,143.5 C 1612.26,145.404 1611.26,146.738 1609.5,147.5C 1609.74,145.596 1610.74,144.262 1612.5,143.5 Z"/></g>
    <g><path style="opacity:0.404" fill="#a0a0a1" d="M 1082.5,146.5 C 1082.57,148.027 1081.91,149.027 1080.5,149.5C 1080.43,147.973 1081.09,146.973 1082.5,146.5 Z"/></g>
    <g><path style="opacity:0.937" fill="#7b7c7c" d="M 220.5,146.5 C 221.537,147.93 222.204,149.597 222.5,151.5C 220.787,150.365 220.12,148.698 220.5,146.5 Z"/></g>
    <g><path style="opacity:0.361" fill="#a2a2a2" d="M 423.5,147.5 C 423.573,149.027 422.906,150.027 421.5,150.5C 421.427,148.973 422.094,147.973 423.5,147.5 Z"/></g>
    <g><path style="opacity:0.914" fill="#818182" d="M 725.5,148.5 C 725.88,150.698 725.213,152.365 723.5,153.5C 723.796,151.597 724.463,149.93 725.5,148.5 Z"/></g>
    <g><path style="opacity:0.455" fill="#969697" d="M 1079.5,151.5 C 1079.57,153.027 1078.91,154.027 1077.5,154.5C 1077.43,152.973 1078.09,151.973 1079.5,151.5 Z"/></g>
    <g><path style="opacity:0.18" fill="#c5c5c5" d="M 1176.5,151.5 C 1176.17,154.001 1174.84,155.168 1172.5,155C 1173.71,153.624 1175.04,152.458 1176.5,151.5 Z"/></g>
    <g><path style="opacity:0.69" fill="#888989" d="M 1603.5,153.5 C 1601.43,156.573 1598.76,158.906 1595.5,160.5C 1597.57,157.427 1600.24,155.094 1603.5,153.5 Z"/></g>
    <g><path style="opacity:0.925" fill="#7d7e7e" d="M 723.5,154.5 C 723.88,156.698 723.213,158.365 721.5,159.5C 721.796,157.597 722.463,155.93 723.5,154.5 Z"/></g>
    <g><path style="opacity:0.753" fill="#6a6a6b" d="M 222.5,152.5 C 223.924,154.515 224.59,156.848 224.5,159.5C 223.076,157.485 222.41,155.152 222.5,152.5 Z"/></g>
    <g><path style="opacity:0.416" fill="#99999a" d="M 1076.5,156.5 C 1076.57,158.027 1075.91,159.027 1074.5,159.5C 1074.43,157.973 1075.09,156.973 1076.5,156.5 Z"/></g>
    <g><path style="opacity:0.914" fill="#808181" d="M 721.5,160.5 C 721.88,162.698 721.213,164.365 719.5,165.5C 719.796,163.597 720.463,161.93 721.5,160.5 Z"/></g>
    <g><path style="opacity:0.439" fill="#9c9c9c" d="M 1266.5,162.5 C 1267.91,162.973 1268.57,163.973 1268.5,165.5C 1267.09,165.027 1266.43,164.027 1266.5,162.5 Z"/></g>
    <g><path style="opacity:0.365" fill="#a3a3a3" d="M 1072.5,163.5 C 1072.57,165.027 1071.91,166.027 1070.5,166.5C 1070.43,164.973 1071.09,163.973 1072.5,163.5 Z"/></g>
    <g><path style="opacity:0.608" fill="#7e7f7f" d="M 1315.5,164.5 C 1315.57,166.027 1314.91,167.027 1313.5,167.5C 1313.43,165.973 1314.09,164.973 1315.5,164.5 Z"/></g>
    <g><path style="opacity:0.898" fill="#848585" d="M 719.5,166.5 C 719.88,168.698 719.213,170.365 717.5,171.5C 717.796,169.597 718.463,167.93 719.5,166.5 Z"/></g>
    <g><path style="opacity:0.58" fill="#818182" d="M 1313.5,167.5 C 1313.57,169.027 1312.91,170.027 1311.5,170.5C 1311.43,168.973 1312.09,167.973 1313.5,167.5 Z"/></g>
    <g><path style="opacity:0.929" fill="#6d6e6f" d="M 226.5,168.5 C 227.924,170.515 228.59,172.848 228.5,175.5C 227.076,173.485 226.41,171.152 226.5,168.5 Z"/></g>
    <g><path style="opacity:0.784" fill="#828283" d="M 1582.5,171.5 C 1582.03,172.906 1581.03,173.573 1579.5,173.5C 1579.97,172.094 1580.97,171.427 1582.5,171.5 Z"/></g>
    <g><path style="opacity:0.173" fill="#afb0b0" d="M 1680.5,176.5 C 1680.5,175.833 1680.17,175.5 1679.5,175.5C 1679.78,174.711 1680.28,174.044 1681,173.5C 1681.74,174.749 1681.57,175.749 1680.5,176.5 Z"/></g>
    <g><path style="opacity:0.008" fill="#e7e7e8" d="M 1474.5,175.5 C 1474.5,176.167 1474.83,176.5 1475.5,176.5C 1475.16,177.338 1474.49,177.672 1473.5,177.5C 1473.33,176.508 1473.66,175.842 1474.5,175.5 Z"/></g>
    <g><path style="opacity:0.965" fill="#626364" d="M 228.5,175.5 C 229.924,177.515 230.59,179.848 230.5,182.5C 229.076,180.485 228.41,178.152 228.5,175.5 Z"/></g>
    <g><path style="opacity:0.8" fill="#767777" d="M 592.5,182.5 C 590.122,180.243 587.455,179.91 584.5,181.5C 585.312,180.007 586.645,179.34 588.5,179.5C 590.982,179.11 592.315,180.11 592.5,182.5 Z"/></g>
    <g><path style="opacity:0.745" fill="#8b8b8c" d="M 1572.5,178.5 C 1572.03,179.906 1571.03,180.573 1569.5,180.5C 1569.97,179.094 1570.97,178.427 1572.5,178.5 Z"/></g>
    <g><path style="opacity:1" fill="#0e0f0f" d="M 592.5,182.5 C 593.219,184.764 593.552,187.097 593.5,189.5C 593.46,192.425 594.293,195.091 596,197.5C 596.654,198.696 597.154,198.696 597.5,197.5C 596.691,195.929 596.357,194.262 596.5,192.5C 598.415,192.784 600.081,192.451 601.5,191.5C 602.531,190.751 603.698,190.085 605,189.5C 606.593,193.2 608.76,196.533 611.5,199.5C 612.419,202.089 614.086,204.089 616.5,205.5C 625.288,212.565 630.621,221.732 632.5,233C 616.571,302.884 600.404,372.717 584,442.5C 578.59,479.449 573.923,516.449 570,553.5C 574.143,559.617 577.643,566.117 580.5,573C 578.71,578.089 576.043,582.589 572.5,586.5C 570.167,586.5 567.833,586.5 565.5,586.5C 564.833,585.5 564.167,584.5 563.5,583.5C 563.027,582.094 562.027,581.427 560.5,581.5C 558.692,581.509 557.025,581.009 555.5,580C 550.921,575.926 546.921,571.426 543.5,566.5C 543.715,564.821 543.048,563.821 541.5,563.5C 536.649,560.987 531.649,558.654 526.5,556.5C 523.926,558.634 521.259,558.968 518.5,557.5C 518.027,556.094 517.027,555.427 515.5,555.5C 511.883,552.936 509.216,549.603 507.5,545.5C 507.715,543.821 507.048,542.821 505.5,542.5C 492.395,517.16 485.562,490.16 485,461.5C 484.274,427.762 488.441,394.762 497.5,362.5C 498.924,360.485 499.59,358.152 499.5,355.5C 499.232,353.901 499.566,352.568 500.5,351.5C 501.924,349.485 502.59,347.152 502.5,344.5C 503.636,339.76 504.97,335.093 506.5,330.5C 508.213,329.365 508.88,327.698 508.5,325.5C 517.975,299.579 528.141,273.913 539,248.5C 544.082,236.667 549.915,225.333 556.5,214.5C 557.906,214.027 558.573,213.027 558.5,211.5C 559.906,211.027 560.573,210.027 560.5,208.5C 561.906,208.027 562.573,207.027 562.5,205.5C 563.906,205.027 564.573,204.027 564.5,202.5C 564.833,201.5 565.5,200.833 566.5,200.5C 567.906,200.027 568.573,199.027 568.5,197.5C 569.167,196.167 570.167,195.167 571.5,194.5C 572.906,194.027 573.573,193.027 573.5,191.5C 573.833,190.5 574.5,189.833 575.5,189.5C 578.764,187.906 581.431,185.573 583.5,182.5C 583.5,181.833 583.833,181.5 584.5,181.5C 587.455,179.91 590.122,180.243 592.5,182.5 Z"/></g>
    <g><path style="opacity:0.455" fill="#8c8d8d" d="M 1473.5,177.5 C 1473.5,178.167 1473.83,178.5 1474.5,178.5C 1473.93,179.973 1473.09,181.307 1472,182.5C 1471.4,180.465 1471.9,178.799 1473.5,177.5 Z"/></g>
    <g><path style="opacity:0.408" fill="#a0a0a0" d="M 1062.5,181.5 C 1062.57,183.027 1061.91,184.027 1060.5,184.5C 1060.43,182.973 1061.09,181.973 1062.5,181.5 Z"/></g>
    <g><path style="opacity:0.961" fill="#676868" d="M 1276.5,181.5 C 1277.92,183.515 1278.59,185.848 1278.5,188.5C 1277.08,186.485 1276.41,184.152 1276.5,181.5 Z"/></g>
    <g><path style="opacity:0.902" fill="#5b5b5c" d="M 583.5,182.5 C 581.431,185.573 578.764,187.906 575.5,189.5C 577.569,186.427 580.236,184.094 583.5,182.5 Z"/></g>
    <g><path style="opacity:0.831" fill="#7f7f80" d="M 1676.5,184.5 C 1676.57,186.027 1675.91,187.027 1674.5,187.5C 1674.43,185.973 1675.09,184.973 1676.5,184.5 Z"/></g>
    <g><path style="opacity:0.745" fill="#8b8b8c" d="M 1562.5,185.5 C 1562.03,186.906 1561.03,187.573 1559.5,187.5C 1559.97,186.094 1560.97,185.427 1562.5,185.5 Z"/></g>
    <g><path style="opacity:0.078" fill="#dfdfdf" d="M 1184.5,189.5 C 1184.17,189.5 1183.83,189.5 1183.5,189.5C 1184.12,188.373 1184.96,187.373 1186,186.5C 1186.58,187.998 1186.08,188.998 1184.5,189.5 Z"/></g>
    <g><path style="opacity:0.961" fill="#636465" d="M 713.5,186.5 C 713.59,189.152 712.924,191.485 711.5,193.5C 711.41,190.848 712.076,188.515 713.5,186.5 Z"/></g>
    <g><path style="opacity:0.404" fill="#9b9b9c" d="M 1058.5,188.5 C 1058.57,190.027 1057.91,191.027 1056.5,191.5C 1056.43,189.973 1057.09,188.973 1058.5,188.5 Z"/></g>
    <g><path style="opacity:0.745" fill="#8d8e8e" d="M 1672.5,189.5 C 1672.57,191.027 1671.91,192.027 1670.5,192.5C 1670.5,191.833 1670.5,191.167 1670.5,190.5C 1671.17,190.167 1671.83,189.833 1672.5,189.5 Z"/></g>
    <g><path style="opacity:0.761" fill="#8b8c8c" d="M 573.5,191.5 C 573.573,193.027 572.906,194.027 571.5,194.5C 571.427,192.973 572.094,191.973 573.5,191.5 Z"/></g>
    <g><path style="opacity:0.351" fill="#b0b0b0" d="M 1311.5,191.5 C 1313.12,192.038 1314.78,192.371 1316.5,192.5C 1314.55,193.93 1312.88,193.597 1311.5,191.5 Z"/></g>
    <g><path style="opacity:0.812" fill="#9d9e9e" d="M 1318.5,192.5 C 1321.17,193.167 1322.83,194.833 1323.5,197.5C 1321.5,196.167 1319.83,194.5 1318.5,192.5 Z"/></g>
    <g><path style="opacity:0.745" fill="#8b8b8c" d="M 1552.5,192.5 C 1552.03,193.906 1551.03,194.573 1549.5,194.5C 1549.97,193.094 1550.97,192.427 1552.5,192.5 Z"/></g>
    <g><path style="opacity:0.227" fill="#ababac" d="M 593.5,189.5 C 594.268,190.263 594.768,191.263 595,192.5C 597.041,191.577 599.208,191.244 601.5,191.5C 600.081,192.451 598.415,192.784 596.5,192.5C 596.357,194.262 596.691,195.929 597.5,197.5C 597.154,198.696 596.654,198.696 596,197.5C 594.293,195.091 593.46,192.425 593.5,189.5 Z"/></g>
    <g><path style="opacity:0.259" fill="#bcbcbc" d="M 493.5,198.5 C 493.56,197.957 493.893,197.624 494.5,197.5C 495.773,198.257 495.773,198.923 494.5,199.5C 494.5,198.833 494.167,198.5 493.5,198.5 Z"/></g>
    <g><path style="opacity:0.086" fill="#c4c4c4" d="M 491.5,197.5 C 491.5,198.167 491.833,198.5 492.5,198.5C 492.672,199.492 492.338,200.158 491.5,200.5C 491.5,199.833 491.167,199.5 490.5,199.5C 490.328,198.508 490.662,197.842 491.5,197.5 Z"/></g>
    <g><path style="opacity:0.816" fill="#828283" d="M 568.5,197.5 C 568.573,199.027 567.906,200.027 566.5,200.5C 566.427,198.973 567.094,197.973 568.5,197.5 Z"/></g>
    <g><path style="opacity:0.816" fill="#7a7a7b" d="M 1545.5,197.5 C 1545.03,198.906 1544.03,199.573 1542.5,199.5C 1542.97,198.094 1543.97,197.427 1545.5,197.5 Z"/></g>
    <g><path style="opacity:0.157" fill="#bdbdbd" d="M 490.5,199.5 C 491.167,199.5 491.5,199.833 491.5,200.5C 491.217,201.289 490.717,201.956 490,202.5C 489.26,201.251 489.427,200.251 490.5,199.5 Z"/></g>
    <g><path style="opacity:0.757" fill="#9c9d9d" d="M 611.5,199.5 C 613.914,200.911 615.581,202.911 616.5,205.5C 614.086,204.089 612.419,202.089 611.5,199.5 Z"/></g>
    <g><path style="opacity:0.729" fill="#9a9b9b" d="M 1164.5,200.5 C 1166.5,200.5 1167.5,201.5 1167.5,203.5C 1166.17,202.833 1165.17,201.833 1164.5,200.5 Z"/></g>
    <g><path style="opacity:0.729" fill="#8e8f8f" d="M 1542.5,199.5 C 1542.03,200.906 1541.03,201.573 1539.5,201.5C 1539.97,200.094 1540.97,199.427 1542.5,199.5 Z"/></g>
    <g><path style="opacity:0.004" fill="#cfd0d0" d="M 1664.5,197.5 C 1664.83,197.5 1665.17,197.5 1665.5,197.5C 1664.87,199.997 1663.2,201.33 1660.5,201.5C 1661.31,200.272 1662.31,199.272 1663.5,198.5C 1664.17,198.5 1664.5,198.167 1664.5,197.5 Z"/></g>
    <g><path style="opacity:0.58" fill="#818282" d="M 1155.5,199.5 C 1157.14,199.81 1158.14,200.81 1158.5,202.5C 1156.86,202.19 1155.86,201.19 1155.5,199.5 Z"/></g>
    <g><path style="opacity:0.373" fill="#a1a1a1" d="M 393.5,201.5 C 393.573,203.027 392.906,204.027 391.5,204.5C 391.427,202.973 392.094,201.973 393.5,201.5 Z"/></g>
    <g><path style="opacity:0.537" fill="#909090" d="M 564.5,202.5 C 564.573,204.027 563.906,205.027 562.5,205.5C 562.427,203.973 563.094,202.973 564.5,202.5 Z"/></g>
    <g><path style="opacity:0.945" fill="#6c6d6e" d="M 708.5,202.5 C 708.59,205.152 707.924,207.485 706.5,209.5C 706.41,206.848 707.076,204.515 708.5,202.5 Z"/></g>
    <g><path style="opacity:0.796" fill="#7f7f80" d="M 1535.5,204.5 C 1535.03,205.906 1534.03,206.573 1532.5,206.5C 1532.97,205.094 1533.97,204.427 1535.5,204.5 Z"/></g>
    <g><path style="opacity:0.569" fill="#878788" d="M 562.5,205.5 C 562.573,207.027 561.906,208.027 560.5,208.5C 560.427,206.973 561.094,205.973 562.5,205.5 Z"/></g>
    <g><path style="opacity:0.6" fill="#818282" d="M 560.5,208.5 C 560.573,210.027 559.906,211.027 558.5,211.5C 558.427,209.973 559.094,208.973 560.5,208.5 Z"/></g>
    <g><path style="opacity:0.055" fill="#e7e7e7" d="M 1657.5,206.5 C 1655.43,209.573 1652.76,211.906 1649.5,213.5C 1651.57,210.427 1654.24,208.094 1657.5,206.5 Z"/></g>
    <g><path style="opacity:0.925" fill="#6c6d6d" d="M 1331.5,207.5 C 1332.02,209.219 1333.02,210.552 1334.5,211.5C 1333.83,212.267 1332.99,212.934 1332,213.5C 1331.5,211.527 1331.34,209.527 1331.5,207.5 Z"/></g>
    <g><path style="opacity:0.949" fill="#68696a" d="M 706.5,209.5 C 706.59,212.152 705.924,214.485 704.5,216.5C 704.41,213.848 705.076,211.515 706.5,209.5 Z"/></g>
    <g><path style="opacity:0.784" fill="#828383" d="M 1525.5,211.5 C 1525.03,212.906 1524.03,213.573 1522.5,213.5C 1522.97,212.094 1523.97,211.427 1525.5,211.5 Z"/></g>
    <g><path style="opacity:0.439" fill="#969797" d="M 558.5,211.5 C 558.573,213.027 557.906,214.027 556.5,214.5C 556.427,212.973 557.094,211.973 558.5,211.5 Z"/></g>
    <g><path style="opacity:0.741" fill="#747475" d="M 704.5,216.5 C 704.59,219.152 703.924,221.485 702.5,223.5C 702.41,220.848 703.076,218.515 704.5,216.5 Z"/></g>
    <g><path style="opacity:0.78" fill="#858586" d="M 1501.5,227.5 C 1501.03,228.906 1500.03,229.573 1498.5,229.5C 1498.97,228.094 1499.97,227.427 1501.5,227.5 Z"/></g>
    <g><path style="opacity:0.62" fill="#979798" d="M 1638.5,225.5 C 1638.83,225.5 1639.17,225.5 1639.5,225.5C 1638.24,228.427 1636.24,230.761 1633.5,232.5C 1633.5,231.833 1633.5,231.167 1633.5,230.5C 1634.17,230.5 1634.5,230.167 1634.5,229.5C 1635.17,229.5 1635.5,229.167 1635.5,228.5C 1636.17,228.5 1636.5,228.167 1636.5,227.5C 1637.17,227.5 1637.5,227.167 1637.5,226.5C 1638.17,226.5 1638.5,226.167 1638.5,225.5 Z"/></g>
    <g><path style="opacity:0.784" fill="#848585" d="M 1493.5,232.5 C 1493.03,233.906 1492.03,234.573 1490.5,234.5C 1490.97,233.094 1491.97,232.427 1493.5,232.5 Z"/></g>
    <g><path style="opacity:0.702" fill="#878788" d="M 1625.5,240.5 C 1623.43,243.573 1620.76,245.906 1617.5,247.5C 1619.57,244.427 1622.24,242.094 1625.5,240.5 Z"/></g>
    <g><path style="opacity:0.816" fill="#7e7e7f" d="M 1463.5,250.5 C 1463.03,251.906 1462.03,252.573 1460.5,252.5C 1460.97,251.094 1461.97,250.427 1463.5,250.5 Z"/></g>
    <g><path style="opacity:0.02" fill="#bebebf" d="M 1456.5,252.5 C 1456.84,253.338 1457.51,253.672 1458.5,253.5C 1457.47,254.848 1456.14,255.348 1454.5,255C 1455.07,254.005 1455.73,253.172 1456.5,252.5 Z"/></g>
    <g><path style="opacity:0.765" fill="#868788" d="M 1607.5,255.5 C 1607.03,256.906 1606.03,257.573 1604.5,257.5C 1604.97,256.094 1605.97,255.427 1607.5,255.5 Z"/></g>
    <g><path style="opacity:0.941" fill="#797a7a" d="M 49.5,255.5 C 49.8799,257.698 49.2132,259.365 47.5,260.5C 47.7959,258.597 48.4625,256.93 49.5,255.5 Z"/></g>
    <g><path style="opacity:0.804" fill="#7e7e7e" d="M 1597.5,262.5 C 1597.03,263.906 1596.03,264.573 1594.5,264.5C 1594.97,263.094 1595.97,262.427 1597.5,262.5 Z"/></g>
    <g><path style="opacity:0.914" fill="#818182" d="M 259.5,262.5 C 260.537,263.93 261.204,265.597 261.5,267.5C 259.787,266.365 259.12,264.698 259.5,262.5 Z"/></g>
    <g><path style="opacity:0.765" fill="#868788" d="M 1592.5,264.5 C 1593.17,264.5 1593.83,264.5 1594.5,264.5C 1594.03,265.906 1593.03,266.573 1591.5,266.5C 1591.5,266.167 1591.5,265.833 1591.5,265.5C 1592.17,265.5 1592.5,265.167 1592.5,264.5 Z"/></g>
    <g><path style="opacity:0.047" fill="#c4c4c4" d="M 1590.5,265.5 C 1590.5,266.167 1590.83,266.5 1591.5,266.5C 1590.36,268.088 1589.03,268.421 1587.5,267.5C 1588.36,266.575 1589.36,265.908 1590.5,265.5 Z"/></g>
    <g><path style="opacity:0.933" fill="#7c7c7d" d="M 44.5,269.5 C 44.8799,271.698 44.2132,273.365 42.5,274.5C 42.7959,272.597 43.4625,270.93 44.5,269.5 Z"/></g>
    <g><path style="opacity:0.302" fill="#bcbdbd" d="M 168.5,275.5 C 167.833,274.833 167.167,274.167 166.5,273.5C 166.369,272.761 166.536,272.094 167,271.5C 168.188,272.563 168.688,273.897 168.5,275.5 Z"/></g>
    <g><path style="opacity:0.906" fill="#828283" d="M 1022.5,275.5 C 1022.88,277.698 1022.21,279.365 1020.5,280.5C 1020.8,278.597 1021.46,276.93 1022.5,275.5 Z"/></g>
    <g><path style="opacity:0.976" fill="#5d5d5e" d="M 1020.5,282.5 C 1020.59,285.152 1019.92,287.485 1018.5,289.5C 1018.41,286.848 1019.08,284.515 1020.5,282.5 Z"/></g>
    <g><path style="opacity:0.898" fill="#858686" d="M 37.5,289.5 C 37.8799,291.698 37.2132,293.365 35.5,294.5C 35.7959,292.597 36.4625,290.93 37.5,289.5 Z"/></g>
    <g><path style="opacity:0.965" fill="#636364" d="M 1018.5,289.5 C 1018.59,292.152 1017.92,294.485 1016.5,296.5C 1016.41,293.848 1017.08,291.515 1018.5,289.5 Z"/></g>
    <g><path style="opacity:0.91" fill="#828283" d="M 35.5,295.5 C 35.8799,297.698 35.2132,299.365 33.5,300.5C 33.7959,298.597 34.4625,296.93 35.5,295.5 Z"/></g>
    <g><path style="opacity:0.949" fill="#696a6b" d="M 1016.5,296.5 C 1016.59,299.152 1015.92,301.485 1014.5,303.5C 1014.41,300.848 1015.08,298.515 1016.5,296.5 Z"/></g>
    <g><path style="opacity:0.91" fill="#818182" d="M 271.5,298.5 C 272.537,299.93 273.204,301.597 273.5,303.5C 271.787,302.365 271.12,300.698 271.5,298.5 Z"/></g>
    <g><path style="opacity:0.922" fill="#7e7f80" d="M 33.5,301.5 C 33.8799,303.698 33.2132,305.365 31.5,306.5C 31.7959,304.597 32.4625,302.93 33.5,301.5 Z"/></g>
    <g><path style="opacity:0.933" fill="#7b7b7c" d="M 31.5,307.5 C 31.8799,309.698 31.2132,311.365 29.5,312.5C 29.7959,310.597 30.4625,308.93 31.5,307.5 Z"/></g>
    <g><path style="opacity:0.933" fill="#7c7d7e" d="M 344.5,318.5 C 344.88,320.698 344.213,322.365 342.5,323.5C 342.796,321.597 343.463,319.93 344.5,318.5 Z"/></g>
    <g><path style="opacity:0.902" fill="#767676" d="M 27.5,319.5 C 27.5905,322.152 26.9238,324.485 25.5,326.5C 25.4095,323.848 26.0762,321.515 27.5,319.5 Z"/></g>
    <g><path style="opacity:0.933" fill="#7c7c7d" d="M 142.5,325.5 C 142.88,327.698 142.213,329.365 140.5,330.5C 140.796,328.597 141.463,326.93 142.5,325.5 Z"/></g>
    <g><path style="opacity:0.925" fill="#7f7f80" d="M 508.5,325.5 C 508.88,327.698 508.213,329.365 506.5,330.5C 506.796,328.597 507.463,326.93 508.5,325.5 Z"/></g>
    <g><path style="opacity:0.937" fill="#7b7c7c" d="M 282.5,330.5 C 283.537,331.93 284.204,333.597 284.5,335.5C 282.787,334.365 282.12,332.698 282.5,330.5 Z"/></g>
    <g><path style="opacity:0.914" fill="#818182" d="M 339.5,332.5 C 339.88,334.698 339.213,336.365 337.5,337.5C 337.796,335.597 338.463,333.93 339.5,332.5 Z"/></g>
    <g><path style="opacity:0.937" fill="#7b7b7c" d="M 286.5,341.5 C 287.537,342.93 288.204,344.597 288.5,346.5C 286.787,345.365 286.12,343.698 286.5,341.5 Z"/></g>
    <g><path style="opacity:0.4" fill="#b8b9b9" d="M 440.5,343.5 C 441.72,345.284 441.72,346.95 440.5,348.5C 439.904,346.602 439.904,344.935 440.5,343.5 Z"/></g>
    <g><path style="opacity:0.925" fill="#737474" d="M 502.5,344.5 C 502.59,347.152 501.924,349.485 500.5,351.5C 500.41,348.848 501.076,346.515 502.5,344.5 Z"/></g>
    <g><path style="opacity:0.976" fill="#5e5f60" d="M 19.5,346.5 C 19.5905,349.152 18.9238,351.485 17.5,353.5C 17.4095,350.848 18.0762,348.515 19.5,346.5 Z"/></g>
    <g><path style="opacity:0.8" fill="#585959" d="M 440.5,348.5 C 439.935,350.952 439.268,353.285 438.5,355.5C 437.99,352.612 438.656,350.279 440.5,348.5 Z"/></g>
    <g><path style="opacity:0.941" fill="#6c6d6d" d="M 499.5,355.5 C 499.59,358.152 498.924,360.485 497.5,362.5C 497.41,359.848 498.076,357.515 499.5,355.5 Z"/></g>
    <g><path style="opacity:0.694" fill="#7c7c7d" d="M 17.5,353.5 C 17.5905,356.152 16.9238,358.485 15.5,360.5C 15.4095,357.848 16.0762,355.515 17.5,353.5 Z"/></g>
    <g><path style="opacity:0.388" fill="#9f9f9f" d="M 294.5,362.5 C 295.906,362.973 296.573,363.973 296.5,365.5C 295.094,365.027 294.427,364.027 294.5,362.5 Z"/></g>
    <g><path style="opacity:0.647" fill="#7f7f80" d="M 1308.5,366.5 C 1308.59,369.152 1307.92,371.485 1306.5,373.5C 1306.41,370.848 1307.08,368.515 1308.5,366.5 Z"/></g>
    <g><path style="opacity:0.059" fill="#f2f2f2" d="M 436.5,375.5 C 436.56,374.957 436.893,374.624 437.5,374.5C 438.806,377.98 438.806,381.313 437.5,384.5C 437.81,381.287 437.477,378.287 436.5,375.5 Z"/></g>
    <g><path style="opacity:0.914" fill="#808081" d="M 325.5,374.5 C 325.88,376.698 325.213,378.365 323.5,379.5C 323.796,377.597 324.463,375.93 325.5,374.5 Z"/></g>
    <g><path style="opacity:0.973" fill="#5f6060" d="M 126.5,375.5 C 126.59,378.152 125.924,380.485 124.5,382.5C 124.41,379.848 125.076,377.515 126.5,375.5 Z"/></g>
    <g><path style="opacity:0.918" fill="#808081" d="M 434.5,381.5 C 434.88,383.698 434.213,385.365 432.5,386.5C 432.796,384.597 433.463,382.93 434.5,381.5 Z"/></g>
    <g><path style="opacity:0.961" fill="#656566" d="M 124.5,382.5 C 124.59,385.152 123.924,387.485 122.5,389.5C 122.41,386.848 123.076,384.515 124.5,382.5 Z"/></g>
    <g><path style="opacity:0.937" fill="#79797a" d="M 432.5,387.5 C 432.88,389.698 432.213,391.365 430.5,392.5C 430.796,390.597 431.463,388.93 432.5,387.5 Z"/></g>
    <g><path style="opacity:0.988" fill="#7a7b7b" d="M 1479.5,389.5 C 1481.23,390.026 1482.56,391.026 1483.5,392.5C 1481.37,392.446 1480.03,391.446 1479.5,389.5 Z"/></g>
    <g><path style="opacity:0.988" fill="#7a7a7b" d="M 1483.5,392.5 C 1485.23,393.026 1486.56,394.026 1487.5,395.5C 1485.37,395.446 1484.03,394.446 1483.5,392.5 Z"/></g>
    <g><path style="opacity:0.988" fill="#7a7a7b" d="M 1487.5,395.5 C 1489.23,396.026 1490.56,397.026 1491.5,398.5C 1489.37,398.446 1488.03,397.446 1487.5,395.5 Z"/></g>
    <g><path style="opacity:0.114" fill="#bcbcbc" d="M 1250.5,395.5 C 1250.33,396.492 1250.66,397.158 1251.5,397.5C 1251.5,398.833 1250.83,399.5 1249.5,399.5C 1249.23,397.901 1249.57,396.568 1250.5,395.5 Z"/></g>
    <g><path style="opacity:0.757" fill="#6d6e6e" d="M 121.5,393.5 C 121.59,396.152 120.924,398.485 119.5,400.5C 119.41,397.848 120.076,395.515 121.5,393.5 Z"/></g>
    <g><path style="opacity:0.988" fill="#7a7a7b" d="M 1491.5,398.5 C 1493.23,399.026 1494.56,400.026 1495.5,401.5C 1493.37,401.446 1492.03,400.446 1491.5,398.5 Z"/></g>
    <g><path style="opacity:0.141" fill="#bcbcbc" d="M 1249.5,400.5 C 1249.5,401.167 1249.83,401.5 1250.5,401.5C 1250.67,402.492 1250.34,403.158 1249.5,403.5C 1249.5,402.833 1249.17,402.5 1248.5,402.5C 1248.33,401.508 1248.66,400.842 1249.5,400.5 Z"/></g>
    <g><path style="opacity:0.071" fill="#c6c7c7" d="M 1248.5,403.5 C 1248.5,404.167 1248.83,404.5 1249.5,404.5C 1249.67,405.492 1249.34,406.158 1248.5,406.5C 1248.5,405.833 1248.17,405.5 1247.5,405.5C 1247.33,404.508 1247.66,403.842 1248.5,403.5 Z"/></g>
    <g><path style="opacity:0.933" fill="#6d6e6e" d="M 427.5,403.5 C 427.59,406.152 426.924,408.485 425.5,410.5C 425.41,407.848 426.076,405.515 427.5,403.5 Z"/></g>
    <g><path style="opacity:0.949" fill="#838484" d="M 1534.5,428.5 C 1536.23,429.026 1537.56,430.026 1538.5,431.5C 1536.37,431.446 1535.03,430.446 1534.5,428.5 Z"/></g>
    <g><path style="opacity:0.804" fill="#7b7b7c" d="M 1399.5,427.5 C 1401.09,430.964 1400.59,433.964 1398,436.5C 1397.62,435.944 1397.12,435.611 1396.5,435.5C 1397.75,432.837 1398.75,430.17 1399.5,427.5 Z"/></g>
    <g><path style="opacity:0.945" fill="#7f8081" d="M 1542.5,433.5 C 1543.71,433.932 1544.71,434.599 1545.5,435.5C 1543.82,435.715 1542.82,435.048 1542.5,433.5 Z"/></g>
    <g><path style="opacity:0.922" fill="#7f8080" d="M 1388.5,432.5 C 1388.88,434.698 1388.21,436.365 1386.5,437.5C 1386.8,435.597 1387.46,433.93 1388.5,432.5 Z"/></g>
    <g><path style="opacity:0.451" fill="#989999" d="M 1456.5,437.5 C 1458.03,437.427 1459.03,438.094 1459.5,439.5C 1457.97,439.573 1456.97,438.906 1456.5,437.5 Z"/></g>
    <g><path style="opacity:0.549" fill="#848585" d="M 1461.5,440.5 C 1463.03,440.427 1464.03,441.094 1464.5,442.5C 1462.97,442.573 1461.97,441.906 1461.5,440.5 Z"/></g>
    <g><path style="opacity:0.271" fill="#ababac" d="M 119.5,439.5 C 119.328,440.492 119.662,441.158 120.5,441.5C 120.217,442.289 119.717,442.956 119,443.5C 118.235,441.934 118.402,440.601 119.5,439.5 Z"/></g>
    <g><path style="opacity:0.459" fill="#99999a" d="M 1464.5,442.5 C 1466.03,442.427 1467.03,443.094 1467.5,444.5C 1465.97,444.573 1464.97,443.906 1464.5,442.5 Z"/></g>
    <g><path style="opacity:0.894" fill="#626363" d="M 1765.5,437.5 C 1761.77,442.23 1757.44,446.23 1752.5,449.5C 1756.23,444.77 1760.56,440.77 1765.5,437.5 Z"/></g>
    <g><path style="opacity:0.725" fill="#99999a" d="M 133.5,446.5 C 135.262,447.262 136.262,448.596 136.5,450.5C 134.738,449.738 133.738,448.404 133.5,446.5 Z"/></g>
    <g><path style="opacity:0.957" fill="#7a7b7b" d="M 223.5,448.5 C 225.048,448.821 225.715,449.821 225.5,451.5C 224.599,450.71 223.932,449.71 223.5,448.5 Z"/></g>
    <g><path style="opacity:1" fill="#5d5e5e" d="M 1396.5,438.5 C 1397.14,439.097 1397.47,439.93 1397.5,441C 1396.69,445.776 1395.35,450.276 1393.5,454.5C 1393.77,452.901 1393.43,451.568 1392.5,450.5C 1392.5,449.5 1392.5,448.5 1392.5,447.5C 1393.34,447.158 1393.67,446.492 1393.5,445.5C 1394.4,444.791 1394.74,443.791 1394.5,442.5C 1395.34,442.158 1395.67,441.492 1395.5,440.5C 1396.34,440.158 1396.67,439.492 1396.5,438.5 Z"/></g>
    <g><path style="opacity:0.596" fill="#7e7e7e" d="M 1472.5,447.5 C 1474.03,447.427 1475.03,448.094 1475.5,449.5C 1473.97,449.573 1472.97,448.906 1472.5,447.5 Z"/></g>
    <g><path style="opacity:0.533" fill="#8a8b8b" d="M 1475.5,449.5 C 1477.03,449.427 1478.03,450.094 1478.5,451.5C 1476.97,451.573 1475.97,450.906 1475.5,449.5 Z"/></g>
    <g><path style="opacity:0.345" fill="#999a9a" d="M 1380.5,448.5 C 1380.26,449.791 1380.6,450.791 1381.5,451.5C 1381.54,452.756 1381.04,453.756 1380,454.5C 1379.21,452.288 1379.38,450.288 1380.5,448.5 Z"/></g>
    <g><path style="opacity:0.208" fill="#b6b7b7" d="M 411.5,450.5 C 411.328,451.492 411.662,452.158 412.5,452.5C 412.158,453.338 411.492,453.672 410.5,453.5C 410.263,452.209 410.596,451.209 411.5,450.5 Z"/></g>
    <g><path style="opacity:0.012" fill="#d4d4d5" d="M 1390.5,451.5 C 1390.5,452.167 1390.83,452.5 1391.5,452.5C 1391.67,453.492 1391.34,454.158 1390.5,454.5C 1390.5,453.833 1390.17,453.5 1389.5,453.5C 1389.33,452.508 1389.66,451.842 1390.5,451.5 Z"/></g>
    <g><path style="opacity:0.459" fill="#999999" d="M 1478.5,451.5 C 1480.03,451.427 1481.03,452.094 1481.5,453.5C 1479.97,453.573 1478.97,452.906 1478.5,451.5 Z"/></g>
    <g><path style="opacity:0.71" fill="#818182" d="M 1748.5,452.5 C 1747.74,454.262 1746.4,455.262 1744.5,455.5C 1745.26,453.738 1746.6,452.738 1748.5,452.5 Z"/></g>
    <g><path style="opacity:0.973" fill="#7e7f7f" d="M 227.5,454.5 C 229.446,455.035 230.446,456.368 230.5,458.5C 229.026,457.564 228.026,456.23 227.5,454.5 Z"/></g>
    <g><path style="opacity:0.169" fill="#c2c2c2" d="M 1389.5,453.5 C 1390.17,453.5 1390.5,453.833 1390.5,454.5C 1390.67,455.492 1390.34,456.158 1389.5,456.5C 1389.5,455.833 1389.17,455.5 1388.5,455.5C 1388.33,454.508 1388.66,453.842 1389.5,453.5 Z"/></g>
    <g><path style="opacity:0.412" fill="#919292" d="M 411.5,454.5 C 411.361,456.337 410.694,456.67 409.5,455.5C 409.957,454.702 410.624,454.369 411.5,454.5 Z"/></g>
    <g><path style="opacity:0.612" fill="#7b7c7c" d="M 1486.5,456.5 C 1488.03,456.427 1489.03,457.094 1489.5,458.5C 1487.97,458.573 1486.97,457.906 1486.5,456.5 Z"/></g>
    <g><path style="opacity:0.392" fill="#a1a1a2" d="M 1121.5,457.5 C 1121.57,459.027 1120.91,460.027 1119.5,460.5C 1119.43,458.973 1120.09,457.973 1121.5,457.5 Z"/></g>
    <g><path style="opacity:0.533" fill="#898a8a" d="M 1489.5,458.5 C 1491.03,458.427 1492.03,459.094 1492.5,460.5C 1490.97,460.573 1489.97,459.906 1489.5,458.5 Z"/></g>
    <g><path style="opacity:0.82" fill="#7c7d7e" d="M 1739.5,458.5 C 1739.03,459.906 1738.03,460.573 1736.5,460.5C 1736.97,459.094 1737.97,458.427 1739.5,458.5 Z"/></g>
    <g><path style="opacity:0.176" fill="#9c9c9c" d="M 1388.5,456.5 C 1388.5,457.167 1388.83,457.5 1389.5,457.5C 1389.72,459.681 1388.88,461.347 1387,462.5C 1386.34,460.892 1386.84,459.725 1388.5,459C 1388.27,458.601 1387.94,458.435 1387.5,458.5C 1387.33,457.508 1387.66,456.842 1388.5,456.5 Z"/></g>
    <g><path style="opacity:0.475" fill="#969696" d="M 1492.5,460.5 C 1494.03,460.427 1495.03,461.094 1495.5,462.5C 1493.97,462.573 1492.97,461.906 1492.5,460.5 Z"/></g>
    <g><path style="opacity:0.412" fill="#9e9e9e" d="M 1118.5,462.5 C 1118.57,464.027 1117.91,465.027 1116.5,465.5C 1116.43,463.973 1117.09,462.973 1118.5,462.5 Z"/></g>
    <g><path style="opacity:0.62" fill="#797a7a" d="M 1500.5,465.5 C 1502.03,465.427 1503.03,466.094 1503.5,467.5C 1501.97,467.573 1500.97,466.906 1500.5,465.5 Z"/></g>
    <g><path style="opacity:0.549" fill="#868788" d="M 1503.5,467.5 C 1505.03,467.427 1506.03,468.094 1506.5,469.5C 1504.97,469.573 1503.97,468.906 1503.5,467.5 Z"/></g>
    <g><path style="opacity:0.945" fill="#5d5e5f" d="M 1788.5,465.5 C 1789.17,465.833 1789.83,466.167 1790.5,466.5C 1790.5,468.833 1790.5,471.167 1790.5,473.5C 1790.17,473.5 1789.83,473.5 1789.5,473.5C 1789.6,470.763 1789.27,468.096 1788.5,465.5 Z"/></g>
    <g><path style="opacity:0.427" fill="#9a9b9b" d="M 1115.5,467.5 C 1115.57,469.027 1114.91,470.027 1113.5,470.5C 1113.43,468.973 1114.09,467.973 1115.5,467.5 Z"/></g>
    <g><path style="opacity:0.49" fill="#939494" d="M 1506.5,469.5 C 1508.03,469.427 1509.03,470.094 1509.5,471.5C 1507.97,471.573 1506.97,470.906 1506.5,469.5 Z"/></g>
    <g><path style="opacity:0.412" fill="#a1a2a2" d="M 1509.5,471.5 C 1511.03,471.427 1512.03,472.094 1512.5,473.5C 1510.97,473.573 1509.97,472.906 1509.5,471.5 Z"/></g>
    <g><path style="opacity:0.4" fill="#9b9c9c" d="M 807.5,471.5 C 807.573,473.027 806.906,474.027 805.5,474.5C 805.427,472.973 806.094,471.973 807.5,471.5 Z"/></g>
    <g><path style="opacity:0.443" fill="#989898" d="M 1112.5,472.5 C 1112.57,474.027 1111.91,475.027 1110.5,475.5C 1110.43,473.973 1111.09,472.973 1112.5,472.5 Z"/></g>
    <g><path style="opacity:0.565" fill="#848485" d="M 1517.5,476.5 C 1519.03,476.427 1520.03,477.094 1520.5,478.5C 1518.97,478.573 1517.97,477.906 1517.5,476.5 Z"/></g>
    <g><path style="opacity:0.498" fill="#919292" d="M 1520.5,478.5 C 1522.03,478.427 1523.03,479.094 1523.5,480.5C 1521.97,480.573 1520.97,479.906 1520.5,478.5 Z"/></g>
    <g><path style="opacity:0.443" fill="#989899" d="M 803.5,478.5 C 803.573,480.027 802.906,481.027 801.5,481.5C 801.427,479.973 802.094,478.973 803.5,478.5 Z"/></g>
    <g><path style="opacity:0.427" fill="#9e9f9f" d="M 1523.5,480.5 C 1525.03,480.427 1526.03,481.094 1526.5,482.5C 1524.97,482.573 1523.97,481.906 1523.5,480.5 Z"/></g>
    <g><path style="opacity:0.486" fill="#909091" d="M 800.5,483.5 C 800.573,485.027 799.906,486.027 798.5,486.5C 798.427,484.973 799.094,483.973 800.5,483.5 Z"/></g>
    <g><path style="opacity:0.549" fill="#858586" d="M 1531.5,485.5 C 1533.03,485.427 1534.03,486.094 1534.5,487.5C 1532.97,487.573 1531.97,486.906 1531.5,485.5 Z"/></g>
    <g><path style="opacity:0.733" fill="#939494" d="M 1102.5,487.5 C 1102.57,489.027 1101.91,490.027 1100.5,490.5C 1100.43,488.973 1101.09,487.973 1102.5,487.5 Z"/></g>
    <g><path style="opacity:0.404" fill="#a0a1a1" d="M 1534.5,487.5 C 1536.03,487.427 1537.03,488.094 1537.5,489.5C 1535.97,489.573 1534.97,488.906 1534.5,487.5 Z"/></g>
    <g><path style="opacity:0.502" fill="#8e8e8f" d="M 1539.5,490.5 C 1541.03,490.427 1542.03,491.094 1542.5,492.5C 1540.97,492.573 1539.97,491.906 1539.5,490.5 Z"/></g>
    <g><path style="opacity:0.737" fill="#7b7c7d" d="M 1098.5,492.5 C 1096.83,496.167 1094.17,498.833 1090.5,500.5C 1092.83,497.5 1095.5,494.833 1098.5,492.5 Z"/></g>
    <g><path style="opacity:0.459" fill="#969797" d="M 1547.5,495.5 C 1549.03,495.427 1550.03,496.094 1550.5,497.5C 1548.97,497.573 1547.97,496.906 1547.5,495.5 Z"/></g>
    <g><path style="opacity:0.612" fill="#7c7d7d" d="M 792.5,496.5 C 792.573,498.027 791.906,499.027 790.5,499.5C 790.427,497.973 791.094,496.973 792.5,496.5 Z"/></g>
    <g><path style="opacity:0.557" fill="#838484" d="M 1552.5,498.5 C 1554.03,498.427 1555.03,499.094 1555.5,500.5C 1553.97,500.573 1552.97,499.906 1552.5,498.5 Z"/></g>
    <g><path style="opacity:0.58" fill="#828283" d="M 790.5,499.5 C 790.573,501.027 789.906,502.027 788.5,502.5C 788.427,500.973 789.094,499.973 790.5,499.5 Z"/></g>
    <g><path style="opacity:0.776" fill="#858586" d="M 1090.5,500.5 C 1090.03,501.906 1089.03,502.573 1087.5,502.5C 1087.97,501.094 1088.97,500.427 1090.5,500.5 Z"/></g>
    <g><path style="opacity:0.765" fill="#878788" d="M 1087.5,502.5 C 1087.03,503.906 1086.03,504.573 1084.5,504.5C 1084.97,503.094 1085.97,502.427 1087.5,502.5 Z"/></g>
    <g><path style="opacity:0.392" fill="#a1a1a2" d="M 1205.5,501.5 C 1205.57,503.027 1204.91,504.027 1203.5,504.5C 1203.43,502.973 1204.09,501.973 1205.5,501.5 Z"/></g>
    <g><path style="opacity:0.545" fill="#89898a" d="M 788.5,502.5 C 788.573,504.027 787.906,505.027 786.5,505.5C 786.427,503.973 787.094,502.973 788.5,502.5 Z"/></g>
    <g><path style="opacity:0.396" fill="#9e9e9f" d="M 1562.5,504.5 C 1564.03,504.427 1565.03,505.094 1565.5,506.5C 1563.97,506.573 1562.97,505.906 1562.5,504.5 Z"/></g>
    <g><path style="opacity:0.961" fill="#7a7a7b" d="M 694.5,507.5 C 696.048,507.821 696.715,508.821 696.5,510.5C 695.599,509.71 694.932,508.71 694.5,507.5 Z"/></g>
    <g><path style="opacity:0.627" fill="#7f8080" d="M 786.5,505.5 C 786.573,507.027 785.906,508.027 784.5,508.5C 784.427,506.973 785.094,505.973 786.5,505.5 Z"/></g>
    <g><path style="opacity:0.753" fill="#8a8a8b" d="M 1079.5,507.5 C 1079.03,508.906 1078.03,509.573 1076.5,509.5C 1076.97,508.094 1077.97,507.427 1079.5,507.5 Z"/></g>
    <g><path style="opacity:0.416" fill="#9d9e9e" d="M 1202.5,506.5 C 1202.57,508.027 1201.91,509.027 1200.5,509.5C 1200.43,507.973 1201.09,506.973 1202.5,506.5 Z"/></g>
    <g><path style="opacity:0.427" fill="#989899" d="M 1569.5,508.5 C 1571.03,508.427 1572.03,509.094 1572.5,510.5C 1570.97,510.573 1569.97,509.906 1569.5,508.5 Z"/></g>
    <g><path style="opacity:0.702" fill="#979898" d="M 782.5,510.5 C 782.573,512.027 781.906,513.027 780.5,513.5C 780.427,511.973 781.094,510.973 782.5,510.5 Z"/></g>
    <g><path style="opacity:0.439" fill="#989999" d="M 1199.5,511.5 C 1199.57,513.027 1198.91,514.027 1197.5,514.5C 1197.43,512.973 1198.09,511.973 1199.5,511.5 Z"/></g>
    <g><path style="opacity:0.945" fill="#7f8080" d="M 1015.5,514.5 C 1017.05,514.821 1017.71,515.821 1017.5,517.5C 1016.6,516.71 1015.93,515.71 1015.5,514.5 Z"/></g>
    <g><path style="opacity:0.004" fill="#b9b9b9" d="M 274.5,516.5 C 275.5,516.833 276.167,517.5 276.5,518.5C 275.167,518.5 274.5,517.833 274.5,516.5 Z"/></g>
    <g><path style="opacity:0.988" fill="#7a7b7b" d="M 701.5,517.5 C 703.446,518.035 704.446,519.368 704.5,521.5C 703.026,520.564 702.026,519.23 701.5,517.5 Z"/></g>
    <g><path style="opacity:0.529" fill="#8a8a8b" d="M 1196.5,516.5 C 1196.57,518.027 1195.91,519.027 1194.5,519.5C 1194.43,517.973 1195.09,516.973 1196.5,516.5 Z"/></g>
    <g><path style="opacity:0.976" fill="#808081" d="M 1019.5,520.5 C 1021.45,521.035 1022.45,522.368 1022.5,524.5C 1021.03,523.564 1020.03,522.23 1019.5,520.5 Z"/></g>
    <g><path style="opacity:0.502" fill="#8f9090" d="M 278.5,520.5 C 280.027,520.427 281.027,521.094 281.5,522.5C 279.973,522.573 278.973,521.906 278.5,520.5 Z"/></g>
    <g><path style="opacity:0.443" fill="#9b9b9c" d="M 1194.5,519.5 C 1194.57,521.027 1193.91,522.027 1192.5,522.5C 1192.43,520.973 1193.09,519.973 1194.5,519.5 Z"/></g>
    <g><path style="opacity:0.945" fill="#838384" d="M 1304.5,523.5 C 1306.45,524.035 1307.45,525.368 1307.5,527.5C 1306.03,526.564 1305.03,525.23 1304.5,523.5 Z"/></g>
    <g><path style="opacity:0.667" fill="#a2a2a2" d="M 711.5,529.5 C 713.404,529.738 714.738,530.738 715.5,532.5C 713.596,532.262 712.262,531.262 711.5,529.5 Z"/></g>
    <g><path style="opacity:0.537" fill="#89898a" d="M 1189.5,527.5 C 1189.57,529.027 1188.91,530.027 1187.5,530.5C 1187.43,528.973 1188.09,527.973 1189.5,527.5 Z"/></g>
    <g><path style="opacity:0.486" fill="#969697" d="M 1187.5,530.5 C 1187.57,532.027 1186.91,533.027 1185.5,533.5C 1185.43,531.973 1186.09,530.973 1187.5,530.5 Z"/></g>
    <g><path style="opacity:0.988" fill="#7b7c7c" d="M 15.5,534.5 C 17.4456,535.035 18.4456,536.368 18.5,538.5C 17.0256,537.564 16.0256,536.23 15.5,534.5 Z"/></g>
    <g><path style="opacity:0.506" fill="#929393" d="M 1185.5,533.5 C 1185.57,535.027 1184.91,536.027 1183.5,536.5C 1183.43,534.973 1184.09,533.973 1185.5,533.5 Z"/></g>
    <g><path style="opacity:0.753" fill="#8e8f8f" d="M 721.5,538.5 C 723.027,538.427 724.027,539.094 724.5,540.5C 722.973,540.573 721.973,539.906 721.5,538.5 Z"/></g>
    <g><path style="opacity:0.529" fill="#8e8f8f" d="M 1183.5,536.5 C 1183.57,538.027 1182.91,539.027 1181.5,539.5C 1181.43,537.973 1182.09,536.973 1183.5,536.5 Z"/></g>
    <g><path style="opacity:0.553" fill="#898a8b" d="M 1181.5,539.5 C 1181.57,541.027 1180.91,542.027 1179.5,542.5C 1179.43,540.973 1180.09,539.973 1181.5,539.5 Z"/></g>
    <g><path style="opacity:0.922" fill="#858687" d="M 505.5,542.5 C 507.048,542.821 507.715,543.821 507.5,545.5C 506.599,544.71 505.932,543.71 505.5,542.5 Z"/></g>
    <g><path style="opacity:0.863" fill="#797a7a" d="M 726.5,542.5 C 728.027,542.427 729.027,543.094 729.5,544.5C 727.973,544.573 726.973,543.906 726.5,542.5 Z"/></g>
    <g><path style="opacity:0.408" fill="#a1a2a2" d="M 1047.5,545.5 C 1046.83,545.5 1046.5,545.833 1046.5,546.5C 1045.37,545.878 1044.37,545.045 1043.5,544C 1045.14,543.652 1046.47,544.152 1047.5,545.5 Z"/></g>
    <g><path style="opacity:0.588" fill="#848485" d="M 1179.5,542.5 C 1179.57,544.027 1178.91,545.027 1177.5,545.5C 1177.43,543.973 1178.09,542.973 1179.5,542.5 Z"/></g>
    <g><path style="opacity:0.835" fill="#878788" d="M 26.5,546.5 C 28.4044,546.738 29.7377,547.738 30.5,549.5C 28.5956,549.262 27.2623,548.262 26.5,546.5 Z"/></g>
    <g><path style="opacity:0.016" fill="#dcdcdc" d="M 1047.5,545.5 C 1048.49,545.328 1049.16,545.662 1049.5,546.5C 1048.83,546.5 1048.5,546.833 1048.5,547.5C 1047.66,547.158 1047.33,546.492 1047.5,545.5 Z"/></g>
    <g><path style="opacity:0.918" fill="#7c7d7d" d="M 733.5,547.5 C 735.404,547.738 736.738,548.738 737.5,550.5C 735.596,550.262 734.262,549.262 733.5,547.5 Z"/></g>
    <g><path style="opacity:0.831" fill="#7d7e7e" d="M 319.5,549.5 C 321.027,549.427 322.027,550.094 322.5,551.5C 320.973,551.573 319.973,550.906 319.5,549.5 Z"/></g>
    <g><path style="opacity:0.557" fill="#8f8f90" d="M 1043.5,550.5 C 1045.03,550.427 1046.03,551.094 1046.5,552.5C 1044.97,552.573 1043.97,551.906 1043.5,550.5 Z"/></g>
    <g><path style="opacity:0.275" fill="#b7b7b7" d="M 1049.5,547.5 C 1049.5,547.167 1049.5,546.833 1049.5,546.5C 1052.56,547.268 1054.23,549.268 1054.5,552.5C 1053.27,551.694 1052.27,550.694 1051.5,549.5C 1051.5,548.833 1051.17,548.5 1050.5,548.5C 1050.5,547.833 1050.17,547.5 1049.5,547.5 Z"/></g>
    <g><path style="opacity:0.357" fill="#a6a6a6" d="M 33.5,551.5 C 35.0269,551.427 36.0269,552.094 36.5,553.5C 34.9731,553.573 33.9731,552.906 33.5,551.5 Z"/></g>
    <g><path style="opacity:0.737" fill="#7a7a7b" d="M 322.5,551.5 C 324.404,551.738 325.738,552.738 326.5,554.5C 324.596,554.262 323.262,553.262 322.5,551.5 Z"/></g>
    <g><path style="opacity:0.914" fill="#828383" d="M 48.5,555.5 C 51.0101,555.054 53.0101,555.72 54.5,557.5C 52.3024,557.125 50.3024,556.458 48.5,555.5 Z"/></g>
    <g><path style="opacity:0.969" fill="#6f6f70" d="M 746.5,555.5 C 749.152,555.41 751.485,556.076 753.5,557.5C 750.848,557.59 748.515,556.924 746.5,555.5 Z"/></g>
    <g><path style="opacity:0.427" fill="#989999" d="M 328.5,555.5 C 330.027,555.427 331.027,556.094 331.5,557.5C 329.973,557.573 328.973,556.906 328.5,555.5 Z"/></g>
    <g><path style="opacity:0.482" fill="#9a9a9a" d="M 515.5,555.5 C 517.027,555.427 518.027,556.094 518.5,557.5C 516.973,557.573 515.973,556.906 515.5,555.5 Z"/></g>
    <g><path style="opacity:0.831" fill="#7d7e7e" d="M 764.5,562.5 C 766.027,562.427 767.027,563.094 767.5,564.5C 765.973,564.573 764.973,563.906 764.5,562.5 Z"/></g>
    <g><path style="opacity:0.886" fill="#8d8d8d" d="M 541.5,563.5 C 543.048,563.821 543.715,564.821 543.5,566.5C 542.599,565.71 541.932,564.71 541.5,563.5 Z"/></g>
    <g><path style="opacity:0.216" fill="#c6c7c7" d="M 87.5,565.5 C 87.8293,571.537 87.4959,577.537 86.5,583.5C 85.4777,583.145 84.811,582.478 84.5,581.5C 86.1437,576.41 87.1437,571.077 87.5,565.5 Z"/></g>
    <g><path style="opacity:0.992" fill="#4b4c4c" d="M 1169.5,556.5 C 1169.5,557.833 1170.17,558.5 1171.5,558.5C 1167.83,562.833 1163.83,566.833 1159.5,570.5C 1158.66,570.158 1158.33,569.492 1158.5,568.5C 1162.18,564.459 1165.84,560.459 1169.5,556.5 Z"/></g>
    <g><path style="opacity:0.106" fill="#cacaca" d="M 1083.5,568.5 C 1082.83,568.5 1082.5,568.833 1082.5,569.5C 1081.73,568.828 1081.07,567.995 1080.5,567C 1082,566.415 1083,566.915 1083.5,568.5 Z"/></g>
    <g><path style="opacity:0.675" fill="#9e9e9e" d="M 1078.5,570.5 C 1080.03,570.427 1081.03,571.094 1081.5,572.5C 1079.97,572.573 1078.97,571.906 1078.5,570.5 Z"/></g>
    <g><path style="opacity:0.557" fill="#a5a5a6" d="M 1158.5,568.5 C 1158.33,569.492 1158.66,570.158 1159.5,570.5C 1158.69,571.837 1157.52,572.837 1156,573.5C 1156.1,571.541 1156.93,569.875 1158.5,568.5 Z"/></g>
    <g><path style="opacity:0.678" fill="#828283" d="M 71.5,571.5 C 71.5,572.5 71.5,573.5 71.5,574.5C 70.209,574.737 69.209,574.404 68.5,573.5C 69.7777,573.218 70.7777,572.551 71.5,571.5 Z"/></g>
    <g><path style="opacity:0.533" fill="#959696" d="M 1083.5,574.5 C 1085.03,574.427 1086.03,575.094 1086.5,576.5C 1084.97,576.573 1083.97,575.906 1083.5,574.5 Z"/></g>
    <g><path style="opacity:0.208" fill="#babbbb" d="M 794.5,578.5 C 796.027,578.427 797.027,579.094 797.5,580.5C 795.973,580.573 794.973,579.906 794.5,578.5 Z"/></g>
    <g><path style="opacity:0.518" fill="#919192" d="M 1090.5,579.5 C 1092.03,579.427 1093.03,580.094 1093.5,581.5C 1091.97,581.573 1090.97,580.906 1090.5,579.5 Z"/></g>
    <g><path style="opacity:0.69" fill="#99999a" d="M 560.5,581.5 C 562.027,581.427 563.027,582.094 563.5,583.5C 561.973,583.573 560.973,582.906 560.5,581.5 Z"/></g>
</svg>
