<svg xmlns="http://www.w3.org/2000/svg" xmlns:xlink="http://www.w3.org/1999/xlink" viewBox="0 0 500 500" width="500" height="500" style="width: 100%; height: 100%; transform: translate3d(0px, 0px, 0px);" preserveAspectRatio="xMidYMid meet"><defs><clipPath id="__lottie_element_2855"><rect width="500" height="500" x="0" y="0"></rect></clipPath><linearGradient id="__lottie_element_2860" spreadMethod="pad" gradientUnits="userSpaceOnUse" x1="0.9020000100135803" y1="134.14599609375" x2="0.9020000100135803" y2="-62.112998962402344"><stop offset="0%" stop-color="rgb(255,255,255)"></stop><stop offset="39%" stop-color="rgb(247,247,247)"></stop><stop offset="100%" stop-color="rgb(239,239,239)"></stop></linearGradient><linearGradient id="__lottie_element_2861" spreadMethod="pad" gradientUnits="userSpaceOnUse" x1="0.9020000100135803" y1="-100.85399627685547" x2="0.9020000100135803" y2="118.20700073242188"><stop offset="0%" stop-color="rgb(255,255,255)"></stop><stop offset="39%" stop-color="rgb(244,244,244)"></stop><stop offset="100%" stop-color="rgb(232,232,232)"></stop></linearGradient><filter id="__lottie_element_2863" x="-100%" y="-100%" width="300%" height="300%"><feGaussianBlur result="filter_result_0" stdDeviation="12 12" edgeMode="duplicate"></feGaussianBlur></filter><linearGradient id="__lottie_element_2864" spreadMethod="pad" gradientUnits="userSpaceOnUse" x1="-83.0979995727539" y1="29.145999908447266" x2="135.46200561523438" y2="29.145999908447266"><stop offset="0%" stop-color="rgb(6,139,198)"></stop><stop offset="50%" stop-color="rgb(12,154,216)"></stop><stop offset="100%" stop-color="rgb(19,168,234)"></stop></linearGradient><linearGradient id="__lottie_element_2869" spreadMethod="pad" gradientUnits="userSpaceOnUse" x1="0.9020000100135803" y1="84.14600372314453" x2="0.9020000100135803" y2="-85.91600036621094"><stop offset="0%" stop-color="rgb(6,139,198)"></stop><stop offset="50%" stop-color="rgb(12,154,216)"></stop><stop offset="100%" stop-color="rgb(19,168,234)"></stop></linearGradient><filter id="__lottie_element_2871" x="-100%" y="-100%" width="300%" height="300%"><feGaussianBlur result="filter_result_0" stdDeviation="18 18" edgeMode="duplicate"></feGaussianBlur></filter><linearGradient id="__lottie_element_2872" spreadMethod="pad" gradientUnits="userSpaceOnUse" x1="0.9020000100135803" y1="84.14600372314453" x2="0.9020000100135803" y2="-85.91600036621094"><stop offset="0%" stop-color="rgb(6,139,198)"></stop><stop offset="50%" stop-color="rgb(12,154,216)"></stop><stop offset="100%" stop-color="rgb(19,168,234)"></stop></linearGradient><g id="__lottie_element_2876"><g style="display: none;" transform="matrix(0.9986574053764343,-0.051801647990942,0.051801647990942,0.9986574053764343,243.68722534179688,243.81671142578125)" opacity="1"><g opacity="1" transform="matrix(1,0,0,1,0,0)"><path fill="url(#__lottie_element_2879)" fill-opacity="1" d=" M-0.06300000101327896,85.03099822998047 C-47.02899932861328,85.00299835205078 -85.09700012207031,46.85499954223633 -85.01599884033203,-0.1679999977350235 C-84.93499755859375,-47.3849983215332 -46.632999420166016,-85.20700073242188 0.10999999940395355,-85.02999877929688 C23.507999420166016,-84.94100189208984 43.680999755859375,-76.58699798583984 60.19200134277344,-60.034000396728516 C76.69200134277344,-43.492000579833984 84.98699951171875,-23.30500030517578 85.01599884033203,0.07500000298023224 C85.072998046875,47.0359992980957 46.9109992980957,85.05899810791016 -0.06300000101327896,85.03099822998047z"></path></g></g></g><linearGradient id="__lottie_element_2879" spreadMethod="pad" gradientUnits="userSpaceOnUse" x1="0.9020000100135803" y1="84.14600372314453" x2="0.9020000100135803" y2="-85.91600036621094"><stop offset="0%" stop-color="rgb(6,139,198)"></stop><stop offset="50%" stop-color="rgb(12,154,216)"></stop><stop offset="100%" stop-color="rgb(19,168,234)"></stop></linearGradient><mask id="__lottie_element_2876_1" mask-type="alpha"><use xlink:href="#__lottie_element_2876"></use></mask><g id="__lottie_element_2881"><g style="display: block;" transform="matrix(0.9999999403953552,0.000283088069409132,-0.000283088069409132,0.9999999403953552,250.03359985351562,250.03466796875)" opacity="1"><g opacity="1" transform="matrix(1,0,0,1,0,0)"><path fill="url(#__lottie_element_2884)" fill-opacity="1" d=" M-0.06300000101327896,85.03099822998047 C-47.02899932861328,85.00299835205078 -85.09700012207031,46.85499954223633 -85.01599884033203,-0.1679999977350235 C-84.93499755859375,-47.3849983215332 -46.632999420166016,-85.20700073242188 0.10999999940395355,-85.02999877929688 C23.507999420166016,-84.94100189208984 43.680999755859375,-76.58699798583984 60.19200134277344,-60.034000396728516 C76.69200134277344,-43.492000579833984 84.98699951171875,-23.30500030517578 85.01599884033203,0.07500000298023224 C85.072998046875,47.0359992980957 46.9109992980957,85.05899810791016 -0.06300000101327896,85.03099822998047z"></path></g></g></g><linearGradient id="__lottie_element_2884" spreadMethod="pad" gradientUnits="userSpaceOnUse" x1="0.9020000100135803" y1="84.14600372314453" x2="0.9020000100135803" y2="-85.91600036621094"><stop offset="0%" stop-color="rgb(6,139,198)"></stop><stop offset="50%" stop-color="rgb(12,154,216)"></stop><stop offset="100%" stop-color="rgb(19,168,234)"></stop></linearGradient><mask id="__lottie_element_2881_1" mask-type="alpha"><use xlink:href="#__lottie_element_2881"></use></mask></defs><g clip-path="url(#__lottie_element_2855)"><g filter="url(#__lottie_element_2863)" style="display: block;" transform="matrix(0.9999999403953552,0.000283088069409132,-0.000283088069409132,0.9999999403953552,250.03359985351562,250.03466796875)" opacity="0.6"><g opacity="1" transform="matrix(1,0,0,1,0,0)"><path fill="url(#__lottie_element_2864)" fill-opacity="1" d=" M-43.46200180053711,-95.93399810791016 C-43.46200180053711,-95.93399810791016 -72.03900146484375,-93.83999633789062 -72.03900146484375,-93.83999633789062 C-99.76300048828125,-91.80899810791016 -121.80899810791016,-69.76300048828125 -123.83999633789062,-42.03900146484375 C-123.83999633789062,-42.03900146484375 -125.93399810791016,-13.461999893188477 -125.93399810791016,-13.461999893188477 C-128.0540008544922,15.473999977111816 -128.0540008544922,44.5260009765625 -125.93399810791016,73.46199798583984 C-125.93399810791016,73.46199798583984 -123.83999633789062,102.03900146484375 -123.83999633789062,102.03900146484375 C-121.80899810791016,129.76300048828125 -99.76300048828125,151.8090057373047 -72.03900146484375,153.83999633789062 C-72.03900146484375,153.83999633789062 -43.46200180053711,155.9340057373047 -43.46200180053711,155.9340057373047 C-14.526000022888184,158.0540008544922 14.526000022888184,158.0540008544922 43.46200180053711,155.9340057373047 C43.46200180053711,155.9340057373047 72.03900146484375,153.83999633789062 72.03900146484375,153.83999633789062 C99.76300048828125,151.8090057373047 121.80899810791016,129.76300048828125 123.83999633789062,102.03900146484375 C123.83999633789062,102.03900146484375 125.93399810791016,73.46199798583984 125.93399810791016,73.46199798583984 C128.0540008544922,44.5260009765625 128.0540008544922,15.473999977111816 125.93399810791016,-13.461999893188477 C125.93399810791016,-13.461999893188477 123.83999633789062,-42.03900146484375 123.83999633789062,-42.03900146484375 C121.80899810791016,-69.76300048828125 99.76300048828125,-91.80899810791016 72.03900146484375,-93.83999633789062 C72.03900146484375,-93.83999633789062 43.46200180053711,-95.93399810791016 43.46200180053711,-95.93399810791016 C14.526000022888184,-98.05400085449219 -14.526000022888184,-98.05400085449219 -43.46200180053711,-95.93399810791016z"></path></g></g><g style="display: block;" transform="matrix(0.9999999403953552,0.000283088069409132,-0.000283088069409132,0.9999999403953552,250.03359985351562,250.03466796875)" opacity="1"><g opacity="1" transform="matrix(1,0,0,1,0,0)"><path fill="url(#__lottie_element_2860)" fill-opacity="1" d=" M-49.3120002746582,-142.88699340820312 C-49.3120002746582,-142.88699340820312 -81.73799896240234,-140.51199340820312 -81.73799896240234,-140.51199340820312 C-113.19400024414062,-138.20799255371094 -138.20799255371094,-113.19400024414062 -140.51199340820312,-81.73799896240234 C-140.51199340820312,-81.73799896240234 -142.88699340820312,-49.3120002746582 -142.88699340820312,-49.3120002746582 C-145.29200744628906,-16.481000900268555 -145.29200744628906,16.481000900268555 -142.88699340820312,49.3120002746582 C-142.88699340820312,49.3120002746582 -140.51199340820312,81.73799896240234 -140.51199340820312,81.73799896240234 C-138.20799255371094,113.19400024414062 -113.19400024414062,138.20799255371094 -81.73799896240234,140.51199340820312 C-81.73799896240234,140.51199340820312 -49.3120002746582,142.88699340820312 -49.3120002746582,142.88699340820312 C-16.481000900268555,145.29200744628906 16.481000900268555,145.29200744628906 49.3120002746582,142.88699340820312 C49.3120002746582,142.88699340820312 81.73799896240234,140.51199340820312 81.73799896240234,140.51199340820312 C113.19400024414062,138.20799255371094 138.20799255371094,113.19400024414062 140.51199340820312,81.73799896240234 C140.51199340820312,81.73799896240234 142.88699340820312,49.3120002746582 142.88699340820312,49.3120002746582 C145.29200744628906,16.481000900268555 145.29200744628906,-16.481000900268555 142.88699340820312,-49.3120002746582 C142.88699340820312,-49.3120002746582 140.51199340820312,-81.73799896240234 140.51199340820312,-81.73799896240234 C138.20799255371094,-113.19400024414062 113.19400024414062,-138.20799255371094 81.73799896240234,-140.51199340820312 C81.73799896240234,-140.51199340820312 49.3120002746582,-142.88699340820312 49.3120002746582,-142.88699340820312 C16.481000900268555,-145.29200744628906 -16.481000900268555,-145.29200744628906 -49.3120002746582,-142.88699340820312z"></path></g><g opacity="1" transform="matrix(1,0,0,1,0,0)"><path fill="url(#__lottie_element_2861)" fill-opacity="1" d=" M0,-140.6909942626953 C16.28499984741211,-140.6909942626953 32.77799987792969,-140.08799743652344 49.02000045776367,-138.8979949951172 C49.02000045776367,-138.8979949951172 81.44499969482422,-136.5229949951172 81.44499969482422,-136.5229949951172 C95.7020034790039,-135.47900390625 109.12000274658203,-129.33599853515625 119.22799682617188,-119.22799682617188 C129.33599853515625,-109.12000274658203 135.47900390625,-95.7020034790039 136.5229949951172,-81.44499969482422 C136.5229949951172,-81.44499969482422 138.8979949951172,-49.02000045776367 138.8979949951172,-49.02000045776367 C141.281005859375,-16.493000030517578 141.281005859375,16.493000030517578 138.8979949951172,49.02000045776367 C138.8979949951172,49.02000045776367 136.5229949951172,81.44499969482422 136.5229949951172,81.44499969482422 C135.47900390625,95.7020034790039 129.33599853515625,109.12000274658203 119.22799682617188,119.22799682617188 C109.12000274658203,129.33599853515625 95.7020034790039,135.47900390625 81.44499969482422,136.5229949951172 C81.44499969482422,136.5229949951172 49.02000045776367,138.8979949951172 49.02000045776367,138.8979949951172 C32.77799987792969,140.08799743652344 16.285999298095703,140.6909942626953 0,140.6909942626953 C-16.285999298095703,140.6909942626953 -32.77799987792969,140.08799743652344 -49.02000045776367,138.8979949951172 C-49.02000045776367,138.8979949951172 -81.44499969482422,136.5229949951172 -81.44499969482422,136.5229949951172 C-95.7020034790039,135.47900390625 -109.12000274658203,129.33599853515625 -119.22799682617188,119.22799682617188 C-129.33599853515625,109.12000274658203 -135.47900390625,95.7020034790039 -136.5229949951172,81.44499969482422 C-136.5229949951172,81.44499969482422 -138.8979949951172,49.02000045776367 -138.8979949951172,49.02000045776367 C-141.27999877929688,16.493000030517578 -141.27999877929688,-16.493000030517578 -138.8979949951172,-49.02000045776367 C-138.8979949951172,-49.02000045776367 -136.5229949951172,-81.44499969482422 -136.5229949951172,-81.44499969482422 C-135.47900390625,-95.7020034790039 -129.33599853515625,-109.12000274658203 -119.22799682617188,-119.22799682617188 C-109.12000274658203,-129.33599853515625 -95.7020034790039,-135.47900390625 -81.44499969482422,-136.5229949951172 C-81.44499969482422,-136.5229949951172 -49.02000045776367,-138.8979949951172 -49.02000045776367,-138.8979949951172 C-32.77799987792969,-140.08799743652344 -16.28499984741211,-140.6909942626953 0,-140.6909942626953 M0,-144.6909942626953 C-16.448999404907227,-144.6909942626953 -32.895999908447266,-144.08999633789062 -49.3120002746582,-142.88699340820312 C-49.3120002746582,-142.88699340820312 -81.73799896240234,-140.51199340820312 -81.73799896240234,-140.51199340820312 C-113.19400024414062,-138.20700073242188 -138.20700073242188,-113.19400024414062 -140.51199340820312,-81.73799896240234 C-140.51199340820312,-81.73799896240234 -142.88800048828125,-49.3120002746582 -142.88800048828125,-49.3120002746582 C-145.29299926757812,-16.481000900268555 -145.29299926757812,16.481000900268555 -142.88800048828125,49.3120002746582 C-142.88800048828125,49.3120002746582 -140.51199340820312,81.73799896240234 -140.51199340820312,81.73799896240234 C-138.20700073242188,113.19400024414062 -113.19400024414062,138.20700073242188 -81.73799896240234,140.51199340820312 C-81.73799896240234,140.51199340820312 -49.3120002746582,142.88699340820312 -49.3120002746582,142.88699340820312 C-32.895999908447266,144.08999633789062 -16.448999404907227,144.6909942626953 0,144.6909942626953 C16.448999404907227,144.6909942626953 32.89699935913086,144.08999633789062 49.3129997253418,142.88699340820312 C49.3129997253418,142.88699340820312 81.73699951171875,140.51199340820312 81.73699951171875,140.51199340820312 C113.19400024414062,138.20700073242188 138.20799255371094,113.19400024414062 140.51199340820312,81.73799896240234 C140.51199340820312,81.73799896240234 142.88699340820312,49.3120002746582 142.88699340820312,49.3120002746582 C145.29200744628906,16.481000900268555 145.29200744628906,-16.481000900268555 142.88699340820312,-49.3120002746582 C142.88699340820312,-49.3120002746582 140.51199340820312,-81.73799896240234 140.51199340820312,-81.73799896240234 C138.20799255371094,-113.19400024414062 113.19400024414062,-138.20700073242188 81.73699951171875,-140.51199340820312 C81.73699951171875,-140.51199340820312 49.3129997253418,-142.88699340820312 49.3129997253418,-142.88699340820312 C32.89699935913086,-144.08999633789062 16.448999404907227,-144.6909942626953 0,-144.6909942626953 C0,-144.6909942626953 0,-144.6909942626953 0,-144.6909942626953z"></path></g></g><g filter="url(#__lottie_element_2871)" style="display: block;" transform="matrix(0.9999999403953552,0.000283088069409132,-0.000283088069409132,0.9999999403953552,242.2061767578125,265.66046142578125)" opacity="0.4"><g opacity="1" transform="matrix(1,0,0,1,0,0)"><path fill="url(#__lottie_element_2872)" fill-opacity="1" d=" M-0.06300000101327896,85.03099822998047 C-47.02899932861328,85.00299835205078 -85.09700012207031,46.85499954223633 -85.01599884033203,-0.1679999977350235 C-84.93499755859375,-47.3849983215332 -46.632999420166016,-85.20700073242188 0.10999999940395355,-85.02999877929688 C23.507999420166016,-84.94100189208984 43.680999755859375,-76.58699798583984 60.19200134277344,-60.034000396728516 C76.69200134277344,-43.492000579833984 84.98699951171875,-23.30500030517578 85.01599884033203,0.07500000298023224 C85.072998046875,47.0359992980957 46.9109992980957,85.05899810791016 -0.06300000101327896,85.03099822998047z"></path></g></g><g style="display: block;" transform="matrix(0.9999999403953552,0.000283088069409132,-0.000283088069409132,0.9999999403953552,250.03359985351562,250.03466796875)" opacity="1"><g opacity="1" transform="matrix(1,0,0,1,0,0)"><path fill="url(#__lottie_element_2869)" fill-opacity="1" d=" M-0.06300000101327896,85.03099822998047 C-47.02899932861328,85.00299835205078 -85.09700012207031,46.85499954223633 -85.01599884033203,-0.1679999977350235 C-84.93499755859375,-47.3849983215332 -46.632999420166016,-85.20700073242188 0.10999999940395355,-85.02999877929688 C23.507999420166016,-84.94100189208984 43.680999755859375,-76.58699798583984 60.19200134277344,-60.034000396728516 C76.69200134277344,-43.492000579833984 84.98699951171875,-23.30500030517578 85.01599884033203,0.07500000298023224 C85.072998046875,47.0359992980957 46.9109992980957,85.05899810791016 -0.06300000101327896,85.03099822998047z"></path></g></g><g style="display: none;" mask="url(#__lottie_element_2876_1)"><g transform="matrix(0.9986574053764343,-0.051801647990942,0.051801647990942,0.9986574053764343,335.2005310058594,150.46884155273438)" opacity="1"><g opacity="1" transform="matrix(1,0,0,1,0,0)"><path fill="rgb(254,255,255)" fill-opacity="1" d=" M40.60599899291992,-30.621000289916992 C40.54800033569336,-28.888999938964844 40.319000244140625,-27.172000885009766 40.066001892089844,-25.461000442504883 C39.27299880981445,-20.107999801635742 38.46900177001953,-14.758000373840332 37.645999908447266,-9.40999984741211 C36.805999755859375,-3.9539999961853027 35.94300079345703,1.5 35.08300018310547,6.953000068664551 C34.29499816894531,11.944999694824219 33.499000549316406,16.934999465942383 32.70399856567383,21.926000595092773 C31.909000396728516,26.91699981689453 31.115999221801758,31.908000946044922 30.312999725341797,36.89699935913086 C30.195999145507812,37.625 30.05299949645996,38.349998474121094 29.882999420166016,39.06700134277344 C29.625999450683594,40.14799880981445 29.163000106811523,41.141998291015625 28.488000869750977,42.02799987792969 C27.200000762939453,43.71900177001953 25.465999603271484,44.319000244140625 23.398000717163086,44.07500076293945 C21.968000411987305,43.90599822998047 20.607999801635742,43.479000091552734 19.285999298095703,42.92499923706055 C17.201000213623047,42.04999923706055 15.251999855041504,40.93299865722656 13.390000343322754,39.64799880981445 C11.512999534606934,38.35300064086914 9.58899974822998,37.12799835205078 7.685999870300293,35.87099838256836 C1.8619999885559082,32.02399826049805 -3.9609999656677246,28.174999237060547 -9.541000366210938,23.972999572753906 C-10.251999855041504,23.437000274658203 -10.984999656677246,22.924999237060547 -11.670999526977539,22.357999801635742 C-12.571000099182129,21.61400032043457 -13.25,20.645999908447266 -13.508000373840332,19.534000396728516 C-13.706000328063965,18.68000030517578 -13.725000381469727,17.749000549316406 -13.21399974822998,16.87299919128418 C-12.663999557495117,15.930000305175781 -11.987000465393066,15.126999855041504 -11.194000244140625,14.395999908447266 C-2.5999999046325684,6.482999801635742 5.889999866485596,-1.5390000343322754 14.184000015258789,-9.767999649047852 C15.126999855041504,-10.704000473022461 15.954000473022461,-11.722999572753906 16.56399917602539,-12.907999992370605 C16.766000747680664,-13.300000190734863 16.945999145507812,-13.70199966430664 17.033000946044922,-14.13599967956543 C17.2450008392334,-15.1899995803833 16.804000854492188,-15.67300033569336 15.74899959564209,-15.529999732971191 C15.258000373840332,-15.46399974822998 14.788000106811523,-15.302000045776367 14.32699966430664,-15.119000434875488 C13.276000022888184,-14.70300006866455 12.288999557495117,-14.163000106811523 11.315999984741211,-13.593000411987305 C10.105999946594238,-12.883999824523926 8.9399995803833,-12.107000350952148 7.7779998779296875,-11.324000358581543 C-3.184000015258789,-3.938999891281128 -14.14900016784668,3.441999912261963 -25.106000900268555,10.835000038146973 C-26.31100082397461,11.64799976348877 -27.535999298095703,12.416000366210938 -28.975000381469727,12.701000213623047 C-29.801000595092773,12.86400032043457 -30.6560001373291,12.913000106811523 -31.5,12.944000244140625 C-33.57899856567383,13.020999908447266 -35.61199951171875,12.687999725341797 -37.59600067138672,12.095999717712402 C-42.8849983215332,10.517000198364258 -48.130001068115234,8.795000076293945 -53.35599899291992,7.017000198364258 C-54.45100021362305,6.644000053405762 -55.13199996948242,5.828000068664551 -55.439998626708984,4.739999771118164 C-55.742000579833984,3.6710000038146973 -55.20199966430664,2.819000005722046 -54.55400085449219,2.0439999103546143 C-53.972999572753906,1.3480000495910645 -53.191001892089844,0.9020000100135803 -52.41400146484375,0.4650000035762787 C-51.02899932861328,-0.3140000104904175 -49.52899932861328,-0.8450000286102295 -48.06800079345703,-1.4520000219345093 C-44.04100036621094,-3.125999927520752 -39.98699951171875,-4.736999988555908 -35.95199966430664,-6.39300012588501 C-32.064998626708984,-7.98799991607666 -28.190000534057617,-9.611000061035156 -24.30699920654297,-11.215999603271484 C-21.496000289916992,-12.378000259399414 -18.680999755859375,-13.53499984741211 -15.866999626159668,-14.6899995803833 C-5.900000095367432,-18.7810001373291 4.083000183105469,-22.833999633789062 13.996000289916992,-27.05699920654297 C17.843000411987305,-28.695999145507812 21.70400047302246,-30.29800033569336 25.57900047302246,-31.868000030517578 C27.79800033569336,-32.766998291015625 29.996000289916992,-33.72200012207031 32.22100067138672,-34.60499954223633 C33.60599899291992,-35.15399932861328 35.05799865722656,-35.452999114990234 36.558998107910156,-35.36000061035156 C37.40800094604492,-35.30699920654297 38.236000061035156,-35.13100051879883 38.95399856567383,-34.62099838256836 C40.07699966430664,-33.823001861572266 40.45100021362305,-32.64699935913086 40.60200119018555,-31.36199951171875 C40.63100051879883,-31.118000030517578 40.60599899291992,-30.868000030517578 40.60599899291992,-30.621000289916992z"></path></g></g></g><g style="display: block;" mask="url(#__lottie_element_2881_1)"><g transform="matrix(0.9999999403953552,0.000283088069409132,-0.000283088069409132,0.9999999403953552,250.03358459472656,250.03468322753906)" opacity="1"><g opacity="1" transform="matrix(1,0,0,1,0,0)"><path fill="rgb(254,255,255)" fill-opacity="1" d=" M40.60599899291992,-30.621000289916992 C40.54800033569336,-28.888999938964844 40.319000244140625,-27.172000885009766 40.066001892089844,-25.461000442504883 C39.27299880981445,-20.107999801635742 38.46900177001953,-14.758000373840332 37.645999908447266,-9.40999984741211 C36.805999755859375,-3.9539999961853027 35.94300079345703,1.5 35.08300018310547,6.953000068664551 C34.29499816894531,11.944999694824219 33.499000549316406,16.934999465942383 32.70399856567383,21.926000595092773 C31.909000396728516,26.91699981689453 31.115999221801758,31.908000946044922 30.312999725341797,36.89699935913086 C30.195999145507812,37.625 30.05299949645996,38.349998474121094 29.882999420166016,39.06700134277344 C29.625999450683594,40.14799880981445 29.163000106811523,41.141998291015625 28.488000869750977,42.02799987792969 C27.200000762939453,43.71900177001953 25.465999603271484,44.319000244140625 23.398000717163086,44.07500076293945 C21.968000411987305,43.90599822998047 20.607999801635742,43.479000091552734 19.285999298095703,42.92499923706055 C17.201000213623047,42.04999923706055 15.251999855041504,40.93299865722656 13.390000343322754,39.64799880981445 C11.512999534606934,38.35300064086914 9.58899974822998,37.12799835205078 7.685999870300293,35.87099838256836 C1.8619999885559082,32.02399826049805 -3.9609999656677246,28.174999237060547 -9.541000366210938,23.972999572753906 C-10.251999855041504,23.437000274658203 -10.984999656677246,22.924999237060547 -11.670999526977539,22.357999801635742 C-12.571000099182129,21.61400032043457 -13.25,20.645999908447266 -13.508000373840332,19.534000396728516 C-13.706000328063965,18.68000030517578 -13.725000381469727,17.749000549316406 -13.21399974822998,16.87299919128418 C-12.663999557495117,15.930000305175781 -11.987000465393066,15.126999855041504 -11.194000244140625,14.395999908447266 C-2.5999999046325684,6.482999801635742 5.889999866485596,-1.5390000343322754 14.184000015258789,-9.767999649047852 C15.126999855041504,-10.704000473022461 15.954000473022461,-11.722999572753906 16.56399917602539,-12.907999992370605 C16.766000747680664,-13.300000190734863 16.945999145507812,-13.70199966430664 17.033000946044922,-14.13599967956543 C17.2450008392334,-15.1899995803833 16.804000854492188,-15.67300033569336 15.74899959564209,-15.529999732971191 C15.258000373840332,-15.46399974822998 14.788000106811523,-15.302000045776367 14.32699966430664,-15.119000434875488 C13.276000022888184,-14.70300006866455 12.288999557495117,-14.163000106811523 11.315999984741211,-13.593000411987305 C10.105999946594238,-12.883999824523926 8.9399995803833,-12.107000350952148 7.7779998779296875,-11.324000358581543 C-3.184000015258789,-3.938999891281128 -14.14900016784668,3.441999912261963 -25.106000900268555,10.835000038146973 C-26.31100082397461,11.64799976348877 -27.535999298095703,12.416000366210938 -28.975000381469727,12.701000213623047 C-29.801000595092773,12.86400032043457 -30.6560001373291,12.913000106811523 -31.5,12.944000244140625 C-33.57899856567383,13.020999908447266 -35.61199951171875,12.687999725341797 -37.59600067138672,12.095999717712402 C-42.8849983215332,10.517000198364258 -48.130001068115234,8.795000076293945 -53.35599899291992,7.017000198364258 C-54.45100021362305,6.644000053405762 -55.13199996948242,5.828000068664551 -55.439998626708984,4.739999771118164 C-55.742000579833984,3.6710000038146973 -55.20199966430664,2.819000005722046 -54.55400085449219,2.0439999103546143 C-53.972999572753906,1.3480000495910645 -53.191001892089844,0.9020000100135803 -52.41400146484375,0.4650000035762787 C-51.02899932861328,-0.3140000104904175 -49.52899932861328,-0.8450000286102295 -48.06800079345703,-1.4520000219345093 C-44.04100036621094,-3.125999927520752 -39.98699951171875,-4.736999988555908 -35.95199966430664,-6.39300012588501 C-32.064998626708984,-7.98799991607666 -28.190000534057617,-9.611000061035156 -24.30699920654297,-11.215999603271484 C-21.496000289916992,-12.378000259399414 -18.680999755859375,-13.53499984741211 -15.866999626159668,-14.6899995803833 C-5.900000095367432,-18.7810001373291 4.083000183105469,-22.833999633789062 13.996000289916992,-27.05699920654297 C17.843000411987305,-28.695999145507812 21.70400047302246,-30.29800033569336 25.57900047302246,-31.868000030517578 C27.79800033569336,-32.766998291015625 29.996000289916992,-33.72200012207031 32.22100067138672,-34.60499954223633 C33.60599899291992,-35.15399932861328 35.05799865722656,-35.452999114990234 36.558998107910156,-35.36000061035156 C37.40800094604492,-35.30699920654297 38.236000061035156,-35.13100051879883 38.95399856567383,-34.62099838256836 C40.07699966430664,-33.823001861572266 40.45100021362305,-32.64699935913086 40.60200119018555,-31.36199951171875 C40.63100051879883,-31.118000030517578 40.60599899291992,-30.868000030517578 40.60599899291992,-30.621000289916992z"></path></g></g></g></g></svg>