<svg xmlns="http://www.w3.org/2000/svg" width="1949.794" height="1436.282" viewBox="0 0 1949.794 1436.282">
  <path id="طرح" d="M1872.828,630.889c-17.455-8.407-42.663-20.828-42.915-20.952l.019-2.348c9.872,5.038,18.611,9.513,25.977,13.3,6.467,3.95,12.16,7.314,16.92,10Zm-42.9-23.3h0c-10.064-5.138-21.726-11.077-34.66-17.651-7.686-3.907-15.645-7.512-23.656-10.715-7.663-3.064-15.635-5.864-23.693-8.323a352.134,352.134,0,0,0-47.759-10.849c-32.094-5.116-64.524-6.6-98.858-8.17-33.982-1.555-69.121-3.162-106.352-8.467a553.887,553.887,0,0,1-57.44-11.182c-10.077-2.533-20.175-5.4-30.014-8.52-10.356-3.285-20.773-6.961-30.964-10.927-10.658-4.148-21.417-8.749-31.978-13.675-10.994-5.128-22.116-10.768-33.058-16.763-11.347-6.217-22.854-13.011-34.2-20.192-11.733-7.425-23.647-15.487-35.413-23.962-12.135-8.741-24.479-18.186-36.687-28.072-12.563-10.173-25.358-21.115-38.027-32.523-13.014-11.717-26.281-24.272-39.433-37.315-13.487-13.376-27.249-27.657-40.9-42.447-12.659-13.713-25.337-26.587-37.682-38.265-12.086-11.432-24.212-22.06-36.043-31.586-11.562-9.31-23.194-17.854-34.574-25.394A368.027,368.027,0,0,0,945.258,182.9a304.059,304.059,0,0,0-32.146-14.466,266.6,266.6,0,0,0-31.185-9.732,251.463,251.463,0,0,0-30.4-5.483,257.011,257.011,0,0,0-29.775-1.72c-7.522,0-15.27.326-23.032.969-7.419.614-15.1,1.539-22.836,2.749a417.378,417.378,0,0,0-45.416,9.9c-30.274,8.247-60.311,19.23-92.112,30.858-4.328,1.583-9.234,3.377-14.051,5.128-15.456,5.621-33.753,12.181-52.275,18.214-19.787,6.445-37.8,11.643-55.07,15.889a548.9,548.9,0,0,1-58.675,11.239c-10.331,1.384-20.741,2.444-30.943,3.149-10.693.74-21.509,1.115-32.148,1.115-14.862,0-29.955-.731-44.859-2.175-15.645-1.515-31.6-3.865-47.416-6.985-16.516-3.257-33.411-7.456-50.216-12.481-17.472-5.224-35.392-11.5-53.26-18.664-19.92-7.982-38.616-16.209-55.569-24.451-16.393-7.97-31.6-16.172-45.2-24.378A376.265,376.265,0,0,1,63.047,137.4,244.57,244.57,0,0,1,36.2,113.517a162,162,0,0,1-18.85-23.456A114.759,114.759,0,0,1,5.706,67.147,92.537,92.537,0,0,1,.473,44.89,88.75,88.75,0,0,1,.864,23.409,89.8,89.8,0,0,0,4.379,43.2a110.612,110.612,0,0,0,8.587,20.757A151.441,151.441,0,0,0,27.211,85.644,219.779,219.779,0,0,0,47.7,108.233a325.412,325.412,0,0,0,27.319,23.45c10.43,8.05,22.117,16.217,34.735,24.275,13.022,8.316,27.4,16.748,42.738,25.063,15.805,8.569,33.074,17.254,51.326,25.814a405.261,405.261,0,0,0,39.652,16.14,364.928,364.928,0,0,0,38.676,11.03,343.124,343.124,0,0,0,37.726,6.322,337.608,337.608,0,0,0,36.8,2.018,349.991,349.991,0,0,0,43.236-2.721,385.2,385.2,0,0,0,41.992-7.691c13.343-3.2,27.07-7.226,40.8-11.951,12.9-4.44,26.244-9.656,39.661-15.5a767.862,767.862,0,0,0,76.119-38.813c26.606-15.3,52.561-31.814,72.2-44.494,9-5.809,18-11.678,26.707-17.353l.008-.005c41.886-27.3,81.449-53.091,119.86-72.26,20.572-10.266,39.092-17.778,56.619-22.966a220.625,220.625,0,0,1,27.616-6.354A173.049,173.049,0,0,1,928.7,0a148.667,148.667,0,0,1,26.8,2.4,144.2,144.2,0,0,1,26.465,7.555,159.766,159.766,0,0,1,26.172,13.23,198.838,198.838,0,0,1,25.918,19.429,268.5,268.5,0,0,1,25.7,26.149,379.112,379.112,0,0,1,25.527,33.393c8.522,12.451,17.064,26.3,25.39,41.159,8.474,15.125,16.984,31.762,25.292,49.447,9.825,20.917,19.879,41.111,29.883,60.021,9.772,18.474,19.777,36.253,29.736,52.844,9.715,16.184,19.666,31.7,29.576,46.122,9.648,14.04,19.54,27.45,29.4,39.856,9.58,12.054,19.408,23.509,29.21,34.047,9.5,10.215,19.262,19.869,29.006,28.694,9.422,8.531,19.107,16.538,28.788,23.8,9.33,7,18.937,13.508,28.554,19.355,9.232,5.613,18.755,10.784,28.306,15.37,9.125,4.381,18.56,8.365,28.044,11.841,9,3.3,18.345,6.25,27.767,8.768,8.863,2.369,18.108,4.439,27.475,6.151a445.217,445.217,0,0,0,54.019,6.276c19,1.129,37.292,1.281,52.678,1.281,6.441,0,12.852-.031,19.051-.061h.321c6.091-.029,12.389-.059,18.531-.059,13.552,0,29.593.122,45.814,1.025a367.966,367.966,0,0,1,44.439,4.93,240.973,240.973,0,0,1,42.976,11.618,208.293,208.293,0,0,1,41.425,21.089c10.524,6.931,20.278,13.278,28.991,18.864l-.024,3Z" transform="translate(1949.794 557.042) rotate(152)" fill="#2bd7b9" opacity="0.036"/>
</svg>
